<svg width="56" height="56" viewBox="0 0 56 56" fill="none" xmlns="http://www.w3.org/2000/svg">
<path d="M47.96 12.39C47.537 12.178 46.568 13.255 46.18 14.31C45.88 15.137 45.741 16.751 46.28 16.93C46.802 17.147 47.715 15.913 48.06 15.01C48.365 14.167 48.492 12.6 47.96 12.39Z" fill="#60C6B1"/>
<path d="M35.9604 18.9602C35.6671 19.1419 35.3983 19.3603 35.1604 19.6102C34.8176 20.036 34.1998 20.1154 33.7604 19.7902C33.3303 19.4563 33.2419 18.8418 33.5604 18.4002C34.0066 17.8694 34.5495 17.4282 35.1604 17.1002C35.1704 17.1002 35.1704 17.0902 35.1804 17.0902C36.8004 16.1602 39.5804 15.3702 43.9404 16.3002C43.8576 15.3911 43.9806 14.4751 44.3004 13.6202C44.6018 12.7886 45.0832 12.0339 45.7104 11.4102C45.4204 11.3002 45.1404 11.1802 44.8504 11.0902C35.2204 7.93017 28.8504 13.9302 26.3604 16.9602C30.4304 19.4902 32.4204 24.1302 33.1204 26.1202C33.2504 26.5002 33.3204 26.7102 33.3204 26.7102C33.4806 27.2404 33.1806 27.8 32.6504 27.9602C32.1202 28.1203 31.5606 27.8204 31.4004 27.2902C31.4004 27.2802 31.3404 27.0902 31.2304 26.7802C30.7104 25.2802 28.6604 20.2102 24.4304 18.1702C23.4779 17.7136 22.452 17.4292 21.4004 17.3302C19.8009 17.1983 18.1916 17.4097 16.6804 17.9502C13.4926 19.123 11.0337 21.715 10.0304 24.9602C8.72682 28.8555 8.64309 33.056 9.7904 37.0002H14.9704L18.2104 28.8902C18.6703 27.737 19.793 26.9863 21.0344 27.0018C22.2758 27.0173 23.3794 27.7959 23.8104 28.9602L28.0204 40.3902L31.1904 31.9502C31.6144 30.7975 32.7024 30.0232 33.9304 30.0002C35.1489 29.9996 36.2554 30.7112 36.7604 31.8202L38.9804 37.0002H44.6904C45.1504 29.9002 42.7904 23.8902 40.1104 21.0402C39.0931 19.7791 37.5795 19.0205 35.9604 18.9602Z" fill="#60C6B1"/>
<path d="M34.1903 41.0501L30.8103 50.0501C30.3737 51.2287 29.2487 52.0102 27.9918 52.0079C26.735 52.0057 25.6127 51.2202 25.1803 50.0401L20.8803 38.3701L19.7903 41.1101C19.3354 42.2523 18.2297 43.0013 17.0003 43.0001H12.3203C12.4103 43.1601 12.6003 43.4901 12.6103 43.5001C15.0949 47.4478 18.6258 50.6291 22.8103 52.6901C25.024 53.8303 27.3497 54.7385 29.7503 55.4001C33.3203 56.3101 36.0703 56.0901 38.1703 54.7201C41.3603 52.6401 42.8203 48.0201 43.8103 43.0001H37.0003C35.7616 42.9595 34.6618 42.1963 34.1903 41.0501Z" fill="#60C6B1"/>
<path d="M24.4797 5.31006C23.3319 5.78185 22.1005 6.01656 20.8597 6.00006C19.6883 6.01243 18.525 5.80554 17.4297 5.39006C17.4545 7.09451 17.783 8.78089 18.3997 10.3701C18.7097 10.2901 19.0097 10.2001 19.3097 10.1501C19.6719 10.0537 20.0576 10.168 20.3088 10.4461C20.56 10.7243 20.6347 11.1195 20.5021 11.4701C20.3696 11.8207 20.0521 12.0677 19.6797 12.1101C19.1897 12.2101 18.6897 12.3301 18.1897 12.4801C15.4497 13.3001 12.3497 15.0901 11.4297 18.9601C12.7151 17.6398 14.2949 16.6426 16.0397 16.0501C17.5555 15.5337 19.1484 15.2801 20.7497 15.3001C21.1738 13.8642 21.7469 12.4767 22.4597 11.1601C23.1206 9.95636 23.9526 8.8549 24.9297 7.89006C24.7179 7.04198 24.5675 6.17975 24.4797 5.31006Z" fill="#60C6B1"/>
<path d="M20.8604 2C19.8324 2 17.5954 2.362 17.3604 3.02C17.4704 3.27 18.6804 4 20.8604 4C23.0104 4 24.2204 3.29 24.3604 3C24.2204 2.71 23.0104 2 20.8604 2Z" fill="#60C6B1"/>
<path d="M32.3604 0C31.5319 0 30.8604 0.671573 30.8604 1.5V4.41C31.2904 4.28 31.7104 4.15 32.1504 4.05C32.7104 3.93 33.2804 3.83 33.8604 3.75V1.5C33.8604 0.671573 33.1888 0 32.3604 0Z" fill="#60C6B1"/>
<path d="M41.2 0.83C41.0281 0.472823 40.7172 0.201746 40.34 0.08C39.5558 -0.184461 38.7056 0.236175 38.44 1.02L37.46 3.64C38.4649 3.71392 39.4598 3.88812 40.43 4.16L41.3 1.93C41.4114 1.56432 41.3755 1.16961 41.2 0.83Z" fill="#60C6B1"/>
<path d="M46.61 4.67C46.39 4.33838 46.0471 4.1078 45.657 4.02903C45.2669 3.95026 44.8615 4.02975 44.53 4.25L42.96 5.3C43.8337 5.85204 44.572 6.59371 45.12 7.47L46.2 6.75C46.5306 6.53046 46.7607 6.18886 46.84 5.8C46.9222 5.40773 46.839 4.99891 46.61 4.67Z" fill="#60C6B1"/>
<path d="M32.5895 5.99987C30.41 6.43677 28.3868 7.44836 26.7295 8.92987C24.8476 10.7358 23.4807 13.0105 22.7695 15.5199C23.3717 15.6488 23.9633 15.8227 24.5395 16.0399C26.9295 13.0099 33.4495 6.38987 43.4995 8.64987C41.6685 5.49987 36.1795 5.17887 32.5895 5.99987Z" fill="#60C6B1"/>
<path d="M28 50C27.5823 49.9986 27.2095 49.7379 27.065 49.346L20.965 32.788L17.932 40.371C17.7798 40.752 17.4103 41.0014 17 41H1C0.447715 41 0 40.5523 0 40C0 39.4477 0.447715 39 1 39H16.323L20.071 29.629C20.2245 29.2445 20.5991 28.9944 21.0131 28.9999C21.4271 29.0055 21.7948 29.2655 21.938 29.654L28.008 46.13L33.063 32.648C33.2067 32.2656 33.5686 32.009 33.977 32C34.3823 32.0012 34.7499 32.2377 34.919 32.606L37.659 39H55C55.5523 39 56 39.4477 56 40C56 40.5523 55.5523 41 55 41H37C36.6 41 36.2386 40.7616 36.081 40.394L34.062 35.683L28.937 49.352C28.7903 49.7422 28.4169 50.0004 28 50Z" fill="#60C6B1"/>
</svg>
