<svg width="229" height="36" viewBox="0 0 229 36" fill="none" xmlns="http://www.w3.org/2000/svg">
<path d="M20.9321 28.5182C20.4914 28.5182 20.1377 28.683 19.8711 29.0144C19.6026 29.344 19.1544 29.6828 18.5267 30.029C18.0545 30.3123 17.4656 30.5641 16.7583 30.7826C16.0509 31.0029 15.0824 31.114 13.8566 31.114C12.0011 31.114 10.3809 30.6826 8.99576 29.8161C7.61065 28.9515 6.52553 27.7628 5.74039 26.2539C4.95339 24.7431 4.56082 23.0453 4.56082 21.1586C4.56082 19.272 4.97006 17.6371 5.78853 16.1578C6.607 14.6803 7.72361 13.5009 9.13834 12.6196C10.5549 11.7402 12.1419 11.2995 13.9047 11.2995C14.8491 11.2995 15.7046 11.3699 16.4768 11.5124C17.2471 11.6532 17.836 11.8346 18.2452 12.0549C18.6859 12.2438 19.0156 12.4734 19.2359 12.74C19.4563 13.0084 19.684 13.2269 19.9211 13.4009C20.1562 13.575 20.4784 13.6602 20.8877 13.6602C21.2654 13.6602 21.5636 13.512 21.7839 13.2121C22.0043 12.914 22.1135 12.6067 22.1135 12.2919C22.1135 11.6309 21.7284 11.0181 20.958 10.4516C20.1859 9.885 19.173 9.43695 17.9138 9.10739C16.6546 8.77782 15.2713 8.61119 13.7622 8.61119C11.3401 8.61119 9.23278 9.18515 7.44029 10.3331C5.6478 11.481 4.24788 12.9992 3.24053 14.8858C2.23318 16.7725 1.73135 18.8646 1.73135 21.1605C1.73135 23.4563 2.22762 25.6984 3.21831 27.5999C4.20899 29.5032 5.5941 31.0047 7.36992 32.1064C9.14575 33.208 11.1993 33.7579 13.527 33.7579C15.225 33.7579 16.7194 33.5301 18.0082 33.0728C19.297 32.6174 20.3118 32.0823 21.0525 31.4695C21.7913 30.8566 22.1617 30.2975 22.1617 29.7939C22.1617 29.4162 22.0598 29.1107 21.8543 28.8737C21.6487 28.6367 21.3432 28.5201 20.934 28.5201L20.9321 28.5182Z" fill="#055E64"/>
<path d="M47.3529 9.17589C46.9122 9.17589 46.5659 9.3166 46.3159 9.59988C46.0641 9.88315 45.9381 10.2294 45.9381 10.6386V13.6028C45.4604 12.7344 44.8493 11.9494 44.0975 11.2532C43.2161 10.4349 42.1865 9.79058 41.0069 9.31845C39.8274 8.84633 38.5608 8.61119 37.209 8.61119C35.1332 8.61119 33.2611 9.14627 31.5945 10.2146C29.9261 11.2847 28.6058 12.7548 27.6318 14.6248C26.6559 16.4966 26.1689 18.6591 26.1689 21.1123C26.1689 23.5655 26.6485 25.6577 27.6077 27.5758C28.5669 29.4939 29.8872 31.0029 31.5704 32.1045C33.2537 33.2061 35.1647 33.756 37.3034 33.756C38.6237 33.756 39.8588 33.5116 41.0069 33.0247C42.155 32.5378 43.155 31.9082 44.0031 31.138C44.8123 30.403 45.4567 29.5958 45.9381 28.7182V31.8694C45.9381 32.2471 46.0641 32.5766 46.3159 32.8599C46.5677 33.1432 46.9122 33.2839 47.3529 33.2839C47.7306 33.2839 48.0602 33.1432 48.3436 32.8599C48.6269 32.5766 48.7676 32.2471 48.7676 31.8694V10.6386C48.7676 10.2294 48.6343 9.88315 48.3658 9.59988C48.0991 9.3166 47.7603 9.17589 47.351 9.17589H47.3529ZM45.0178 26.2298C44.279 27.7554 43.2642 28.9496 41.9735 29.8142C40.6829 30.6807 39.2052 31.1121 37.5386 31.1121C35.872 31.1121 34.3925 30.6807 33.1037 29.8142C31.813 28.9496 30.7983 27.7554 30.0594 26.2298C29.3206 24.7042 28.9502 22.999 28.9502 21.1105C28.9502 19.222 29.3206 17.4945 30.0594 16.0152C30.7983 14.5377 31.8204 13.3806 33.1259 12.5474C34.4314 11.7143 35.9017 11.2977 37.5368 11.2977C39.1719 11.2977 40.6829 11.7309 41.9717 12.5956C43.2605 13.4602 44.2753 14.6396 45.016 16.1337C45.7548 17.6279 46.1252 19.2868 46.1252 21.1105C46.1252 22.9342 45.7548 24.7042 45.016 26.2298H45.0178Z" fill="#055E64"/>
<path d="M69.1053 8.96298C68.5702 8.72784 68.0202 8.60934 67.4536 8.60934C66.0999 8.60934 64.8815 8.89262 63.7964 9.45917C62.7112 10.0257 61.7742 10.7645 60.9891 11.6772C60.2021 12.59 59.5799 13.5879 59.1244 14.6729C59.0837 14.771 59.0448 14.8692 59.0059 14.9673V10.733C59.0059 10.3553 58.8726 10.0257 58.6059 9.74244C58.3374 9.45917 58.0004 9.31846 57.5911 9.31846C57.1819 9.31846 56.8356 9.45917 56.5523 9.74244C56.269 10.0257 56.1283 10.3553 56.1283 10.733V31.8675C56.1283 32.2452 56.2616 32.5748 56.5282 32.8581C56.7949 33.1413 57.1486 33.282 57.5893 33.282C57.9671 33.282 58.2967 33.1413 58.58 32.8581C58.8633 32.5748 59.004 32.2452 59.004 31.8675V20.2144C59.004 19.1146 59.217 18.0204 59.641 16.9354C60.0651 15.8504 60.6391 14.8673 61.3632 13.986C62.0872 13.1066 62.889 12.4049 63.7704 11.8864C64.65 11.368 65.5314 11.1088 66.4129 11.1088C66.948 11.1088 67.3795 11.1884 67.7109 11.344C68.0406 11.5013 68.3479 11.5791 68.6313 11.5791C68.9775 11.5791 69.2757 11.4532 69.5275 11.2014C69.7793 10.9496 69.9053 10.5886 69.9053 10.1164C69.9053 9.58137 69.6368 9.19626 69.1035 8.96112L69.1053 8.96298Z" fill="#055E64"/>
<path d="M90.4559 11.5106C89.4338 10.5515 88.269 9.82761 86.9636 9.34068C85.6581 8.85374 84.3137 8.60934 82.9286 8.60934C81.0417 8.60934 79.2566 9.12035 77.5733 10.1424C75.8901 11.1644 74.5217 12.6196 73.468 14.5063C72.4144 16.3929 71.8866 18.6739 71.8866 21.3475C71.8866 23.8321 72.4051 26.0021 73.4439 27.8591C74.4828 29.7143 75.929 31.1621 77.7844 32.1989C79.6399 33.2358 81.7787 33.756 84.2007 33.756C85.9932 33.756 87.645 33.3376 89.156 32.5044C90.6652 31.6713 91.8929 30.6881 92.8373 29.5569C93.1502 29.2736 93.3095 28.944 93.3095 28.5663C93.3095 28.2516 93.191 27.9683 92.9558 27.7165C92.7206 27.4647 92.4281 27.3388 92.0836 27.3388C91.7688 27.3388 91.4392 27.4795 91.0929 27.7628C90.6522 28.3294 90.093 28.8718 89.4171 29.3903C88.7394 29.9087 87.9709 30.3271 87.1043 30.64C86.2395 30.9548 85.2562 31.1121 84.1545 31.1121C82.1731 31.1121 80.4658 30.6715 79.0344 29.7902C77.603 28.9107 76.5104 27.7147 75.7549 26.2057C75.0068 24.7079 74.6309 23.0416 74.6235 21.2049H92.4577C92.8354 21.2049 93.1651 21.0716 93.4484 20.805C93.7317 20.5384 93.8891 20.2144 93.9206 19.8385C93.8576 18.0148 93.5187 16.4114 92.9058 15.0265C92.2929 13.6435 91.4744 12.4715 90.4522 11.5125L90.4559 11.5106ZM90.9522 18.6591H74.8402C74.9661 17.9722 75.1457 17.3335 75.3827 16.7484C75.8845 15.5061 76.5382 14.4841 77.34 13.6824C78.1418 12.8807 79.0381 12.2901 80.0288 11.9124C81.0194 11.5347 81.9861 11.3458 82.9304 11.3458C84.1878 11.3458 85.3914 11.6217 86.5395 12.1716C87.6876 12.7215 88.6709 13.5083 89.4893 14.5303C90.3078 15.5524 90.7948 16.8021 90.9522 18.2814V18.6591Z" fill="#055E64"/>
<path d="M118.838 9.03332C118.554 8.81299 118.254 8.70376 117.941 8.70376C117.28 8.67228 116.825 8.97037 116.573 9.59987L108.514 28.6867L100.483 9.59987C100.357 9.28697 100.168 9.04998 99.9166 8.89261C99.6647 8.73523 99.4129 8.65747 99.161 8.65747C98.6888 8.65747 98.3278 8.79818 98.0759 9.08146C97.8241 9.36473 97.6982 9.67948 97.6982 10.0257C97.6982 10.1516 97.7148 10.2775 97.7463 10.4034C97.7778 10.5293 97.8093 10.6385 97.8407 10.733L107.137 32.3878C107.231 32.6711 107.42 32.8988 107.703 33.071C107.986 33.245 108.27 33.3154 108.553 33.2839C109.151 33.2524 109.575 32.9543 109.827 32.3878L119.075 10.6867C119.106 10.5923 119.145 10.483 119.193 10.3571C119.24 10.2312 119.264 10.0738 119.264 9.885C119.264 9.53877 119.123 9.25735 118.84 9.03517L118.838 9.03332Z" fill="#055E64"/>
<path d="M144.364 9.17589C143.923 9.17589 143.577 9.3166 143.327 9.59988C143.075 9.88315 142.949 10.2294 142.949 10.6386V13.6028C142.472 12.7344 141.86 11.9494 141.109 11.2532C140.227 10.4349 139.198 9.79058 138.018 9.31845C136.839 8.84633 135.572 8.61119 134.22 8.61119C132.144 8.61119 130.272 9.14627 128.606 10.2146C126.937 11.2847 125.617 12.7548 124.643 14.6248C123.667 16.4966 123.18 18.6591 123.18 21.1123C123.18 23.5655 123.66 25.6577 124.619 27.5758C125.578 29.4939 126.898 31.0029 128.582 32.1045C130.265 33.2061 132.176 33.756 134.315 33.756C135.635 33.756 136.87 33.5116 138.018 33.0247C139.166 32.5378 140.166 31.9082 141.014 31.138C141.823 30.403 142.468 29.5958 142.949 28.7182V31.8694C142.949 32.2471 143.075 32.5766 143.327 32.8599C143.579 33.1432 143.923 33.2839 144.364 33.2839C144.742 33.2839 145.071 33.1432 145.355 32.8599C145.638 32.5766 145.779 32.2471 145.779 31.8694V10.6386C145.779 10.2294 145.645 9.88315 145.377 9.59988C145.11 9.3166 144.771 9.17589 144.362 9.17589H144.364ZM142.027 26.2298C141.286 27.7554 140.273 28.9496 138.983 29.8142C137.692 30.6807 136.214 31.1121 134.548 31.1121C132.881 31.1121 131.402 30.6807 130.113 29.8142C128.822 28.9496 127.808 27.7554 127.069 26.2298C126.33 24.7042 125.959 22.999 125.959 21.1105C125.959 19.222 126.33 17.4945 127.069 16.0152C127.808 14.5377 128.83 13.3806 130.135 12.5474C131.441 11.7143 132.911 11.2977 134.546 11.2977C136.181 11.2977 137.692 11.7309 138.981 12.5956C140.27 13.4602 141.285 14.6396 142.025 16.1337C142.764 17.6279 143.134 19.2868 143.134 21.1105C143.134 22.9342 142.764 24.7042 142.025 26.2298H142.027Z" fill="#055E64"/>
<path d="M162.624 9.27032H157.906V4.03251C157.906 3.6548 157.773 3.32524 157.506 3.04197C157.237 2.75869 156.9 2.61798 156.491 2.61798C156.082 2.61798 155.736 2.75869 155.452 3.04197C155.169 3.32524 155.028 3.6548 155.028 4.03251V9.27032H151.63C151.253 9.27032 150.93 9.39622 150.664 9.64802C150.395 9.89982 150.264 10.2146 150.264 10.5904C150.264 10.9663 150.397 11.2903 150.664 11.5569C150.93 11.8253 151.254 11.9587 151.63 11.9587H155.028V27.8572C155.028 29.2718 155.232 30.3567 155.641 31.1121C156.05 31.8675 156.554 32.3933 157.15 32.6933C157.748 32.9932 158.33 33.1654 158.897 33.2117C159.463 33.2598 159.887 33.282 160.171 33.282C160.861 33.282 161.459 33.1339 161.963 32.834C162.467 32.5359 162.719 32.1656 162.719 31.725C162.719 31.3787 162.617 31.0955 162.413 30.8751C162.207 30.6548 161.965 30.5456 161.682 30.5456C161.43 30.5456 161.202 30.5845 160.996 30.6641C160.791 30.7437 160.563 30.7826 160.313 30.7826C159.935 30.7826 159.558 30.7122 159.18 30.5715C158.802 30.4308 158.497 30.1383 158.26 29.6995C158.024 29.2588 157.906 28.5997 157.906 27.7184V11.9605H162.624C163.002 11.9605 163.315 11.8346 163.569 11.5828C163.82 11.331 163.946 11.0163 163.946 10.6386C163.946 10.2609 163.82 9.9387 163.569 9.67209C163.317 9.40547 163.002 9.27217 162.624 9.27217V9.27032Z" fill="#055E64"/>
<path d="M170.503 8.75191C170.094 8.75191 169.755 8.89262 169.489 9.17589C169.22 9.45917 169.089 9.78873 169.089 10.1664V31.8675C169.089 32.2452 169.214 32.5748 169.466 32.8581C169.718 33.1413 170.064 33.282 170.505 33.282C170.883 33.282 171.213 33.1413 171.496 32.8581C171.779 32.5748 171.92 32.2452 171.92 31.8675V10.1664C171.92 9.78873 171.787 9.45917 171.52 9.17589C171.251 8.89262 170.914 8.75191 170.505 8.75191H170.503Z" fill="#055E64"/>
<path d="M170.55 1.62744C169.92 1.62744 169.426 1.77741 169.063 2.0755C168.7 2.37544 168.52 2.80683 168.52 3.37338V3.8455C168.52 4.41205 168.685 4.8453 169.016 5.14338C169.346 5.44332 169.842 5.59144 170.503 5.59144C171.164 5.59144 171.612 5.44332 171.942 5.14338C172.272 4.8453 172.438 4.41205 172.438 3.8455V3.37338C172.438 2.80683 172.274 2.37544 171.942 2.0755C171.612 1.77741 171.148 1.62744 170.55 1.62744Z" fill="#055E64"/>
<path d="M195.935 10.2609C194.143 9.16108 192.097 8.60934 189.8 8.60934C187.504 8.60934 185.545 9.15923 183.738 10.2609C181.929 11.3625 180.497 12.8548 179.444 14.7433C178.39 16.6299 177.862 18.785 177.862 21.2068C177.862 23.6285 178.388 25.7447 179.444 27.6462C180.497 29.5495 181.929 31.0436 183.738 32.1286C185.547 33.2135 187.567 33.756 189.8 33.756C192.034 33.756 194.141 33.2135 195.935 32.1286C197.728 31.0436 199.144 29.5495 200.181 27.6462C201.218 25.7447 201.739 23.597 201.739 21.2068C201.739 18.8165 201.22 16.6299 200.181 14.7433C199.142 12.8566 197.728 11.3625 195.935 10.2609ZM197.728 26.3002C196.941 27.7795 195.865 28.9496 194.496 29.8142C193.128 30.6807 191.563 31.1121 189.802 31.1121C188.041 31.1121 186.562 30.6807 185.178 29.8142C183.793 28.9496 182.701 27.7795 181.899 26.3002C181.097 24.8227 180.695 23.1249 180.695 21.2049C180.695 19.2849 181.095 17.5797 181.899 16.0856C182.701 14.5914 183.793 13.4195 185.178 12.5715C186.562 11.7217 188.104 11.2977 189.802 11.2977C191.5 11.2977 193.128 11.7217 194.496 12.5715C195.865 13.4213 196.941 14.5933 197.728 16.0856C198.513 17.5797 198.907 19.2868 198.907 21.2049C198.907 23.123 198.515 24.8227 197.728 26.3002Z" fill="#055E64"/>
<path d="M226.817 13.2565C226.267 11.8253 225.369 10.6941 224.126 9.85909C222.884 9.02593 221.224 8.60934 219.149 8.60934C218.015 8.60934 216.891 8.82226 215.775 9.24625C214.658 9.67024 213.643 10.2535 212.731 10.9922C211.877 11.6828 211.171 12.4586 210.607 13.3139V10.733C210.607 10.3553 210.473 10.0257 210.207 9.74244C209.938 9.45917 209.601 9.31846 209.192 9.31846C208.783 9.31846 208.436 9.45917 208.153 9.74244C207.87 10.0257 207.729 10.3553 207.729 10.733V31.8675C207.729 32.2452 207.862 32.5748 208.129 32.8581C208.396 33.1413 208.749 33.282 209.192 33.282C209.57 33.282 209.899 33.1413 210.183 32.8581C210.466 32.5748 210.607 32.2452 210.607 31.8675V18.1389C210.607 16.8817 210.984 15.732 211.738 14.6951C212.493 13.6565 213.477 12.8307 214.688 12.2179C215.899 11.605 217.18 11.2977 218.534 11.2977C220.043 11.2977 221.254 11.6032 222.167 12.2179C223.08 12.8307 223.739 13.6565 224.148 14.6951C224.558 15.732 224.761 16.8817 224.761 18.1389V31.8675C224.761 32.2452 224.895 32.5748 225.161 32.8581C225.428 33.1413 225.782 33.282 226.222 33.282C226.6 33.282 226.93 33.1413 227.213 32.8581C227.496 32.5748 227.637 32.2452 227.637 31.8675V17.9982C227.637 16.2689 227.361 14.6877 226.811 13.2565H226.817Z" fill="#055E64"/>
</svg>
