<svg xmlns="http://www.w3.org/2000/svg" xmlns:xlink="http://www.w3.org/1999/xlink" width="7422" height="2063" viewBox="0 0 7422 2063"><defs><clipPath id="clip-path"><rect id="Rectangle_13" data-name="Rectangle 13" width="7422" height="2063"></rect></clipPath><clipPath id="clip-path-2"><path id="Exclusion_3" data-name="Exclusion 3" d="M905,1810a919.3,919.3,0,0,1-92.489-4.668,907.281,907.281,0,0,1-89.9-13.718c-29.157-5.966-58.337-13.47-86.73-22.3-28.077-8.733-56.052-18.972-83.148-30.432-26.845-11.355-53.462-24.176-79.11-38.109-25.465-13.833-50.57-29.085-74.617-45.331-23.93-16.167-47.371-33.7-69.67-52.1-22.244-18.357-43.866-38.009-64.268-58.41s-40.053-42.023-58.41-64.268c-18.4-22.3-35.931-45.74-52.1-69.67-16.246-24.047-31.5-49.152-45.331-74.617-13.933-25.648-26.755-52.264-38.109-79.11-11.46-27.1-21.7-55.07-30.432-83.148-8.831-28.393-16.334-57.574-22.3-86.73A907.252,907.252,0,0,1,4.673,997.531a918.541,918.541,0,0,1,0-185.062,907.2,907.2,0,0,1,13.714-89.858c5.966-29.157,13.47-58.337,22.3-86.73C49.42,607.8,59.659,579.829,71.12,552.733c11.355-26.845,24.176-53.462,38.109-79.11,13.833-25.465,29.085-50.57,45.331-74.617,16.167-23.93,33.7-47.371,52.1-69.67,18.358-22.244,38.01-43.867,58.41-64.268s42.023-40.053,64.268-58.41c22.3-18.4,45.74-35.931,69.67-52.1,24.048-16.246,49.153-31.5,74.617-45.331,25.648-13.933,52.264-26.755,79.11-38.109,27.1-11.461,55.071-21.7,83.148-30.432,28.393-8.831,57.573-16.334,86.73-22.3A907.252,907.252,0,0,1,812.47,4.673a918.536,918.536,0,0,1,185.062,0,907.252,907.252,0,0,1,89.858,13.714c29.156,5.966,58.337,13.469,86.73,22.3,28.077,8.733,56.052,18.972,83.148,30.432,26.845,11.355,53.462,24.176,79.11,38.109,25.466,13.834,50.571,29.085,74.617,45.331,23.93,16.167,47.371,33.7,69.67,52.1,22.244,18.358,43.867,38.01,64.268,58.41s40.053,42.024,58.41,64.268c18.4,22.3,35.931,45.74,52.1,69.67,16.246,24.048,31.5,49.153,45.331,74.617,13.933,25.648,26.755,52.264,38.109,79.11,11.461,27.1,21.7,55.071,30.432,83.148,8.831,28.393,16.334,57.573,22.3,86.73a907.276,907.276,0,0,1,13.714,89.858,918.567,918.567,0,0,1,0,185.062,907.308,907.308,0,0,1-13.714,89.858c-5.966,29.156-13.469,58.337-22.3,86.73-8.733,28.077-18.972,56.052-30.432,83.148-11.355,26.845-24.176,53.462-38.109,79.11-13.834,25.466-29.085,50.571-45.331,74.617-16.167,23.93-33.7,47.371-52.1,69.67-18.357,22.244-38.009,43.866-58.41,64.268s-42.024,40.053-64.268,58.41c-22.3,18.4-45.74,35.931-69.67,52.1-24.047,16.246-49.152,31.5-74.617,45.331-25.648,13.933-52.264,26.755-79.11,38.109-27.1,11.46-55.07,21.7-83.148,30.432-28.393,8.831-57.574,16.334-86.73,22.3a907.268,907.268,0,0,1-89.858,13.714A919.492,919.492,0,0,1,905,1810Zm.5-1622C509.869,188,188,509.869,188,905.5S509.869,1623,905.5,1623,1623,1301.13,1623,905.5,1301.13,188,905.5,188Z" transform="translate(6827 2771)" fill="#61b33b"></path></clipPath></defs><g id="Hello-Green_2" data-name="Hello-Green &#x2013; 2" clip-path="url(#clip-path)"><path id="Subtraction_7" data-name="Subtraction 7" d="M905,1980a919.5,919.5,0,0,1-92.477-4.667,907,907,0,0,1-89.912-13.72c-29.163-5.967-58.343-13.47-86.73-22.3-28.087-8.736-56.062-18.975-83.148-30.432-26.849-11.357-53.465-24.179-79.11-38.11-25.463-13.832-50.568-29.084-74.617-45.331-23.928-16.165-47.368-33.693-69.67-52.1-22.243-18.357-43.866-38.009-64.267-58.41s-40.055-42.027-58.411-64.268c-18.406-22.3-35.935-45.743-52.1-69.67-16.246-24.048-31.5-49.153-45.331-74.618-13.929-25.64-26.751-52.256-38.109-79.108-11.461-27.1-21.7-55.072-30.433-83.149-8.829-28.384-16.332-57.564-22.3-86.73A907.029,907.029,0,0,1,4.673,1167.53a918.489,918.489,0,0,1,0-185.06,907.315,907.315,0,0,1,13.713-89.859c5.969-29.166,13.472-58.346,22.3-86.73C49.421,777.8,59.66,749.829,71.12,722.734c11.35-26.835,24.172-53.452,38.109-79.11,13.832-25.462,29.084-50.567,45.331-74.616,16.165-23.929,33.693-47.369,52.1-69.671,18.365-22.251,38.017-43.874,58.411-64.268,9.669-9.669,19.739-19.29,29.931-28.6V698.892A712.981,712.981,0,0,0,188,1075.5c0,395.63,321.869,717.5,717.5,717.5a725.31,725.31,0,0,0,74.03-3.793A712.332,712.332,0,0,0,1121,1759.94c22.473-7.092,44.86-15.4,66.537-24.707,21.479-9.218,42.764-19.622,63.263-30.923,20.356-11.223,40.412-23.591,59.611-36.762,19.11-13.11,37.81-27.317,55.583-42.225,17.735-14.878,34.954-30.8,51.178-47.312a900.462,900.462,0,0,0,155.878,107.512c-9.151,10.009-18.61,19.9-28.115,29.407-20.4,20.4-42.023,40.052-64.268,58.41-22.3,18.406-45.743,35.934-69.67,52.1-24.053,16.251-49.158,31.5-74.617,45.331-25.645,13.932-52.261,26.754-79.11,38.11-27.1,11.46-55.074,21.7-83.147,30.432-28.4,8.834-57.585,16.337-86.73,22.3a907.168,907.168,0,0,1-89.858,13.715A919.7,919.7,0,0,1,905,1980ZM421,546.744V310.164c17.194-10.9,34.9-21.307,52.623-30.935,25.644-13.932,52.261-26.755,79.11-38.11,22.9-9.685,46.54-18.539,70.267-26.318V415.962A718.34,718.34,0,0,0,447.215,523.841c-8.881,7.391-17.7,15.1-26.213,22.9Zm810.2-110.468h0a713.5,713.5,0,0,0-155.58-57.9c-13.629-3.326-27.543-6.287-41.357-8.8-13.922-2.533-28.117-4.68-42.19-6.38-14.193-1.715-28.643-3.021-42.948-3.883-14.436-.87-29.115-1.311-43.63-1.311a725.583,725.583,0,0,0-75.32,3.923A716.355,716.355,0,0,0,757,373.454V182.048c18.376-3.022,37.038-5.5,55.47-7.375a918.633,918.633,0,0,1,185.062,0,907.8,907.8,0,0,1,89.858,13.714c29.151,5.965,58.331,13.468,86.73,22.3,28.077,8.732,56.052,18.971,83.147,30.432,26.849,11.356,53.466,24.178,79.11,38.11,3.146,1.709,6.3,3.449,9.385,5.171A901.911,901.911,0,0,0,1231.2,436.275Z" transform="translate(109 -52)" fill="#61b33b"></path><path id="Subtraction_6" data-name="Subtraction 6" d="M497,994a504.689,504.689,0,0,1-50.8-2.564,498.86,498.86,0,0,1-49.365-7.533c-16.021-3.279-32.046-7.4-47.63-12.247-15.428-4.8-30.791-10.422-45.661-16.712-14.741-6.235-29.358-13.277-43.446-20.929-13.98-7.595-27.767-15.971-40.978-24.9-13.145-8.881-26.017-18.507-38.259-28.611-12.222-10.087-24.1-20.879-35.294-32.077s-22-23.085-32.077-35.294c-10.113-12.253-19.739-25.125-28.612-38.26-8.923-13.208-17.3-27-24.9-40.978-7.654-14.091-14.694-28.708-20.927-43.445-6.293-14.879-11.916-30.242-16.713-45.663-4.847-15.58-8.967-31.6-12.248-47.63a498.514,498.514,0,0,1-7.53-49.348A504.6,504.6,0,0,1,0,497c0-7.628.177-15.366.525-23H194.863c-.572,7.6-.862,15.334-.862,23,0,167.075,135.925,303,303,303a300.745,300.745,0,0,0,174.268-55.255L799.034,891.724c-7.88,6.037-16.007,11.89-24.156,17.4-13.216,8.928-27,17.3-40.979,24.9-14.092,7.655-28.709,14.7-43.444,20.929-14.88,6.293-30.243,11.916-45.663,16.712-15.586,4.848-31.61,8.969-47.63,12.247a498.843,498.843,0,0,1-49.347,7.531A504.765,504.765,0,0,1,497,994ZM858.444,838.126,730.055,690.432A301.619,301.619,0,0,0,800,497c0-167.074-135.925-303-303-303a301.126,301.126,0,0,0-150,39.8V23.037c.838-.265,1.5-.472,2.206-.692,15.585-4.847,31.61-8.968,47.63-12.247a498.788,498.788,0,0,1,49.348-7.531,504.464,504.464,0,0,1,101.631,0A498.711,498.711,0,0,1,597.162,10.1c16.019,3.279,32.044,7.4,47.63,12.247,15.428,4.8,30.791,10.421,45.663,16.712C705.2,45.295,719.818,52.336,733.9,59.985c13.989,7.6,27.776,15.975,40.979,24.9,13.144,8.88,26.016,18.506,38.26,28.611,12.205,10.071,24.08,20.863,35.294,32.077s22,23.078,32.076,35.294c10.1,12.243,19.73,25.115,28.612,38.261,8.925,13.211,17.3,27,24.894,40.978,7.655,14.091,14.7,28.707,20.929,43.445,6.3,14.888,11.92,30.251,16.712,45.662,4.849,15.589,8.97,31.614,12.248,47.63a498.369,498.369,0,0,1,7.531,49.347,504.444,504.444,0,0,1,0,101.631,498.388,498.388,0,0,1-7.531,49.348c-3.279,16.017-7.4,32.042-12.248,47.63-4.8,15.418-10.418,30.781-16.712,45.663-6.233,14.737-13.274,29.353-20.929,43.445-7.6,13.986-15.972,27.773-24.894,40.978-8.884,13.15-18.511,26.022-28.612,38.26-7.014,8.5-14.438,16.908-22.063,24.987ZM11,394h-.313l.087-.414.062-.29.012-.058.152-.712V394Z" transform="translate(528 526)" fill="#61b33b"></path><g id="Mask_Group_1" data-name="Mask Group 1" transform="translate(-6718 -2653)" clip-path="url(#clip-path-2)"><rect id="Rectangle_1" data-name="Rectangle 1" width="203" height="780" transform="translate(7248 2793)" fill="#3b3c3d"></rect></g><rect id="Rectangle_6" data-name="Rectangle 6" width="203" height="635" transform="translate(530 293)" fill="#3b3c3d"></rect><path id="Intersection_1" data-name="Intersection 1" d="M577.789,991.434a499.016,499.016,0,0,1-49.348-7.531c-16.021-3.279-32.045-7.4-47.63-12.247-15.428-4.8-30.791-10.423-45.661-16.712-14.74-6.235-29.358-13.277-43.446-20.929-13.981-7.6-27.767-15.971-40.978-24.9-13.145-8.881-26.017-18.508-38.259-28.611-12.222-10.087-24.1-20.879-35.294-32.077s-22-23.085-32.077-35.294c-10.112-12.253-19.739-25.125-28.612-38.26-8.923-13.208-17.3-27-24.9-40.978-7.654-14.092-14.694-28.709-20.927-43.445-6.293-14.879-11.916-30.242-16.713-45.662-4.847-15.581-8.968-31.6-12.248-47.63a498.546,498.546,0,0,1-7.53-49.348A504.814,504.814,0,0,1,131.605,497c0-7.628.177-15.367.526-23H326.468c-.572,7.6-.862,15.334-.862,23,0,167.075,135.925,303,303,303a300.744,300.744,0,0,0,174.268-55.255L930.64,891.724c-7.88,6.037-16.007,11.89-24.157,17.4-13.216,8.927-27,17.3-40.979,24.9-14.092,7.654-28.708,14.7-43.444,20.929-14.88,6.293-30.243,11.915-45.663,16.712-15.585,4.847-31.61,8.969-47.63,12.247a499.028,499.028,0,0,1-49.347,7.531,504.454,504.454,0,0,1-101.631,0Z" transform="translate(396.395 526.001)" fill="#3b3c3d" stroke="#707070" stroke-width="1"></path><g id="Group_1" data-name="Group 1" transform="translate(0 86)"><path id="Creative_Buffer" data-name="Creative Buffer" d="M243.694,5.83c67.045,0,124.179-23.9,162.074-68.211L356.8-109.021c-29.733,32.648-66.462,48.389-109.021,48.389-84.535,0-145.75-59.466-145.75-143.418s61.215-143.418,145.75-143.418c42.559,0,79.288,15.741,109.021,47.806l48.972-46.057c-37.9-44.308-95.029-68.211-161.491-68.211-125.345,0-218.625,88.033-218.625,209.88S118.932,5.83,243.694,5.83ZM827.277,0,733.414-134.09c55.385-21.571,86.867-67.045,86.867-128.843,0-90.365-66.462-145.167-173.734-145.167h-167.9V0h75.79V-118.932h92.114a142.07,142.07,0,0,0,15.741-.583L745.657,0ZM743.908-262.933c0,51.3-34.4,81.62-100.859,81.62H554.433V-343.97h88.616C709.511-343.97,743.908-314.237,743.908-262.933Zm236.7,199.386V-176.066H1177.66v-62.381H980.606V-344.553h222.123V-408.1H904.816V0h306.075V-63.547ZM1600.918,0h79.288L1495.978-408.1h-74.624L1237.709,0h78.122l40.227-94.446h204.05ZM1381.71-153.912l76.373-178.4,76.956,178.4ZM1794.474,0h75.79V-343.97H2005.52V-408.1h-346.3v64.13h135.256Zm268.18,0h75.79V-408.1h-75.79Zm480.392-408.1L2406.041-93.28,2270.2-408.1H2188L2366.4,0h74.624l177.815-408.1ZM2737.768-63.547V-176.066h197.054v-62.381H2737.768V-344.553h222.123V-408.1H2661.978V0h306.075V-63.547Zm764.9-148.665c31.482-16.907,52.47-47.806,52.47-89.782,0-64.713-52.47-106.106-150.414-106.106H3213.5V0H3416.38c104.94,0,159.742-40.81,159.742-110.77C3576.122-163.823,3546.389-198.22,3502.664-212.212ZM3396.558-348.634c52.47,0,82.2,18.656,82.2,56.551,0,37.312-29.733,55.968-82.2,55.968H3289.286V-348.634Zm15.158,289.168h-122.43V-177.232h122.43c57.134,0,88.033,18.073,88.033,58.883S3468.85-59.466,3411.716-59.466Zm420.926,65.3c111.353,0,178.4-64.713,178.4-183.645V-408.1h-74.624v227.37c0,83.952-37.312,120.1-103.191,120.1s-103.774-36.146-103.774-120.1V-408.1h-75.79v230.285C3653.661-58.883,3720.706,5.83,3832.642,5.83Zm582.417-350.383V-408.1H4117.146V0h75.79V-156.244H4389.99v-64.13H4192.936V-344.553Zm371.371,0V-408.1H4488.518V0h75.79V-156.244h197.054v-64.13H4564.307V-344.553ZM4935.678-63.547V-176.066h197.054v-62.381H4935.678V-344.553H5157.8V-408.1H4859.889V0h306.075V-63.547ZM5599.132,0,5505.27-134.09c55.385-21.571,86.867-67.045,86.867-128.843,0-90.365-66.462-145.167-173.734-145.167H5250.5V0h75.79V-118.932H5418.4a142.06,142.06,0,0,0,15.741-.583L5517.512,0Zm-83.369-262.933c0,51.3-34.4,81.62-100.859,81.62h-88.616V-343.97H5414.9C5481.366-343.97,5515.763-314.237,5515.763-262.933Z" transform="translate(1843.103 825)" fill="#61b33b"></path><path id="Creativity_Inside" data-name="Creativity Inside" d="M266.314-113.692l42.911,10.838Q295.733-49.989,260.674-22.23T174.962,5.53q-52.422,0-85.269-21.345T39.7-77.638q-17.142-40.478-17.142-86.928,0-50.653,19.354-88.366t55.077-57.289Q132.715-329.8,175.626-329.8q48.662,0,81.841,24.773T303.7-235.348l-42.248,9.954q-11.281-35.391-32.736-51.538t-53.971-16.147q-37.381,0-62.487,17.917t-35.28,48.109A193.683,193.683,0,0,0,66.8-164.788q0,41.363,12.055,72.219T116.347-46.45a105.147,105.147,0,0,0,55.077,15.262q36.054,0,61.049-20.792T266.314-113.692ZM356.561,0V-234.905h35.833v35.612q13.714-24.995,25.326-32.958a44.209,44.209,0,0,1,25.548-7.963q20.128,0,40.92,12.829l-13.714,36.939q-14.6-8.626-29.2-8.626a37.917,37.917,0,0,0-23.446,7.852q-10.4,7.852-14.82,21.787a155.083,155.083,0,0,0-6.636,46.45V0Zm312.1-75.647L709.8-70.56Q700.071-34.506,673.749-14.6T606.507,5.309q-51.538,0-81.73-31.741t-30.193-89.03q0-59.279,30.524-92.016t79.187-32.736q47.114,0,76.975,32.073T711.13-117.9q0,3.539-.221,10.617H535.726q2.212,38.709,21.9,59.279t49.1,20.571q21.9,0,37.381-11.5T668.662-75.647ZM537.938-140.014H669.1q-2.654-29.64-15.041-44.459-19.022-23-49.326-23-27.428,0-46.118,18.359T537.938-140.014ZM913.078-28.976Q890.959-10.175,870.5-2.433a123.036,123.036,0,0,1-43.906,7.742q-38.708,0-59.5-18.912T746.3-61.934a64.277,64.277,0,0,1,7.852-31.52,65,65,0,0,1,20.571-22.893,96.728,96.728,0,0,1,28.644-13.05q11.723-3.1,35.391-5.972,48.22-5.751,71-13.714.221-8.184.221-10.4,0-24.331-11.281-34.285-15.262-13.493-45.344-13.493-28.091,0-41.473,9.843t-19.8,34.838l-38.93-5.309q5.309-24.995,17.474-40.367T805.8-231.919q23-8.295,53.307-8.295,30.082,0,48.883,7.078T935.64-215.33q8.848,10.728,12.387,27.1,1.991,10.175,1.991,36.718V-98.43q0,55.519,2.544,70.228A88.6,88.6,0,0,0,962.625,0H921.041Q914.848-12.387,913.078-28.976ZM909.76-117.9q-21.677,8.848-65.03,15.041Q820.178-99.315,810-94.891a34.619,34.619,0,0,0-15.7,12.94,33.995,33.995,0,0,0-5.53,18.912A33.908,33.908,0,0,0,800.823-36.5q12.055,10.617,35.28,10.617,23,0,40.92-10.064t26.322-27.538q6.415-13.493,6.415-39.814Zm188.9,82.283,5.751,35.169A147.683,147.683,0,0,1,1074.327,3.1q-21.677,0-33.621-6.857T1023.9-21.787q-4.866-11.17-4.866-47V-203.938h-29.2v-30.967h29.2v-58.173l39.593-23.889v82.062h40.036v30.967h-40.036v137.36q0,17.032,2.1,21.9a16.582,16.582,0,0,0,6.857,7.742q4.756,2.875,13.6,2.875A129.517,129.517,0,0,0,1098.658-35.612Zm39.151-242.868v-45.787h39.814v45.787Zm0,278.48V-234.905h39.814V0Zm165.672,0L1214.12-234.905h42.026l50.432,140.678q8.184,22.783,15.041,47.335,5.309-18.58,14.82-44.681l52.2-143.332h40.92L1340.641,0Zm161.47-278.48v-45.787h39.814v45.787Zm0,278.48V-234.905h39.814V0ZM1652.3-35.612l5.751,35.169A147.683,147.683,0,0,1,1627.969,3.1q-21.677,0-33.621-6.857t-16.811-18.027q-4.866-11.17-4.866-47V-203.938h-29.2v-30.967h29.2v-58.173l39.593-23.889v82.062H1652.3v30.967h-40.036v137.36q0,17.032,2.1,21.9a16.582,16.582,0,0,0,6.857,7.742q4.756,2.875,13.6,2.875A129.517,129.517,0,0,0,1652.3-35.612Zm37.16,126.079-4.424-37.381a88.725,88.725,0,0,0,22.783,3.539q13.271,0,21.234-4.424a36.169,36.169,0,0,0,13.05-12.387q3.76-5.972,12.166-29.64,1.106-3.318,3.539-9.732l-89.14-235.348h42.911l48.883,136.033q9.511,25.879,17.032,54.413a535.7,535.7,0,0,1,16.368-53.528l50.21-136.917h39.814L1794.526,3.981q-14.377,38.708-22.34,53.307-10.617,19.686-24.331,28.865t-32.736,9.179Q1703.616,95.333,1689.46,90.467ZM2055.974,0V-324.267h42.911V0Zm113.471,0V-234.905h35.833v33.4q25.879-38.708,74.763-38.708a98.077,98.077,0,0,1,39.04,7.631q17.806,7.631,26.654,20.018a76.838,76.838,0,0,1,12.387,29.418q2.212,11.06,2.212,38.708V0h-39.814V-142.89q0-24.331-4.645-36.386a38.273,38.273,0,0,0-16.479-19.244q-11.834-7.189-27.76-7.189-25.437,0-43.906,16.147t-18.469,61.27V0Zm236.011-70.118,39.372-6.193q3.318,23.667,18.469,36.275t42.358,12.608q27.428,0,40.7-11.17t13.271-26.211q0-13.493-11.723-21.234-8.184-5.309-40.7-13.493-43.8-11.06-60.717-19.133t-25.658-22.34a59.183,59.183,0,0,1-8.737-31.52,60.5,60.5,0,0,1,7.189-29.087,64.46,64.46,0,0,1,19.575-22.23q9.29-6.857,25.326-11.613a120.435,120.435,0,0,1,34.4-4.756q27.649,0,48.552,7.963t30.856,21.566q9.954,13.6,13.714,36.386l-38.93,5.309q-2.654-18.138-15.373-28.312t-35.944-10.175q-27.428,0-39.151,9.069t-11.723,21.234a21.978,21.978,0,0,0,4.866,13.935q4.866,6.415,15.262,10.617,5.972,2.212,35.169,10.175,42.248,11.281,58.948,18.469t26.211,20.9q9.511,13.714,9.511,34.063a66.845,66.845,0,0,1-11.613,37.492q-11.613,17.585-33.51,27.207t-49.547,9.622q-45.787,0-69.786-19.022T2405.457-70.118ZM2648.1-278.48v-45.787h39.814v45.787ZM2648.1,0V-234.905h39.814V0Zm252.822,0V-29.64q-22.34,34.948-65.694,34.948a92.118,92.118,0,0,1-51.648-15.483q-23.557-15.483-36.5-43.243t-12.94-63.814q0-35.169,11.723-63.814t35.169-43.906a94.027,94.027,0,0,1,52.422-15.262q21.234,0,37.824,8.958a79.081,79.081,0,0,1,26.985,23.336V-324.267h39.593V0ZM2775.067-117.231q0,45.123,19.022,67.463t44.9,22.34q26.1,0,44.349-21.345t18.248-65.141q0-48.22-18.58-70.781t-45.787-22.562q-26.543,0-44.349,21.677T2775.067-117.231Zm386.2,41.584,41.142,5.087q-9.732,36.054-36.054,55.961T3099.113,5.309q-51.538,0-81.73-31.741t-30.193-89.03q0-59.279,30.524-92.016t79.187-32.736q47.114,0,76.975,32.073t29.861,90.246q0,3.539-.221,10.617H3028.332q2.212,38.709,21.9,59.279t49.1,20.571q21.9,0,37.381-11.5T3161.268-75.647Zm-130.724-64.367H3161.71q-2.654-29.64-15.041-44.459-19.022-23-49.326-23-27.428,0-46.118,18.359T3030.543-140.014Z" transform="translate(2961.731 1433)" fill="#3b3c3d"></path></g><line id="Line_1" data-name="Line 1" x2="911" transform="translate(1878.5 1383.5)" fill="none" stroke="#61b33b" stroke-width="61"></line><line id="Line_2" data-name="Line 2" x2="911" transform="translate(6392 1383.5)" fill="none" stroke="#61b33b" stroke-width="61"></line></g></svg>