<svg width="44" height="43" viewBox="0 0 44 43" fill="none" xmlns="http://www.w3.org/2000/svg">
<path d="M31.1958 9.80367L30.9083 6.96094C30.8892 6.77539 30.7956 6.60485 30.648 6.48683C30.5004 6.36882 30.3109 6.31299 30.1213 6.33164C29.9316 6.35029 29.7573 6.44188 29.6366 6.58627C29.516 6.73066 29.4589 6.91601 29.478 7.10156L29.7719 9.945C29.7814 10.0369 29.8092 10.126 29.8539 10.2074C29.8985 10.2887 29.9592 10.3607 30.0322 10.4191C30.1053 10.4775 30.1894 10.5213 30.2798 10.5479C30.3702 10.5746 30.4651 10.5835 30.559 10.5743C30.6529 10.5651 30.744 10.5378 30.8272 10.4941C30.9103 10.4504 30.9839 10.3912 31.0436 10.3197C31.1034 10.2482 31.1481 10.1659 31.1753 10.0775C31.2025 9.98904 31.2117 9.89625 31.2023 9.80437L31.1958 9.80367Z" fill="#60C6B1"/>
<path d="M33.6791 11.5411C33.4894 11.5597 33.3151 11.6513 33.1944 11.7957C33.0738 11.9401 33.0167 12.1255 33.0358 12.311C33.0549 12.4966 33.1485 12.6671 33.2961 12.7851C33.4437 12.9031 33.6332 12.959 33.8228 12.9403L36.7302 12.6562C36.8241 12.647 36.9152 12.6198 36.9984 12.5761C37.0815 12.5324 37.1551 12.4731 37.2148 12.4016C37.2745 12.3301 37.3193 12.2478 37.3465 12.1594C37.3737 12.071 37.3829 11.9782 37.3734 11.8863C37.364 11.7945 37.3362 11.7053 37.2915 11.624C37.2468 11.5426 37.1862 11.4707 37.1132 11.4122C37.0401 11.3538 36.9559 11.31 36.8656 11.2834C36.7752 11.2568 36.6803 11.2478 36.5864 11.257L33.6791 11.5411Z" fill="#60C6B1"/>
<path d="M31.4833 13.0781C31.5677 12.9663 31.6164 12.8325 31.6231 12.6937C31.6299 12.5548 31.5944 12.4171 31.5212 12.298C31.4479 12.1789 31.3403 12.0836 31.2117 12.0244C31.0832 11.9651 30.9396 11.9444 30.7991 11.9649C30.6585 11.9854 30.5274 12.0462 30.4221 12.1397C30.3169 12.2331 30.2424 12.3549 30.2079 12.4898C30.1734 12.6247 30.1806 12.7665 30.2285 12.8974C30.2764 13.0282 30.3629 13.1423 30.477 13.2251C30.5529 13.2801 30.6392 13.32 30.7309 13.3425C30.8226 13.3649 30.9179 13.3694 31.0113 13.3557C31.1048 13.3421 31.1946 13.3105 31.2756 13.2629C31.3565 13.2153 31.4271 13.1525 31.4833 13.0781Z" fill="#60C6B1"/>
<path d="M0.454852 22.9852C0.816454 23.8395 1.27194 24.6529 1.81329 25.4109C2.00735 25.6992 2.18704 25.9734 2.35954 26.2547C1.67064 26.4986 1.07502 26.9437 0.653333 27.5298C0.23165 28.1159 0.00428756 28.8146 0.0020399 29.5312V38.6719C0.0020399 39.6043 0.380666 40.4985 1.05462 41.1578C1.72858 41.8171 2.64267 42.1875 3.59579 42.1875H39.5333C40.4864 42.1875 41.4005 41.8171 42.0745 41.1578C42.7484 40.4985 43.127 39.6043 43.127 38.6719V29.5312C43.1248 28.8146 42.8974 28.1159 42.4757 27.5298C42.0541 26.9437 41.4584 26.4986 40.7695 26.2547C40.942 25.9734 41.1217 25.6992 41.3158 25.4109C41.8571 24.6529 42.3126 23.8395 42.6742 22.9852C43.2395 21.577 43.2791 20.0189 42.7862 18.585C42.2932 17.1511 41.2992 15.9331 39.9789 15.1453C37.952 13.957 34.8542 13.7602 32.0152 16.5305C31.1101 15.599 29.9733 14.9133 28.7161 14.5406L28.3352 13.4297C28.062 12.626 27.5002 11.9465 26.7539 11.5172L22.772 9.21797L23.1027 8.6625C23.2929 8.33981 23.3446 7.95645 23.2462 7.59656C23.1478 7.23668 22.9075 6.92968 22.578 6.74297L10.812 0.0914063C10.7011 0.0341506 10.5781 0.00286118 10.4527 0H2.37391C2.21712 0.00336569 2.06567 0.0564132 1.94233 0.151173C1.81899 0.245933 1.73041 0.377288 1.6899 0.525505C1.64938 0.673722 1.65913 0.830797 1.71767 0.973132C1.77621 1.11547 1.88039 1.23538 2.01454 1.31484L19.8395 11.3836C20.0033 11.4755 20.184 11.5349 20.3712 11.5585C20.5584 11.5821 20.7486 11.5693 20.9308 11.521C21.113 11.4727 21.2837 11.3897 21.4331 11.2769C21.5826 11.164 21.7078 11.0235 21.8017 10.8633L22.0605 10.4414L26.0208 12.7266C26.4718 12.9831 26.8098 13.3939 26.9695 13.8797L27.1277 14.3227C26.047 14.3169 24.9854 14.6014 24.0586 15.1453C22.9758 15.7849 22.1086 16.7212 21.5645 17.8383C21.0204 16.7212 20.1533 15.7849 19.0705 15.1453C17.0436 13.957 13.9458 13.7602 11.1139 16.5305C8.27485 13.7602 5.17704 13.957 3.15016 15.1453C1.82992 15.9331 0.835893 17.1511 0.342913 18.585C-0.150066 20.0189 -0.110429 21.577 0.454852 22.9852ZM20.5583 10.1602L19.1639 9.37266L20.4577 7.17188L21.8592 7.95937L20.5583 10.1602ZM20.4145 28.4625C20.3533 28.8085 20.3221 29.159 20.3211 29.5102C20.3152 30.1872 20.2332 30.8616 20.0767 31.5211C19.3939 34.0734 17.6545 35.5992 15.4336 35.5992H15.3258C12.9683 35.543 11.7752 34.0664 11.1139 32.5969C10.4455 34.0664 9.25235 35.543 6.90204 35.5992H6.80141C4.5661 35.5992 2.82673 34.0734 2.14391 31.5211C1.9878 30.8615 1.90585 30.1872 1.89954 29.5102C1.89857 29.159 1.86732 28.8085 1.8061 28.4625C1.79891 28.4344 1.79173 28.4133 1.78454 28.3852C2.0696 27.9571 2.50376 27.6448 3.00641 27.5062C3.09183 27.716 3.15915 27.9324 3.20766 28.1531C3.2923 28.5818 3.33562 29.0173 3.33704 29.4539C3.34016 30.0289 3.40764 30.6019 3.53829 31.1625C4.0486 33.0891 5.23454 34.193 6.78704 34.193H6.87329C9.18048 34.1367 9.88485 32.1609 10.4167 30.143C10.4581 29.994 10.5484 29.8625 10.6738 29.7688C10.7991 29.675 10.9525 29.6242 11.1103 29.6242C11.2681 29.6242 11.4215 29.675 11.5469 29.7688C11.6722 29.8625 11.7625 29.994 11.8039 30.143C12.3358 32.1609 13.0402 34.1367 15.3545 34.193H15.4408C17.0077 34.193 18.1649 33.1172 18.6824 31.1625C18.8146 30.6045 18.8821 30.0337 18.8836 29.4609C18.8861 29.0221 18.9294 28.5843 19.013 28.1531C19.0702 27.9031 19.1496 27.6584 19.2502 27.4219H20.8314C20.6475 27.7499 20.5074 28.0996 20.4145 28.4625ZM41.3445 28.3852C41.3373 28.4133 41.3302 28.4344 41.323 28.4625C41.2621 28.8062 41.2308 29.1543 41.2295 29.5031C41.2237 30.1825 41.1417 30.8592 40.9852 31.5211C40.3023 34.0734 38.563 35.5992 36.342 35.5992H36.2342C33.8767 35.543 32.6836 34.0664 32.0152 32.5969C31.3539 34.0664 30.1608 35.543 27.8105 35.5992H27.7099C25.4745 35.5992 23.7352 34.0734 23.0524 31.5211C22.8958 30.8616 22.8139 30.1872 22.808 29.5102C22.807 29.159 22.7758 28.8085 22.7145 28.4625C22.6217 28.0996 22.4816 27.7499 22.2977 27.4219H23.8789C23.9795 27.6584 24.0588 27.9031 24.1161 28.1531C24.1997 28.5843 24.243 29.0221 24.2455 29.4609C24.247 30.0337 24.3145 30.6045 24.4467 31.1625C24.957 33.0891 26.143 34.193 27.6955 34.193H27.7817C30.0817 34.1367 30.7933 32.1609 31.3252 30.143C31.3665 29.994 31.4569 29.8625 31.5822 29.7688C31.7076 29.675 31.861 29.6242 32.0188 29.6242C32.1765 29.6242 32.3299 29.675 32.4553 29.7688C32.5806 29.8625 32.671 29.994 32.7123 30.143C33.2442 32.1609 33.9486 34.1367 36.263 34.193H36.3492C37.8945 34.193 39.0805 33.0891 39.5908 31.1625C39.721 30.6042 39.7885 30.0336 39.792 29.4609C39.7931 29.022 39.8364 28.5841 39.9214 28.1531C39.9699 27.9324 40.0372 27.716 40.1227 27.5062C40.6253 27.6448 41.0595 27.9571 41.3445 28.3852ZM24.7917 16.3477C26.9264 15.1102 29.3917 15.7148 31.4186 17.9578C31.6384 18.567 32.0577 19.0882 32.6114 19.4404C33.165 19.7926 33.8221 19.9561 34.4805 19.9055C34.6711 19.9055 34.8539 19.8314 34.9887 19.6995C35.1235 19.5677 35.1992 19.3888 35.1992 19.2023C35.1992 19.0159 35.1235 18.837 34.9887 18.7052C34.8539 18.5733 34.6711 18.4992 34.4805 18.4992C34.1594 18.5484 33.8307 18.4949 33.5432 18.3467C33.2558 18.1985 33.0248 17.9634 32.8848 17.6766C34.8542 15.6656 37.2045 15.1594 39.2458 16.3477C40.1964 16.9206 40.9303 17.781 41.3363 18.7985C41.7422 19.8161 41.7981 20.9353 41.4955 21.9867C40.978 22.1272 40.4788 22.3253 40.0077 22.5773C39.2575 22.9875 38.4125 23.2028 37.5531 23.2028C36.6938 23.2028 35.8488 22.9875 35.0986 22.5773C34.1435 22.0653 33.0719 21.7969 31.9828 21.7969C30.8937 21.7969 29.8221 22.0653 28.867 22.5773C28.1169 22.9875 27.2719 23.2028 26.4125 23.2028C25.5532 23.2028 24.7081 22.9875 23.958 22.5773C23.508 22.3388 23.0334 22.1479 22.542 22.0078C22.2363 20.9534 22.2905 19.8302 22.6966 18.8087C23.1026 17.7871 23.8382 16.9231 24.7917 16.3477ZM22.7217 25.4109C22.8583 25.6148 22.9877 25.8117 23.117 26.0156H20.012C20.1414 25.8117 20.2708 25.6148 20.4074 25.4109C20.8409 24.7852 21.2277 24.1296 21.5645 23.4492C21.9014 24.1296 22.2882 24.7852 22.7217 25.4109ZM3.88329 16.3477C6.24079 15.0398 8.54798 15.8273 10.5102 17.9648C10.7318 18.5724 11.1518 19.0916 11.7052 19.4423C12.2586 19.7931 12.9147 19.9558 13.572 19.9055C13.7627 19.9055 13.9455 19.8314 14.0803 19.6995C14.2151 19.5677 14.2908 19.3888 14.2908 19.2023C14.2908 19.0159 14.2151 18.837 14.0803 18.7052C13.9455 18.5733 13.7627 18.4992 13.572 18.4992C13.251 18.5484 12.9223 18.4949 12.6348 18.3467C12.3473 18.1985 12.1164 17.9634 11.9764 17.6766C13.9458 15.6656 16.2961 15.1594 18.3374 16.3477C19.2901 16.922 20.0253 17.7849 20.4314 18.8051C20.8374 19.8254 20.892 20.9474 20.587 22.0008C20.0938 22.1449 19.6169 22.3381 19.1639 22.5773C18.4244 23.0098 17.5742 23.2269 16.713 23.2031C15.8494 23.2277 14.9966 23.0106 14.2549 22.5773C13.3099 22.0438 12.2335 21.7739 11.1427 21.7969C10.0496 21.7741 8.97096 22.044 8.02329 22.5773C7.2838 23.0098 6.43355 23.2269 5.57235 23.2031C4.70878 23.2277 3.85598 23.0106 3.11423 22.5773C2.64465 22.329 2.14798 22.1333 1.6336 21.9937C1.33021 20.9413 1.38568 19.8209 1.79163 18.802C2.19757 17.7832 2.93187 16.9216 3.88329 16.3477Z" fill="#60C6B1"/>
</svg>
