<svg width="47" height="47" viewBox="0 0 47 47" fill="none" xmlns="http://www.w3.org/2000/svg">
<path d="M38.0547 39.9229L39.143 41.0129L41.0163 39.1396L39.9263 38.0513C39.35 38.7209 38.7244 39.3466 38.0547 39.9229Z" fill="#60C6B1"/>
<path d="M40.3205 42.1921L44.6122 46.4888C44.7264 46.6006 44.8798 46.6633 45.0397 46.6633C45.1995 46.6633 45.353 46.6006 45.4672 46.4888L46.4922 45.4646C46.6043 45.3492 46.6666 45.1944 46.6657 45.0336C46.6647 44.8727 46.6006 44.7186 46.4872 44.6046L42.1955 40.3179L40.3205 42.1921Z" fill="#60C6B1"/>
<path d="M0 22.4045C0.00430986 23.8977 0.505023 25.3471 1.42333 26.5245L7.38833 34.1078C8.53546 35.5784 9.16105 37.3886 9.16667 39.2537V45.8295C9.16667 46.0505 9.25447 46.2625 9.41074 46.4188C9.56703 46.575 9.77899 46.6628 10 46.6628H26.6667C26.8877 46.6628 27.0996 46.575 27.2559 46.4188C27.4122 46.2625 27.5 46.0505 27.5 45.8295V44.1203C27.2217 44.1337 26.9483 44.1628 26.6667 44.1628C24.1848 44.1738 21.7291 43.6567 19.4624 42.6459C17.1957 41.6351 15.1699 40.1537 13.5196 38.3001C11.8692 36.4465 10.632 34.2631 9.88999 31.8947C9.14803 29.5264 8.91831 27.0273 9.21607 24.5634C9.51384 22.0995 10.3323 19.727 11.6171 17.6036C12.9019 15.4802 14.6237 13.6544 16.6681 12.2473C18.7125 10.8402 21.0329 9.8841 23.4751 9.44239C25.9173 9.00068 28.4256 9.0835 30.8333 9.68533V5.97033C30.8463 5.33164 30.6235 4.71056 30.2075 4.22572C29.7916 3.74089 29.2116 3.42628 28.5783 3.342C28.2324 3.31442 27.8845 3.35792 27.5561 3.46982C27.2276 3.58172 26.9255 3.75965 26.6684 3.99266C26.4112 4.22567 26.2045 4.50884 26.0609 4.82473C25.9173 5.14062 25.8399 5.48256 25.8333 5.8295C25.8333 6.05051 25.7455 6.26248 25.5893 6.41876C25.433 6.57504 25.221 6.66283 25 6.66283C24.779 6.66283 24.567 6.57504 24.4107 6.41876C24.2545 6.26248 24.1667 6.05051 24.1667 5.8295V4.30367C24.1796 3.66497 23.9568 3.04389 23.5409 2.55906C23.1249 2.07422 22.5449 1.75961 21.9117 1.67533C21.5657 1.64763 21.2178 1.69105 20.8893 1.8029C20.5608 1.91475 20.2586 2.09267 20.0015 2.32571C19.7443 2.55874 19.5376 2.84196 19.394 3.15791C19.2504 3.47386 19.1731 3.81585 19.1667 4.16283C19.1667 4.38385 19.0789 4.59581 18.9226 4.75209C18.7663 4.90837 18.5543 4.99617 18.3333 4.99617C18.1123 4.99617 17.9004 4.90837 17.7441 4.75209C17.5878 4.59581 17.5 4.38385 17.5 4.16283V2.637C17.513 1.99831 17.2902 1.37722 16.8742 0.892389C16.4582 0.407553 15.8782 0.0929473 15.245 0.00866715C14.8989 -0.0200242 14.5505 0.0226963 14.2216 0.13418C13.8926 0.245664 13.5901 0.423534 13.3327 0.656761C13.0753 0.889988 12.8686 1.1736 12.7254 1.49001C12.5821 1.80642 12.5054 2.14889 12.5 2.49617V3.3295C12.5 3.55051 12.4122 3.76248 12.2559 3.91876C12.0996 4.07504 11.8877 4.16283 11.6667 4.16283C11.4457 4.16283 11.2337 4.07504 11.0774 3.91876C10.9211 3.76248 10.8333 3.55051 10.8333 3.3295C10.8291 2.98195 10.7533 2.639 10.6105 2.32211C10.4677 2.00522 10.261 1.72119 10.0035 1.4878C9.74591 1.25441 9.44296 1.07666 9.11358 0.965687C8.78419 0.854711 8.43545 0.812888 8.08917 0.842834C7.45592 0.926911 6.87584 1.24132 6.45972 1.72599C6.0436 2.21067 5.82061 2.83166 5.83333 3.47033V19.9962C5.83333 20.2172 5.74554 20.4291 5.58926 20.5854C5.43298 20.7417 5.22101 20.8295 5 20.8295C4.77899 20.8295 4.56703 20.7417 4.41074 20.5854C4.25446 20.4291 4.16667 20.2172 4.16667 19.9962V8.40367C3.00274 8.60142 1.94619 9.20425 1.18373 10.1056C0.421271 11.007 0.00199519 12.1489 0 13.3295V22.4045Z" fill="#60C6B1"/>
<path d="M39.166 26.6628C39.165 24.3887 38.5437 22.158 37.369 20.2109C36.1943 18.2638 34.5106 16.674 32.4994 15.6128V24.4128C32.4998 25.4641 32.2786 26.5036 31.8502 27.4636L29.666 32.3753C29.3345 33.1216 29.1641 33.9295 29.166 34.7461V38.9128C31.9876 38.3328 34.523 36.7977 36.3446 34.5662C38.1662 32.3347 39.1627 29.5434 39.166 26.6628Z" fill="#60C6B1"/>
<path d="M10.833 26.6629C10.833 29.7945 11.7616 32.8557 13.5014 35.4595C15.2412 38.0632 17.714 40.0926 20.6072 41.291C23.5003 42.4894 26.6839 42.803 29.7553 42.192C32.8266 41.5811 35.6479 40.0731 37.8622 37.8588C40.0765 35.6444 41.5845 32.8232 42.1954 29.7519C42.8064 26.6805 42.4928 23.4969 41.2944 20.6038C40.096 17.7106 38.0667 15.2378 35.4629 13.498C32.8591 11.7582 29.7979 10.8296 26.6663 10.8296C22.4685 10.8342 18.4439 12.5039 15.4756 15.4722C12.5073 18.4405 10.8376 22.4651 10.833 26.6629ZM28.333 15.8296C28.554 15.8296 28.766 15.9174 28.9223 16.0737C29.0785 16.2299 29.1663 16.4419 29.1663 16.6629V17.4963C29.1663 17.7173 29.0785 17.9292 28.9223 18.0855C28.766 18.2418 28.554 18.3296 28.333 18.3296C28.112 18.3296 27.9 18.2418 27.7438 18.0855C27.5875 17.9292 27.4997 17.7173 27.4997 17.4963V16.6629C27.4997 16.4419 27.5875 16.2299 27.7438 16.0737C27.9 15.9174 28.112 15.8296 28.333 15.8296ZM28.333 22.4963C28.112 22.4963 27.9 22.4085 27.7438 22.2522C27.5875 22.0959 27.4997 21.8839 27.4997 21.6629V20.8296C27.4997 20.6086 27.5875 20.3966 27.7438 20.2403C27.9 20.0841 28.112 19.9963 28.333 19.9963C28.554 19.9963 28.766 20.0841 28.9223 20.2403C29.0785 20.3966 29.1663 20.6086 29.1663 20.8296V21.6629C29.1663 21.8839 29.0785 22.0959 28.9223 22.2522C28.766 22.4085 28.554 22.4963 28.333 22.4963ZM29.1663 24.9963V25.8296C29.1663 26.0506 29.0785 26.2626 28.9223 26.4188C28.766 26.5751 28.554 26.6629 28.333 26.6629C28.112 26.6629 27.9 26.5751 27.7438 26.4188C27.5875 26.2626 27.4997 26.0506 27.4997 25.8296V24.9963C27.4997 24.7752 27.5875 24.5633 27.7438 24.407C27.9 24.2507 28.112 24.1629 28.333 24.1629C28.554 24.1629 28.766 24.2507 28.9223 24.407C29.0785 24.5633 29.1663 24.7752 29.1663 24.9963ZM27.4997 13.3296C27.4997 13.5506 27.4119 13.7626 27.2556 13.9188C27.0993 14.0751 26.8874 14.1629 26.6663 14.1629C23.3511 14.1629 20.1717 15.4799 17.8275 17.8241C15.4833 20.1683 14.1663 23.3477 14.1663 26.6629C14.1663 29.9781 15.4833 33.1576 17.8275 35.5018C20.1717 37.846 23.3511 39.1629 26.6663 39.1629C26.948 39.1629 27.223 39.1388 27.4997 39.1204V34.7463C27.4992 33.695 27.7204 32.6554 28.1488 31.6954L30.333 26.7838C30.6645 26.0374 30.8349 25.2296 30.833 24.4129V14.8771C30.493 14.756 30.1458 14.6496 29.7913 14.5579C29.5816 14.4989 29.4034 14.36 29.2948 14.1711C29.1862 13.9823 29.1559 13.7584 29.2104 13.5474C29.2649 13.3365 29.3998 13.1553 29.5863 13.0426C29.7727 12.9299 29.9959 12.8947 30.208 12.9446C33.6978 13.8439 36.7138 16.0389 38.6426 19.083C40.5714 22.1272 41.268 25.7918 40.5907 29.3313C39.9134 32.8709 37.9131 36.0194 34.9968 38.1365C32.0804 40.2535 28.467 41.18 24.8918 40.7274C21.3166 40.2748 18.0481 38.4772 15.7512 35.7002C13.4544 32.9232 12.3018 29.3756 12.5278 25.7789C12.7539 22.1822 14.3417 18.8068 16.9682 16.3393C19.5947 13.8718 23.0626 12.4976 26.6663 12.4963C26.8874 12.4963 27.0993 12.5841 27.2556 12.7403C27.4119 12.8966 27.4997 13.1086 27.4997 13.3296ZM24.9997 31.6629C24.7787 31.6629 24.5667 31.5751 24.4104 31.4188C24.2541 31.2626 24.1663 31.0506 24.1663 30.8296V29.9963C24.1663 29.7752 24.2541 29.5633 24.4104 29.407C24.5667 29.2507 24.7787 29.1629 24.9997 29.1629C25.2207 29.1629 25.4327 29.2507 25.5889 29.407C25.7452 29.5633 25.833 29.7752 25.833 29.9963V30.8296C25.833 31.0506 25.7452 31.2626 25.5889 31.4188C25.4327 31.5751 25.2207 31.6629 24.9997 31.6629ZM25.833 34.1629V34.9963C25.833 35.2173 25.7452 35.4292 25.5889 35.5855C25.4327 35.7418 25.2207 35.8296 24.9997 35.8296C24.7787 35.8296 24.5667 35.7418 24.4104 35.5855C24.2541 35.4292 24.1663 35.2173 24.1663 34.9963V34.1629C24.1663 33.9419 24.2541 33.7299 24.4104 33.5737C24.5667 33.4174 24.7787 33.3296 24.9997 33.3296C25.2207 33.3296 25.4327 33.4174 25.5889 33.5737C25.7452 33.7299 25.833 33.9419 25.833 34.1629ZM24.9997 27.4963C24.7787 27.4963 24.5667 27.4085 24.4104 27.2522C24.2541 27.0959 24.1663 26.8839 24.1663 26.6629V25.8296C24.1663 25.6086 24.2541 25.3966 24.4104 25.2403C24.5667 25.0841 24.7787 24.9963 24.9997 24.9963C25.2207 24.9963 25.4327 25.0841 25.5889 25.2403C25.7452 25.3966 25.833 25.6086 25.833 25.8296V26.6629C25.833 26.8839 25.7452 27.0959 25.5889 27.2522C25.4327 27.4085 25.2207 27.4963 24.9997 27.4963ZM24.9997 23.3296C24.7787 23.3296 24.5667 23.2418 24.4104 23.0855C24.2541 22.9292 24.1663 22.7173 24.1663 22.4963V21.6629C24.1663 21.4419 24.2541 21.2299 24.4104 21.0737C24.5667 20.9174 24.7787 20.8296 24.9997 20.8296C25.2207 20.8296 25.4327 20.9174 25.5889 21.0737C25.7452 21.2299 25.833 21.4419 25.833 21.6629V22.4963C25.833 22.7173 25.7452 22.9292 25.5889 23.0855C25.4327 23.2418 25.2207 23.3296 24.9997 23.3296ZM24.9997 19.1629C24.7787 19.1629 24.5667 19.0751 24.4104 18.9188C24.2541 18.7626 24.1663 18.5506 24.1663 18.3296V17.4963C24.1663 17.2752 24.2541 17.0633 24.4104 16.907C24.5667 16.7507 24.7787 16.6629 24.9997 16.6629C25.2207 16.6629 25.4327 16.7507 25.5889 16.907C25.7452 17.0633 25.833 17.2752 25.833 17.4963V18.3296C25.833 18.5506 25.7452 18.7626 25.5889 18.9188C25.4327 19.0751 25.2207 19.1629 24.9997 19.1629ZM21.6663 29.1629C21.4453 29.1629 21.2334 29.0751 21.0771 28.9188C20.9208 28.7626 20.833 28.5506 20.833 28.3296V27.4963C20.833 27.2752 20.9208 27.0633 21.0771 26.907C21.2334 26.7507 21.4453 26.6629 21.6663 26.6629C21.8874 26.6629 22.0993 26.7507 22.2556 26.907C22.4119 27.0633 22.4997 27.2752 22.4997 27.4963V28.3296C22.4997 28.5506 22.4119 28.7626 22.2556 28.9188C22.0993 29.0751 21.8874 29.1629 21.6663 29.1629ZM22.4997 31.6629V32.4963C22.4997 32.7173 22.4119 32.9292 22.2556 33.0855C22.0993 33.2418 21.8874 33.3296 21.6663 33.3296C21.4453 33.3296 21.2334 33.2418 21.0771 33.0855C20.9208 32.9292 20.833 32.7173 20.833 32.4963V31.6629C20.833 31.4419 20.9208 31.2299 21.0771 31.0737C21.2334 30.9174 21.4453 30.8296 21.6663 30.8296C21.8874 30.8296 22.0993 30.9174 22.2556 31.0737C22.4119 31.2299 22.4997 31.4419 22.4997 31.6629ZM21.6663 24.9963C21.4453 24.9963 21.2334 24.9085 21.0771 24.7522C20.9208 24.5959 20.833 24.3839 20.833 24.1629V23.3296C20.833 23.1086 20.9208 22.8966 21.0771 22.7403C21.2334 22.5841 21.4453 22.4963 21.6663 22.4963C21.8874 22.4963 22.0993 22.5841 22.2556 22.7403C22.4119 22.8966 22.4997 23.1086 22.4997 23.3296V24.1629C22.4997 24.3839 22.4119 24.5959 22.2556 24.7522C22.0993 24.9085 21.8874 24.9963 21.6663 24.9963ZM21.6663 20.8296C21.4453 20.8296 21.2334 20.7418 21.0771 20.5855C20.9208 20.4292 20.833 20.2173 20.833 19.9963V19.1629C20.833 18.9419 20.9208 18.7299 21.0771 18.5737C21.2334 18.4174 21.4453 18.3296 21.6663 18.3296C21.8874 18.3296 22.0993 18.4174 22.2556 18.5737C22.4119 18.7299 22.4997 18.9419 22.4997 19.1629V19.9963C22.4997 20.2173 22.4119 20.4292 22.2556 20.5855C22.0993 20.7418 21.8874 20.8296 21.6663 20.8296ZM18.333 28.3296C18.112 28.3296 17.9 28.2418 17.7438 28.0855C17.5875 27.9292 17.4997 27.7173 17.4997 27.4963V26.6629C17.4997 26.4419 17.5875 26.2299 17.7438 26.0737C17.9 25.9174 18.112 25.8296 18.333 25.8296C18.554 25.8296 18.766 25.9174 18.9223 26.0737C19.0785 26.2299 19.1663 26.4419 19.1663 26.6629V27.4963C19.1663 27.7173 19.0785 27.9292 18.9223 28.0855C18.766 28.2418 18.554 28.3296 18.333 28.3296ZM19.1663 30.8296V31.6629C19.1663 31.8839 19.0785 32.0959 18.9223 32.2522C18.766 32.4085 18.554 32.4963 18.333 32.4963C18.112 32.4963 17.9 32.4085 17.7438 32.2522C17.5875 32.0959 17.4997 31.8839 17.4997 31.6629V30.8296C17.4997 30.6086 17.5875 30.3966 17.7438 30.2403C17.9 30.0841 18.112 29.9963 18.333 29.9963C18.554 29.9963 18.766 30.0841 18.9223 30.2403C19.0785 30.3966 19.1663 30.6086 19.1663 30.8296ZM18.333 24.1629C18.112 24.1629 17.9 24.0751 17.7438 23.9188C17.5875 23.7626 17.4997 23.5506 17.4997 23.3296V22.4963C17.4997 22.2752 17.5875 22.0633 17.7438 21.907C17.9 21.7507 18.112 21.6629 18.333 21.6629C18.554 21.6629 18.766 21.7507 18.9223 21.907C19.0785 22.0633 19.1663 22.2752 19.1663 22.4963V23.3296C19.1663 23.5506 19.0785 23.7626 18.9223 23.9188C18.766 24.0751 18.554 24.1629 18.333 24.1629Z" fill="#60C6B1"/>
</svg>
