<svg width="93" height="90" viewBox="0 0 93 90" fill="none" xmlns="http://www.w3.org/2000/svg">
<path d="M35.472 73.4539C35.0901 83.7971 28.4198 88.6961 25.133 89.8529C42.8207 89.8529 48.0913 77.6582 48.5154 71.5615V58.6312H64.7399C70.8478 58.6312 72.481 53.5857 72.534 51.063V36.2403H48.5154V27.5678C48.5154 23.2785 52.6512 21.8911 54.7189 21.7332H71.739C80.7735 20.9766 84.7294 14.4797 85.577 11.3262C82.9047 13.723 79.5857 14.1119 78.2609 14.0072H49.9472C39.2581 14.0072 35.8434 21.9963 35.4724 25.9911L35.472 73.4539Z" fill="#90C7E5"/>
<path d="M24.9729 76.4493C25.3548 82.2519 21.5265 87.8028 19.5649 89.8526C28.0906 86.5727 30.8581 77.2379 31.1765 72.9801V27.0945C32.5761 12.7138 43.9546 9.64429 49.4687 9.90685H75.8735C83.6358 9.90685 87.9091 5.07132 89.0756 2.65332H52.0135C30.8898 2.90555 25.1847 18.2116 24.9729 25.8329V36.2399H8.90756C2.54481 36.6185 0.317924 41.5489 0 43.9665V58.6318H24.9729V76.4493Z" fill="#60C6B1"/>
<path d="M17.0305 40.0234C17.0305 39.3212 16.4563 38.7519 15.7479 38.7519C15.0396 38.7519 14.4653 39.3212 14.4653 40.0234C14.4653 40.7256 15.0396 41.2949 15.7479 41.2949C16.4563 41.2949 17.0305 40.7256 17.0305 40.0234ZM18.4519 40.0234C18.4519 41.5038 17.2413 42.704 15.7479 42.704C14.2545 42.704 13.0439 41.5038 13.0439 40.0234C13.0439 38.543 14.2545 37.3428 15.7479 37.3428C17.2413 37.3429 18.4519 38.543 18.4519 40.0234Z" fill="white"/>
<path d="M8.75812 47.2782C8.75812 46.576 8.18386 46.0068 7.47551 46.0067C6.76716 46.0067 6.1929 46.576 6.1929 47.2782C6.19291 47.9804 6.76716 48.5497 7.47551 48.5497C8.18386 48.5497 8.75811 47.9804 8.75812 47.2782ZM10.1795 47.2782C10.1795 48.7587 8.96889 49.9588 7.47551 49.9588C5.98213 49.9588 4.77149 48.7587 4.77148 47.2782C4.77148 45.7978 5.98213 44.5977 7.47551 44.5977C8.96889 44.5977 10.1795 45.7978 10.1795 47.2782Z" fill="white"/>
<path d="M17.3469 54.5316C17.3469 53.8291 16.7725 53.2597 16.0639 53.2597C15.3552 53.2597 14.7808 53.8291 14.7808 54.5316C14.7808 55.2341 15.3552 55.8036 16.0639 55.8036C16.7725 55.8036 17.3469 55.2341 17.3469 54.5316ZM18.7684 54.5316C18.7684 56.0123 17.5575 57.2127 16.0639 57.2127C14.5702 57.2127 13.3594 56.0123 13.3594 54.5316C13.3594 53.0509 14.5702 51.8506 16.0639 51.8506C17.5575 51.8506 18.7684 53.0509 18.7684 54.5316Z" fill="white"/>
<path d="M54.887 54.5316C54.887 53.8291 54.3125 53.2597 53.6039 53.2597C52.8953 53.2597 52.3208 53.8291 52.3208 54.5316C52.3208 55.2341 52.8953 55.8036 53.6039 55.8036C54.3125 55.8036 54.887 55.2341 54.887 54.5316ZM56.3084 54.5316C56.3084 56.0123 55.0975 57.2127 53.6039 57.2127C52.1103 57.2127 50.8994 56.0123 50.8994 54.5316C50.8994 53.0509 52.1103 51.8506 53.6039 51.8506C55.0976 51.8506 56.3084 53.0509 56.3084 54.5316Z" fill="white"/>
<path d="M66.3401 50.1156C66.3401 49.4131 65.7656 48.8437 65.057 48.8437C64.3484 48.8437 63.774 49.4131 63.774 50.1156C63.774 50.8181 64.3484 51.3875 65.057 51.3875C65.7656 51.3875 66.3401 50.8181 66.3401 50.1156ZM67.7615 50.1156C67.7615 51.5963 66.5507 52.7966 65.057 52.7966C63.5634 52.7966 62.3525 51.5963 62.3525 50.1156C62.3525 48.6349 63.5634 47.4346 65.057 47.4346C66.5507 47.4346 67.7615 48.6349 67.7615 50.1156Z" fill="white"/>
<path d="M58.387 46.6464C58.387 45.9442 57.8128 45.3749 57.1044 45.3749C56.3961 45.3749 55.8218 45.9442 55.8218 46.6464C55.8218 47.3486 56.3961 47.9179 57.1044 47.9179C57.8128 47.9179 58.387 47.3486 58.387 46.6464ZM59.8084 46.6464C59.8084 48.1268 58.5978 49.327 57.1044 49.327C55.611 49.327 54.4004 48.1268 54.4004 46.6464C54.4004 45.166 55.611 43.9658 57.1044 43.9658C58.5978 43.9658 59.8084 45.166 59.8084 46.6464Z" fill="white"/>
<path d="M61.2485 40.0234C61.2485 39.3212 60.6743 38.7519 59.9659 38.7519C59.2576 38.7519 58.6833 39.3212 58.6833 40.0234C58.6833 40.7256 59.2576 41.2949 59.9659 41.2949C60.6743 41.2949 61.2485 40.7256 61.2485 40.0234ZM62.67 40.0234C62.6699 41.5038 61.4593 42.704 59.9659 42.704C58.4725 42.704 57.2619 41.5038 57.2619 40.0234C57.2619 38.543 58.4725 37.3428 59.9659 37.3428C61.4593 37.3428 62.67 38.543 62.67 40.0234Z" fill="white"/>
<path d="M45.0913 29.2405C45.0913 28.4529 44.4472 27.8144 43.6528 27.8144C42.8583 27.8144 42.2142 28.4529 42.2142 29.2405C42.2142 30.028 42.8583 30.6665 43.6528 30.6665C44.4472 30.6665 45.0913 30.028 45.0913 29.2405ZM46.0389 29.2405C46.0389 30.5468 44.9705 31.6059 43.6528 31.6059C42.335 31.6059 41.2666 30.5468 41.2666 29.2405C41.2666 27.9341 42.335 26.875 43.6528 26.875C44.9705 26.875 46.0389 27.9341 46.0389 29.2405Z" fill="white"/>
<path d="M46.1353 68.7224C46.1353 67.9351 45.4914 67.2969 44.6972 67.2968C43.903 67.2968 43.2591 67.9351 43.2591 68.7224C43.2592 69.5097 43.9031 70.148 44.6972 70.148C45.4913 70.148 46.1352 69.5097 46.1353 68.7224ZM47.0829 68.7224C47.0829 70.0285 46.0147 71.0874 44.6972 71.0874C43.3797 71.0874 42.3116 70.0285 42.3115 68.7224C42.3115 67.4163 43.3797 66.3574 44.6972 66.3574C46.0147 66.3575 47.0829 67.4163 47.0829 68.7224Z" fill="white"/>
<path d="M40.7261 77.239C40.7261 76.4517 40.0822 75.8135 39.288 75.8134C38.4938 75.8134 37.85 76.4517 37.85 77.239C37.85 78.0263 38.4939 78.6646 39.288 78.6646C40.0822 78.6646 40.7261 78.0263 40.7261 77.239ZM41.6737 77.239C41.6737 78.5451 40.6055 79.604 39.288 79.604C37.9705 79.604 36.9024 78.5451 36.9023 77.239C36.9023 75.9329 37.9705 74.874 39.288 74.874C40.6055 74.8741 41.6737 75.9329 41.6737 77.239Z" fill="white"/>
<path d="M39.7905 65.5441L39.9988 65.7505V74.8724H38.5773V66.3335C37.181 64.9488 35.4454 63.2287 34.085 61.8801L35.09 60.8838C36.5189 62.3003 38.3615 64.127 39.7905 65.5441Z" fill="white"/>
<path d="M62.3528 49.4111V50.8202H42.3854V52.372L44.555 53.5109H51.0592V54.92H44.202L44.046 54.8383L42.3854 53.9664V56.93L45.4077 60.0834V66.5147H43.9863V60.6458L41.1592 57.6969L40.964 57.4928V50.8202H35.2986V49.4111H62.3528Z" fill="white"/>
<path d="M38.7735 52.5644L39.5222 54.0497V59.6103L42.5075 62.7175L41.4785 63.6894L38.1007 60.1741V54.3817L37.8948 53.9735H35.2986V52.5644H38.7735Z" fill="white"/>
<path d="M54.4002 45.9424V47.3515H35.0625V45.9424H54.4002Z" fill="white"/>
<path d="M44.2945 31.0351V42.3142H52.5148L55.378 39.4763H57.4222V40.8854H55.967L53.3116 43.5174L53.1034 43.7233H35.2986V42.3142H42.873V31.0351H44.2945Z" fill="white"/>
<path d="M39.8405 31.5098V39.1763L38.8804 40.3184L38.6671 40.5716H35.2986V39.1625H38.0013L38.4191 38.6658V31.5098H39.8405Z" fill="white"/>
<path d="M40.4087 29.302C40.4087 28.5144 39.7646 27.876 38.9701 27.8759C38.1757 27.8759 37.5316 28.5144 37.5316 29.302C37.5316 30.0895 38.1757 30.728 38.9701 30.728C39.7645 30.728 40.4086 30.0895 40.4087 29.302ZM41.3563 29.302C41.3563 30.6083 40.2879 31.6674 38.9701 31.6674C37.6524 31.6674 36.584 30.6083 36.584 29.302C36.584 27.9956 37.6523 26.9365 38.9701 26.9365C40.2879 26.9366 41.3563 27.9956 41.3563 29.302Z" fill="white"/>
<path d="M20.6654 39.3203L23.5286 42.316H31.3353V43.7251H22.9174L20.0547 40.7294H18.2922V39.3203H20.6654Z" fill="white"/>
<path d="M31.3358 46.1006V47.5097H25.8954L21.9666 51.2553L21.7602 51.4516H17.998L17.7898 51.2457L14.4986 47.9826H9.70312V46.5735H15.0871L18.5865 50.0426H21.1878L25.323 46.1006H31.3358Z" fill="white"/>
<path d="M31.3354 49.5693V50.9784H27.3349L23.041 55.236H18.452V53.8269H22.4516L26.7464 49.5693H31.3354Z" fill="white"/>
<path d="M86.5076 9.11353L81.2422 0L92.207 0.0530759L86.5076 9.11353Z" fill="#60C6B1"/>
<path d="M82.9257 19.6977L76.5303 11.9477L86.0111 11.1064L82.9257 19.6977Z" fill="#90C7E5"/>
</svg>
