<svg width="237" height="65" viewBox="0 0 237 65" fill="none" xmlns="http://www.w3.org/2000/svg">
<path d="M79.0335 21.4526V24.1977H72.043V28.5461H77.4002V31.2427H72.043V38.4091H68.6797V21.4526H79.0335ZM87.3285 38.6277C86.0471 38.6277 84.894 38.3444 83.8691 37.7775C82.8438 37.1944 82.0352 36.3764 81.4427 35.3235C80.8661 34.2707 80.5778 33.0564 80.5778 31.6796C80.5778 30.3028 80.8739 29.0885 81.4664 28.0357C82.0748 26.9829 82.8997 26.1733 83.9408 25.6064C84.9816 25.0233 86.1429 24.7318 87.4242 24.7318C88.7049 24.7318 89.8662 25.0233 90.9073 25.6064C91.9481 26.1733 92.7652 26.9829 93.3577 28.0357C93.9661 29.0885 94.2709 30.3031 94.2709 31.6796C94.2709 33.0561 93.9586 34.2707 93.334 35.3235C92.7253 36.3764 91.8926 37.1941 90.8356 37.7775C89.7948 38.3444 88.6257 38.6277 87.3285 38.6277ZM87.3285 35.6643C87.9368 35.6643 88.5056 35.5182 89.0341 35.227C89.5786 34.9191 90.011 34.4654 90.3314 33.8663C90.6512 33.2672 90.8115 32.5384 90.8115 31.6799C90.8115 30.4006 90.4752 29.4207 89.8029 28.7405C89.1461 28.0442 88.3371 27.6959 87.3762 27.6959C86.4152 27.6959 85.6062 28.0442 84.9498 28.7405C84.3086 29.4207 83.9889 30.4006 83.9889 31.6799C83.9889 32.9589 84.3012 33.9474 84.9258 34.6437C85.5666 35.3239 86.3675 35.6643 87.3285 35.6643ZM100.102 27.04C100.534 26.3273 101.095 25.7685 101.783 25.3638C102.488 24.959 103.289 24.7565 104.186 24.7565V28.3275H103.297C102.24 28.3275 101.439 28.5786 100.894 29.0806C100.366 29.5825 100.102 30.4571 100.102 31.7042V38.4091H96.7385V24.9508H100.102L100.102 27.04ZM120.793 38.4091H117.43L109.814 26.7728V38.4091H106.451V21.4283H109.814L117.43 33.0889V21.4283H120.793V38.4091ZM136.489 31.3884C136.489 31.874 136.456 32.3116 136.393 32.6999H126.663C126.743 33.672 127.079 34.4329 127.672 34.9838C128.264 35.5343 128.993 35.8097 129.858 35.8097C131.107 35.8097 131.996 35.2674 132.525 34.1821H136.152C135.767 35.4775 135.031 36.5467 133.942 37.3891C132.853 38.2151 131.515 38.6277 129.93 38.6277C128.649 38.6277 127.495 38.3444 126.471 37.7775C125.462 37.1944 124.669 36.3764 124.092 35.3235C123.532 34.2707 123.251 33.0564 123.251 31.6796C123.251 30.2867 123.532 29.0642 124.092 28.0114C124.653 26.9586 125.438 26.149 126.447 25.5821C127.456 25.0151 128.617 24.7318 129.93 24.7318C131.195 24.7318 132.324 25.0073 133.317 25.5578C134.326 26.1083 135.103 26.8939 135.648 27.9142C136.209 28.9187 136.489 30.0766 136.489 31.3884ZM133.005 30.4167C132.989 29.5422 132.677 28.8459 132.068 28.3275C131.46 27.7931 130.715 27.5258 129.834 27.5258C129.002 27.5258 128.297 27.7849 127.72 28.3032C127.159 28.8052 126.815 29.5097 126.687 30.4167H133.005ZM146.295 38.4091L143.556 34.2304L141.13 38.4091H137.526L141.875 31.6556L137.478 24.9508H141.274L143.988 29.1049L146.439 24.9508H150.043L145.67 31.6556L150.09 38.4091H146.295ZM171.551 21.4526V38.4091H168.188V31.1941H161.005V38.4091H157.642V21.4526H161.005V28.4247H168.188V21.4526H171.551ZM187.234 31.3884C187.234 31.874 187.202 32.3116 187.138 32.6999H177.408C177.488 33.672 177.825 34.4329 178.417 34.9838C179.009 35.5343 179.738 35.8097 180.603 35.8097C181.852 35.8097 182.741 35.2674 183.27 34.1821H186.897C186.513 35.4775 185.776 36.5467 184.687 37.3891C183.598 38.2151 182.261 38.6277 180.675 38.6277C179.394 38.6277 178.241 38.3444 177.216 37.7775C176.207 37.1944 175.414 36.3764 174.838 35.3235C174.277 34.2707 173.997 33.0564 173.997 31.6796C173.997 30.2867 174.277 29.0642 174.838 28.0114C175.398 26.9586 176.183 26.149 177.192 25.5821C178.201 25.0151 179.362 24.7318 180.675 24.7318C181.94 24.7318 183.069 25.0073 184.063 25.5578C185.072 26.1083 185.848 26.8939 186.393 27.9142C186.953 28.9187 187.234 30.0766 187.234 31.3884ZM183.751 30.4167C183.734 29.5422 183.422 28.8459 182.813 28.3275C182.205 27.7931 181.46 27.5258 180.579 27.5258C179.746 27.5258 179.042 27.7849 178.465 28.3032C177.904 28.8052 177.56 29.5097 177.432 30.4167H183.751ZM188.824 31.6313C188.824 30.2709 189.088 29.0645 189.616 28.0117C190.161 26.9589 190.889 26.1494 191.802 25.5824C192.731 25.0155 193.764 24.7322 194.901 24.7322C195.894 24.7322 196.759 24.9347 197.496 25.3395C198.248 25.7443 198.849 26.2544 199.298 26.8699V24.9508H202.685V38.4091H199.298V36.4413C198.865 37.073 198.265 37.5992 197.496 38.0207C196.743 38.4252 195.87 38.628 194.877 38.628C193.756 38.628 192.732 38.3362 191.802 37.7535C190.889 37.1708 190.161 36.3524 189.616 35.2996C189.088 34.2304 188.824 33.0078 188.824 31.6313ZM199.298 31.6799C199.298 30.854 199.138 30.1495 198.818 29.5665C198.498 28.9673 198.065 28.5136 197.521 28.206C196.976 27.882 196.391 27.7202 195.767 27.7202C195.143 27.7202 194.566 27.8742 194.037 28.1818C193.509 28.4894 193.076 28.9427 192.74 29.5422C192.42 30.1252 192.26 30.8215 192.26 31.6313C192.26 32.4412 192.42 33.1536 192.74 33.7691C193.076 34.3682 193.509 34.8298 194.037 35.1538C194.582 35.4775 195.158 35.6397 195.767 35.6397C196.391 35.6397 196.976 35.4854 197.521 35.1781C198.065 34.8541 198.498 34.4007 198.818 33.8174C199.138 33.2186 199.298 32.5059 199.298 31.6799ZM209.334 20.4323V38.4091H205.97V20.4323H209.334ZM216.572 27.7445V34.255C216.572 34.7083 216.676 35.0409 216.885 35.251C217.109 35.4457 217.477 35.5425 217.99 35.5425H219.551V38.4091H217.437C214.602 38.4091 213.185 37.0162 213.185 34.2304V27.7445H211.599V24.9508H213.185V21.6227H216.572V24.9508H219.551V27.7445H216.572ZM229.465 24.7565C230.474 24.7565 231.371 24.983 232.156 25.4367C232.941 25.8739 233.549 26.5298 233.982 27.4044C234.43 28.2628 234.654 29.2992 234.654 30.5139V38.4091H231.291V30.9754C231.291 29.9066 231.027 29.0888 230.499 28.5219C229.97 27.9388 229.249 27.6473 228.337 27.6473C227.408 27.6473 226.671 27.9388 226.126 28.5219C225.598 29.0888 225.334 29.9066 225.334 30.9754V38.4091H221.97V20.4323H225.334V26.627C225.766 26.044 226.342 25.5906 227.063 25.2666C227.784 24.9265 228.585 24.7565 229.465 24.7565Z" fill="#2B2E34"/>
<path d="M73.1542 51.8687H72.327L69 46.7672V51.8687H68.1729V45.4527H69L72.327 50.545V45.4527H73.1542V51.8687ZM79.2 49.1571C79.2 49.316 79.1909 49.485 79.1727 49.6626H75.191C75.2215 50.159 75.388 50.5477 75.6909 50.83C76 51.1057 76.373 51.2436 76.809 51.2436C77.1664 51.2436 77.4635 51.1609 77.6998 50.9954C77.9423 50.8238 78.1118 50.5972 78.2089 50.3152H79.0993C78.9662 50.7998 78.6997 51.195 78.2994 51.501C77.8998 51.8014 77.4024 51.9514 76.8087 51.9514C76.336 51.9514 75.9117 51.8441 75.5361 51.6297C75.1663 51.4156 74.8754 51.1123 74.6634 50.72C74.4518 50.3218 74.3456 49.8622 74.3456 49.3412C74.3456 48.8202 74.4485 48.3639 74.6547 47.9716C74.8608 47.5797 75.1484 47.2796 75.5182 47.0708C75.8935 46.8565 76.324 46.7494 76.809 46.7494C77.2817 46.7494 77.6998 46.8532 78.0634 47.0616C78.427 47.2704 78.7059 47.5583 78.8997 47.926C79.1 48.2868 79.2 48.6975 79.2 49.1571ZM78.3455 48.9824C78.3455 48.6633 78.2754 48.3912 78.1361 48.1643C77.9969 47.9316 77.806 47.7569 77.5635 47.6404C77.3268 47.5179 77.0635 47.4566 76.7723 47.4566C76.3542 47.4566 75.9967 47.5912 75.6997 47.8607C75.4088 48.1302 75.2423 48.5041 75.1997 48.9821L78.3455 48.9824ZM82.9824 51.8687L81.8007 49.9935L80.6644 51.8687H79.8009L81.4098 49.3685L79.8009 46.8315H80.7372L81.9192 48.6975L83.0463 46.8315H83.9099L82.3101 49.3225L83.919 51.8687H82.9824ZM85.8324 47.5209V50.4899C85.8324 50.7351 85.8841 50.9098 85.9873 51.0142C86.0899 51.1123 86.2688 51.1609 86.5233 51.1609H87.1323V51.8687H86.3869C85.9263 51.8687 85.5812 51.7613 85.351 51.547C85.1205 51.3329 85.0056 50.98 85.0056 50.4899V47.5209H84.3602V46.8315H85.0056V45.563H85.8328V46.8315H87.1326V47.5209H85.8324ZM95.5392 47.319C95.3636 46.9448 95.1091 46.6569 94.7754 46.4546C94.4423 46.2462 94.0543 46.1424 93.6118 46.1424C93.1697 46.1424 92.7694 46.2462 92.4123 46.4546C92.0607 46.6569 91.7822 46.951 91.576 47.3371C91.376 47.7172 91.276 48.1584 91.276 48.661C91.276 49.1633 91.376 49.6048 91.576 49.9843C91.7822 50.3642 92.0607 50.6583 92.4123 50.8668C92.7697 51.069 93.1697 51.1701 93.6118 51.1701C94.23 51.1701 94.7393 50.9833 95.139 50.6094C95.5389 50.2355 95.7723 49.7296 95.8389 49.0927H93.3119V48.4128H96.7206V49.056C96.6726 49.5828 96.5086 50.0671 96.2298 50.5083C95.9509 50.9436 95.5844 51.2899 95.1295 51.547C94.6754 51.7984 94.1689 51.9238 93.6115 51.9238C93.0236 51.9238 92.4873 51.786 92.0026 51.5102C91.5179 51.2282 91.1329 50.8392 90.8482 50.3425C90.5693 49.8461 90.43 49.2854 90.43 48.6607C90.43 48.0356 90.5693 47.4749 90.8482 46.9782C91.1329 46.476 91.5179 46.087 92.0026 45.8109C92.4873 45.5292 93.0239 45.388 93.6115 45.388C94.2842 45.388 94.8779 45.5568 95.3932 45.8936C95.9139 46.2307 96.2927 46.7058 96.5294 47.3187H95.5392V47.319ZM102.45 49.1571C102.45 49.316 102.441 49.485 102.423 49.6626H98.4415C98.4721 50.159 98.6386 50.5477 98.9415 50.83C99.2506 51.1057 99.6232 51.2436 100.06 51.2436C100.417 51.2436 100.714 51.1609 100.95 50.9954C101.193 50.8238 101.362 50.5972 101.459 50.3152H102.35C102.216 50.7998 101.95 51.195 101.55 51.501C101.15 51.8014 100.653 51.9514 100.059 51.9514C99.5866 51.9514 99.1623 51.8441 98.7866 51.6297C98.4169 51.4156 98.126 51.1123 97.914 50.72C97.7023 50.3218 97.5962 49.8622 97.5962 49.3412C97.5962 48.8202 97.6988 48.3639 97.9052 47.9716C98.1114 47.5797 98.399 47.2796 98.7685 47.0708C99.1441 46.8565 99.5745 46.7494 100.06 46.7494C100.532 46.7494 100.95 46.8532 101.314 47.0616C101.677 47.2704 101.956 47.5583 102.15 47.926C102.351 48.2868 102.45 48.6975 102.45 49.1571ZM101.596 48.9824C101.596 48.6633 101.526 48.3912 101.387 48.1643C101.248 47.9316 101.057 47.7569 100.814 47.6404C100.578 47.5179 100.314 47.4566 100.023 47.4566C99.6051 47.4566 99.2476 47.5912 98.9506 47.8607C98.6597 48.1302 98.4932 48.5041 98.4506 48.9821L101.596 48.9824ZM106.06 46.7396C106.666 46.7396 107.157 46.9264 107.533 47.3003C107.908 47.668 108.096 48.2011 108.096 48.8997V51.8687H107.278V49.0192C107.278 48.5166 107.154 48.1338 106.905 47.8702C106.657 47.6007 106.317 47.4657 105.887 47.4657C105.451 47.4657 105.103 47.6036 104.842 47.8794C104.587 48.1551 104.46 48.5566 104.46 49.0835V51.8687H103.633V46.8315H104.46V47.5485C104.623 47.2914 104.845 47.0918 105.123 46.951C105.409 46.8102 105.721 46.7396 106.06 46.7396ZM114.083 49.1571C114.083 49.316 114.074 49.485 114.056 49.6626H110.074C110.105 50.159 110.272 50.5477 110.574 50.83C110.883 51.1057 111.256 51.2436 111.692 51.2436C112.05 51.2436 112.347 51.1609 112.583 50.9954C112.825 50.8238 112.996 50.5972 113.092 50.3152H113.983C113.85 50.7998 113.583 51.195 113.183 51.501C112.783 51.8014 112.286 51.9514 111.692 51.9514C111.219 51.9514 110.795 51.8441 110.42 51.6297C110.05 51.4156 109.759 51.1123 109.547 50.72C109.335 50.3218 109.229 49.8622 109.229 49.3412C109.229 48.8202 109.332 48.3639 109.538 47.9716C109.744 47.5797 110.032 47.2796 110.401 47.0708C110.777 46.8565 111.207 46.7494 111.692 46.7494C112.165 46.7494 112.583 46.8532 112.947 47.0616C113.31 47.2704 113.589 47.5583 113.783 47.926C113.983 48.2868 114.083 48.6975 114.083 49.1571ZM113.229 48.9824C113.229 48.6633 113.16 48.3912 113.02 48.1643C112.88 47.9316 112.689 47.7569 112.447 47.6404C112.211 47.5179 111.947 47.4566 111.656 47.4566C111.238 47.4566 110.881 47.5912 110.583 47.8607C110.293 48.1302 110.126 48.5041 110.084 48.9821L113.229 48.9824ZM116.094 47.6496C116.239 47.3617 116.445 47.1375 116.712 46.9782C116.984 46.8194 117.314 46.7393 117.703 46.7393V47.6033H117.484C116.557 47.6033 116.094 48.1118 116.094 49.1292V51.8687H115.266V46.8315H116.094V47.6496ZM118.439 49.3314C118.439 48.817 118.542 48.3666 118.748 47.9805C118.954 47.5882 119.236 47.2849 119.593 47.0705C119.957 46.8561 120.359 46.7491 120.802 46.7491C121.239 46.7491 121.617 46.844 121.939 47.0337C122.26 47.2241 122.5 47.4631 122.657 47.751V46.8318H123.493V51.8687H122.657V50.9314C122.493 51.2256 122.248 51.4708 121.92 51.6665C121.599 51.8565 121.223 51.9514 120.793 51.9514C120.351 51.9514 119.95 51.8411 119.593 51.6205C119.236 51.3999 118.954 51.0903 118.748 50.6921C118.542 50.2939 118.439 49.8399 118.439 49.3314ZM122.657 49.3409C122.657 48.9611 122.582 48.6302 122.43 48.3482C122.278 48.0665 122.072 47.8518 121.812 47.7051C121.557 47.5518 121.276 47.4753 120.967 47.4753C120.657 47.4753 120.376 47.5488 120.121 47.6959C119.866 47.8429 119.664 48.0573 119.512 48.3393C119.36 48.6213 119.285 48.9522 119.285 49.3317C119.285 49.7181 119.36 50.0549 119.512 50.3428C119.664 50.6248 119.867 50.8421 120.121 50.9954C120.376 51.1425 120.657 51.2161 120.967 51.2161C121.276 51.2161 121.557 51.1425 121.812 50.9954C122.073 50.8421 122.278 50.6248 122.43 50.3428C122.581 50.0549 122.657 49.7207 122.657 49.3409ZM125.991 47.5209V50.4899C125.991 50.7351 126.042 50.9098 126.146 51.0142C126.248 51.1123 126.427 51.1609 126.682 51.1609H127.291V51.8687H126.546C126.085 51.8687 125.739 51.7613 125.509 51.547C125.279 51.3329 125.164 50.98 125.164 50.4899V47.5209H124.519V46.8315H125.164V45.563H125.991V46.8315H127.291V47.5209H125.991ZM128.811 46.0134C128.654 46.0134 128.52 45.9583 128.412 45.848C128.303 45.7377 128.248 45.6027 128.248 45.4435C128.248 45.2846 128.302 45.1494 128.412 45.0391C128.521 44.9288 128.654 44.8736 128.811 44.8736C128.963 44.8736 129.09 44.9288 129.193 45.0391C129.302 45.1497 129.357 45.2846 129.357 45.4435C129.357 45.6027 129.302 45.7377 129.193 45.848C129.09 45.9583 128.962 46.0134 128.811 46.0134ZM129.211 46.8315V51.8687H128.384V46.8315H129.211ZM132.884 51.9514C132.417 51.9514 131.993 51.8441 131.612 51.6297C131.236 51.4156 130.939 51.1123 130.721 50.72C130.509 50.3218 130.403 49.8622 130.403 49.3412C130.403 48.8268 130.512 48.3735 130.73 47.9808C130.954 47.5826 131.257 47.2793 131.639 47.0708C132.021 46.8565 132.448 46.7494 132.921 46.7494C133.394 46.7494 133.821 46.8565 134.203 47.0708C134.584 47.2796 134.884 47.5797 135.102 47.9716C135.326 48.3639 135.438 48.8202 135.438 49.3412C135.438 49.8622 135.324 50.3218 135.093 50.72C134.869 51.1123 134.563 51.4156 134.175 51.6297C133.787 51.8441 133.357 51.9514 132.884 51.9514ZM132.884 51.2161C133.181 51.2161 133.46 51.1455 133.72 51.0046C133.981 50.8638 134.19 50.6524 134.348 50.3701C134.512 50.0884 134.593 49.7453 134.593 49.3406C134.593 48.9365 134.515 48.5934 134.357 48.3111C134.199 48.0288 133.993 47.821 133.739 47.686C133.484 47.5452 133.208 47.4746 132.911 47.4746C132.608 47.4746 132.33 47.5452 132.075 47.686C131.826 47.821 131.626 48.0291 131.475 48.3111C131.324 48.5931 131.248 48.9361 131.248 49.3406C131.248 49.7513 131.321 50.0976 131.466 50.3793C131.618 50.6613 131.817 50.8727 132.066 51.0138C132.315 51.1488 132.587 51.2161 132.884 51.2161ZM139.044 46.7396C139.65 46.7396 140.141 46.9264 140.517 47.3003C140.892 47.668 141.08 48.2011 141.08 48.8997V51.8687H140.262V49.0192C140.262 48.5166 140.138 48.1338 139.889 47.8702C139.641 47.6007 139.301 47.4657 138.871 47.4657C138.435 47.4657 138.086 47.6036 137.826 47.8794C137.571 48.1551 137.444 48.5566 137.444 49.0835V51.8687H136.617V46.8315H137.444V47.5485C137.608 47.2914 137.829 47.0918 138.107 46.951C138.393 46.8102 138.705 46.7396 139.044 46.7396ZM149.918 45.4619V51.8687H149.091V48.964H145.864V51.8687H145.037V45.4619H145.864V48.2743H149.091V45.4619H149.918ZM155.967 49.1571C155.967 49.316 155.957 49.485 155.939 49.6626H151.958C151.988 50.159 152.154 50.5477 152.458 50.83C152.767 51.1057 153.14 51.2436 153.576 51.2436C153.933 51.2436 154.23 51.1609 154.466 50.9954C154.709 50.8238 154.878 50.5972 154.975 50.3152H155.866C155.733 50.7998 155.466 51.195 155.066 51.501C154.666 51.8014 154.169 51.9514 153.575 51.9514C153.103 51.9514 152.678 51.8441 152.303 51.6297C151.933 51.4156 151.642 51.1123 151.43 50.72C151.218 50.3218 151.112 49.8622 151.112 49.3412C151.112 48.8202 151.215 48.3639 151.421 47.9716C151.627 47.5797 151.915 47.2796 152.285 47.0708C152.66 46.8565 153.09 46.7494 153.576 46.7494C154.048 46.7494 154.466 46.8532 154.83 47.0616C155.194 47.2704 155.472 47.5583 155.666 47.926C155.866 48.2868 155.967 48.6975 155.967 49.1571ZM155.112 48.9824C155.112 48.6633 155.042 48.3912 154.903 48.1643C154.763 47.9316 154.572 47.7569 154.33 47.6404C154.093 47.5179 153.83 47.4566 153.539 47.4566C153.121 47.4566 152.763 47.5912 152.466 47.8607C152.175 48.1302 152.009 48.5041 151.966 48.9821L155.112 48.9824ZM156.84 49.3314C156.84 48.817 156.943 48.3666 157.149 47.9805C157.355 47.5882 157.637 47.2849 157.994 47.0705C158.358 46.8561 158.76 46.7491 159.203 46.7491C159.64 46.7491 160.018 46.844 160.34 47.0337C160.661 47.2241 160.9 47.4631 161.058 47.751V46.8318H161.894V51.8687H161.058V50.9314C160.894 51.2256 160.649 51.4708 160.321 51.6665C160 51.8565 159.624 51.9514 159.194 51.9514C158.752 51.9514 158.351 51.8411 157.994 51.6205C157.636 51.3999 157.354 51.0903 157.149 50.6921C156.943 50.2939 156.84 49.8399 156.84 49.3314ZM161.058 49.3409C161.058 48.9611 160.982 48.6302 160.831 48.3482C160.679 48.0665 160.473 47.8518 160.213 47.7051C159.958 47.5518 159.677 47.4753 159.368 47.4753C159.058 47.4753 158.777 47.5488 158.522 47.6959C158.268 47.8429 158.064 48.0573 157.913 48.3393C157.761 48.6213 157.686 48.9522 157.686 49.3317C157.686 49.7181 157.761 50.0549 157.913 50.3428C158.064 50.6248 158.268 50.8421 158.522 50.9954C158.776 51.1425 159.058 51.2161 159.368 51.2161C159.677 51.2161 159.958 51.1425 160.213 50.9954C160.473 50.8421 160.679 50.6248 160.831 50.3428C160.982 50.0549 161.058 49.7207 161.058 49.3409ZM164.21 45.0667V51.8687H163.383V45.0667H164.21ZM166.72 47.5209V50.4899C166.72 50.7351 166.771 50.9098 166.874 51.0142C166.977 51.1123 167.156 51.1609 167.411 51.1609H168.02V51.8687H167.274C166.814 51.8687 166.468 51.7613 166.238 51.547C166.008 51.3329 165.893 50.98 165.893 50.4899V47.5209H165.247V46.8315H165.893V45.563H166.72V46.8315H168.02V47.5209H166.72ZM171.585 46.7396C171.961 46.7396 172.3 46.8223 172.604 46.9878C172.906 47.147 173.143 47.3896 173.313 47.7139C173.488 48.0386 173.576 48.4339 173.576 48.8997V51.8687H172.758V49.0192C172.758 48.5166 172.634 48.1338 172.385 47.8702C172.137 47.6007 171.797 47.4657 171.367 47.4657C170.931 47.4657 170.582 47.6036 170.322 47.8794C170.067 48.1551 169.94 48.5566 169.94 49.0835V51.8687H169.113V45.0667H169.94V47.5485C170.104 47.2914 170.327 47.0918 170.613 46.951C170.904 46.8102 171.228 46.7396 171.585 46.7396ZM174.709 49.3409C174.709 48.8199 174.812 48.3666 175.018 47.9805C175.224 47.5882 175.509 47.2849 175.872 47.0705C176.242 46.8561 176.664 46.7491 177.136 46.7491C177.748 46.7491 178.251 46.8991 178.645 47.1992C179.045 47.4999 179.308 47.9165 179.436 48.4496H178.545C178.46 48.143 178.294 47.9011 178.045 47.7235C177.803 47.5459 177.5 47.4569 177.136 47.4569C176.664 47.4569 176.282 47.6223 175.991 47.9532C175.7 48.2776 175.555 48.7405 175.555 49.3412C175.555 49.9482 175.7 50.4167 175.991 50.7476C176.282 51.0785 176.664 51.244 177.136 51.244C177.5 51.244 177.803 51.1583 178.045 50.9869C178.287 50.8152 178.454 50.57 178.545 50.2516H179.436C179.303 50.7663 179.036 51.1799 178.636 51.4921C178.236 51.7988 177.736 51.9517 177.136 51.9517C176.664 51.9517 176.242 51.8444 175.872 51.63C175.509 51.416 175.224 51.1126 175.018 50.7203C174.812 50.3274 174.709 49.8678 174.709 49.3409ZM180.321 49.3314C180.321 48.817 180.424 48.3666 180.63 47.9805C180.836 47.5882 181.118 47.2849 181.476 47.0705C181.839 46.8561 182.242 46.7491 182.685 46.7491C183.121 46.7491 183.5 46.844 183.821 47.0337C184.142 47.2241 184.382 47.4631 184.539 47.751V46.8318H185.375V51.8687H184.539V50.9314C184.375 51.2256 184.13 51.4708 183.803 51.6665C183.482 51.8565 183.106 51.9514 182.675 51.9514C182.233 51.9514 181.833 51.8411 181.476 51.6205C181.118 51.3999 180.836 51.0903 180.63 50.6921C180.424 50.2939 180.321 49.8399 180.321 49.3314ZM184.539 49.3409C184.539 48.9611 184.463 48.6302 184.312 48.3482C184.16 48.0665 183.954 47.8518 183.694 47.7051C183.439 47.5518 183.158 47.4753 182.849 47.4753C182.54 47.4753 182.258 47.5488 182.003 47.6959C181.749 47.8429 181.546 48.0573 181.395 48.3393C181.243 48.6213 181.167 48.9522 181.167 49.3317C181.167 49.7181 181.243 50.0549 181.395 50.3428C181.546 50.6248 181.749 50.8421 182.003 50.9954C182.258 51.1425 182.54 51.2161 182.849 51.2161C183.158 51.2161 183.439 51.1425 183.694 50.9954C183.955 50.8421 184.161 50.6248 184.312 50.3428C184.463 50.0549 184.539 49.7207 184.539 49.3409ZM187.691 47.6496C187.837 47.3617 188.043 47.1375 188.309 46.9782C188.582 46.8194 188.912 46.7393 189.3 46.7393V47.6033H189.082C188.155 47.6033 187.691 48.1118 187.691 49.1292V51.8687H186.864V46.8315H187.691V47.6496ZM194.891 49.1571C194.891 49.316 194.882 49.485 194.864 49.6626H190.882C190.912 50.159 191.079 50.5477 191.382 50.83C191.691 51.1057 192.064 51.2436 192.5 51.2436C192.858 51.2436 193.155 51.1609 193.391 50.9954C193.633 50.8238 193.803 50.5972 193.9 50.3152H194.791C194.657 50.7998 194.391 51.195 193.991 51.501C193.591 51.8014 193.094 51.9514 192.5 51.9514C192.027 51.9514 191.603 51.8441 191.227 51.6297C190.857 51.4156 190.567 51.1123 190.354 50.72C190.142 50.3218 190.036 49.8622 190.036 49.3412C190.036 48.8202 190.139 48.3639 190.345 47.9716C190.551 47.5797 190.839 47.2796 191.209 47.0708C191.584 46.8565 192.015 46.7494 192.5 46.7494C192.973 46.7494 193.39 46.8532 193.754 47.0616C194.118 47.2704 194.396 47.5583 194.59 47.926C194.791 48.2868 194.891 48.6975 194.891 49.1571ZM194.037 48.9824C194.037 48.6633 193.967 48.3912 193.828 48.1643C193.688 47.9316 193.497 47.7569 193.255 47.6404C193.018 47.5179 192.755 47.4566 192.464 47.4566C192.046 47.4566 191.688 47.5912 191.391 47.8607C191.1 48.1302 190.933 48.5041 190.891 48.9821L194.037 48.9824ZM202.824 47.3367C202.824 47.8702 202.642 48.3144 202.278 48.6699C201.921 49.0192 201.373 49.1938 200.633 49.1938H199.415V51.8687H198.588V45.4619H200.633C201.348 45.4619 201.891 45.6362 202.261 45.9859C202.636 46.3355 202.824 46.7855 202.824 47.3367ZM200.633 48.5044C201.094 48.5044 201.433 48.403 201.652 48.2011C201.87 47.9989 201.979 47.711 201.979 47.3367C201.979 46.5466 201.53 46.1513 200.633 46.1513H199.415V48.5044H200.633ZM204.77 45.0667V51.8687H203.943V45.0667H204.77ZM205.962 49.3314C205.962 48.817 206.065 48.3666 206.271 47.9805C206.477 47.5882 206.759 47.2849 207.116 47.0705C207.48 46.8561 207.883 46.7491 208.325 46.7491C208.762 46.7491 209.141 46.844 209.461 47.0337C209.783 47.2241 210.022 47.4631 210.18 47.751V46.8318H211.016V51.8687H210.18V50.9314C210.016 51.2256 209.771 51.4708 209.443 51.6665C209.122 51.8565 208.747 51.9514 208.316 51.9514C207.874 51.9514 207.474 51.8411 207.116 51.6205C206.759 51.3999 206.477 51.0903 206.271 50.6921C206.065 50.2939 205.962 49.8399 205.962 49.3314ZM210.18 49.3409C210.18 48.9611 210.104 48.6302 209.952 48.3482C209.801 48.0665 209.595 47.8518 209.334 47.7051C209.08 47.5518 208.798 47.4753 208.489 47.4753C208.18 47.4753 207.898 47.5488 207.643 47.6959C207.389 47.8429 207.186 48.0573 207.034 48.3393C206.883 48.6213 206.807 48.9522 206.807 49.3317C206.807 49.7181 206.883 50.0549 207.034 50.3428C207.186 50.6248 207.389 50.8421 207.643 50.9954C207.898 51.1425 208.18 51.2161 208.489 51.2161C208.798 51.2161 209.079 51.1425 209.334 50.9954C209.595 50.8421 209.801 50.6248 209.952 50.3428C210.104 50.0549 210.18 49.7207 210.18 49.3409ZM213.514 47.5209V50.4899C213.514 50.7351 213.565 50.9098 213.668 51.0142C213.771 51.1123 213.95 51.1609 214.205 51.1609H214.814V51.8687H214.068C213.607 51.8687 213.262 51.7613 213.032 51.547C212.802 51.3329 212.687 50.98 212.687 50.4899V47.5209H212.041V46.8315H212.687V45.563H213.514V46.8315H214.814V47.5209H213.514ZM217.934 47.5209H216.888V51.8687H216.061V47.5209H215.416V46.8315H216.061V46.473C216.061 45.9094 216.203 45.4983 216.488 45.2413C216.779 44.9774 217.243 44.8457 217.879 44.8457V45.5446C217.515 45.5446 217.258 45.6182 217.106 45.7652C216.961 45.9061 216.888 46.1421 216.888 46.473V46.8315H217.933V47.5209H217.934ZM221.161 51.9514C220.695 51.9514 220.271 51.8441 219.889 51.6297C219.513 51.4156 219.216 51.1123 218.998 50.72C218.786 50.3218 218.68 49.8622 218.68 49.3412C218.68 48.8268 218.789 48.3735 219.007 47.9808C219.232 47.5826 219.535 47.2793 219.916 47.0708C220.298 46.8565 220.725 46.7494 221.198 46.7494C221.671 46.7494 222.098 46.8565 222.48 47.0708C222.861 47.2796 223.161 47.5797 223.379 47.9716C223.604 48.3639 223.716 48.8202 223.716 49.3412C223.716 49.8622 223.601 50.3218 223.37 50.72C223.146 51.1123 222.84 51.4156 222.452 51.6297C222.065 51.8441 221.634 51.9514 221.161 51.9514ZM221.161 51.2161C221.458 51.2161 221.737 51.1455 221.998 51.0046C222.258 50.8638 222.467 50.6524 222.625 50.3701C222.789 50.0884 222.871 49.7453 222.871 49.3406C222.871 48.9365 222.792 48.5934 222.634 48.3111C222.477 48.0291 222.27 47.821 222.016 47.686C221.762 47.5452 221.486 47.4746 221.189 47.4746C220.886 47.4746 220.607 47.5452 220.353 47.686C220.104 47.821 219.904 48.0291 219.752 48.3111C219.601 48.5931 219.525 48.9361 219.525 49.3406C219.525 49.7513 219.598 50.0976 219.744 50.3793C219.895 50.6613 220.095 50.8727 220.344 51.0138C220.592 51.1488 220.865 51.2161 221.161 51.2161ZM225.722 47.6496C225.867 47.3617 226.073 47.1375 226.339 46.9782C226.612 46.8194 226.943 46.7393 227.33 46.7393V47.6033H227.112C226.185 47.6033 225.722 48.1118 225.722 49.1292V51.8687H224.894V46.8315H225.722V47.6496ZM234.367 46.7396C234.754 46.7396 235.1 46.8223 235.403 46.9878C235.706 47.147 235.945 47.3896 236.121 47.7139C236.296 48.0386 236.385 48.4339 236.385 48.8997V51.8687H235.566V49.0192C235.566 48.5166 235.442 48.1338 235.194 47.8702C234.951 47.6007 234.621 47.4657 234.203 47.4657C233.773 47.4657 233.43 47.6069 233.176 47.8886C232.921 48.1643 232.794 48.5658 232.794 49.0927V51.8687H231.976V49.0192C231.976 48.5166 231.851 48.1338 231.603 47.8702C231.361 47.6007 231.03 47.4657 230.612 47.4657C230.182 47.4657 229.84 47.6069 229.585 47.8886C229.331 48.1643 229.203 48.5658 229.203 49.0927V51.8687H228.376V46.8315H229.203V47.5577C229.367 47.2937 229.585 47.0918 229.858 46.9507C230.136 46.8098 230.443 46.7393 230.776 46.7393C231.194 46.7393 231.563 46.8341 231.885 47.0242C232.206 47.2143 232.446 47.493 232.603 47.8607C232.743 47.5051 232.973 47.2294 233.294 47.0331C233.615 46.8377 233.973 46.7396 234.367 46.7396Z" fill="#2B2E34"/>
<path d="M24.3047 53.4234C24.0431 60.6525 19.4727 64.0765 17.2207 64.8851C29.3399 64.8851 32.9513 56.3619 33.2418 52.1008V43.0635H44.3585C48.5435 43.0635 49.6626 39.5371 49.6989 37.7739V27.4139H33.2418V21.3525C33.2418 18.3546 36.0756 17.3849 37.4924 17.2746H49.1542C55.3444 16.7457 58.0549 12.2049 58.6357 10.0008C56.8047 11.676 54.5306 11.9479 53.6229 11.8746H34.2229C26.8989 11.8746 24.5592 17.4584 24.3051 20.2505L24.3047 53.4234Z" fill="#90C7E5"/>
<path d="M17.1109 55.5172C17.3726 59.5728 14.7495 63.4525 13.4055 64.8851C19.2471 62.5927 21.1433 56.0684 21.3615 53.0925V21.0219C22.3205 10.9709 30.1168 8.82555 33.895 9.00906H51.987C57.3056 9.00906 60.2335 5.62939 61.0328 3.93939H35.6386C21.1651 4.11568 17.2561 14.8134 17.1109 20.1402V27.4139H6.10328C1.74365 27.6785 0.217835 31.1245 0 32.8142V43.0641H17.1109V55.5172Z" fill="#60C6B1"/>
<path d="M11.6691 30.0587C11.6691 29.5679 11.2756 29.17 10.7902 29.17C10.3049 29.17 9.91143 29.5679 9.91143 30.0587C9.91143 30.5495 10.3049 30.9474 10.7902 30.9474C11.2756 30.9474 11.6691 30.5495 11.6691 30.0587ZM12.643 30.0587C12.643 31.0934 11.8135 31.9322 10.7902 31.9322C9.76701 31.9322 8.93751 31.0934 8.9375 30.0587C8.9375 29.024 9.76701 28.1852 10.7902 28.1852C11.8135 28.1852 12.643 29.024 12.643 30.0587Z" fill="white"/>
<path d="M6.00109 35.1286C6.00109 34.6378 5.60762 34.2399 5.12228 34.2399C4.63692 34.2399 4.24346 34.6378 4.24346 35.1286C4.24346 35.6194 4.63693 36.0172 5.12228 36.0172C5.60762 36.0172 6.00109 35.6194 6.00109 35.1286ZM6.97502 35.1286C6.97502 36.1633 6.1455 37.0021 5.12228 37.0021C4.09904 37.0021 3.26954 36.1633 3.26953 35.1286C3.26953 34.0939 4.09904 33.2551 5.12228 33.2551C6.14551 33.2551 6.97502 34.0939 6.97502 35.1286Z" fill="white"/>
<path d="M11.8865 40.1982C11.8865 39.7073 11.4929 39.3092 11.0074 39.3092C10.5218 39.3092 10.1282 39.7073 10.1282 40.1982C10.1282 40.6892 10.5218 41.0872 11.0074 41.0872C11.4929 41.0872 11.8865 40.6892 11.8865 40.1982ZM12.8604 40.1982C12.8604 41.2331 12.0308 42.0721 11.0074 42.0721C9.98394 42.0721 9.1543 41.2331 9.1543 40.1982C9.1543 39.1633 9.98394 38.3244 11.0074 38.3244C12.0308 38.3244 12.8604 39.1633 12.8604 40.1982Z" fill="white"/>
<path d="M37.6072 40.1982C37.6072 39.7073 37.2136 39.3092 36.7281 39.3092C36.2425 39.3092 35.8489 39.7073 35.8489 40.1982C35.8489 40.6892 36.2425 41.0872 36.7281 41.0872C37.2136 41.0872 37.6072 40.6892 37.6072 40.1982ZM38.5811 40.1982C38.5811 41.2331 37.7515 42.0721 36.7281 42.0721C35.7046 42.0721 34.875 41.2331 34.875 40.1982C34.875 39.1633 35.7046 38.3244 36.7281 38.3244C37.7515 38.3244 38.5811 39.1633 38.5811 40.1982Z" fill="white"/>
<path d="M45.4549 37.1124C45.4549 36.6214 45.0612 36.2234 44.5757 36.2234C44.0902 36.2234 43.6966 36.6214 43.6966 37.1124C43.6966 37.6034 44.0902 38.0014 44.5757 38.0014C45.0612 38.0014 45.4549 37.6034 45.4549 37.1124ZM46.4288 37.1124C46.4288 38.1473 45.5991 38.9862 44.5757 38.9862C43.5523 38.9862 42.7227 38.1473 42.7227 37.1124C42.7227 36.0775 43.5523 35.2385 44.5757 35.2385C45.5991 35.2385 46.4288 36.0775 46.4288 37.1124Z" fill="white"/>
<path d="M40.005 34.6877C40.005 34.1969 39.6115 33.799 39.1262 33.799C38.6408 33.799 38.2474 34.1969 38.2474 34.6877C38.2474 35.1785 38.6408 35.5764 39.1262 35.5764C39.6115 35.5764 40.005 35.1785 40.005 34.6877ZM40.9789 34.6877C40.9789 35.7224 40.1494 36.5612 39.1262 36.5612C38.1029 36.5612 37.2734 35.7224 37.2734 34.6877C37.2734 33.653 38.1029 32.8142 39.1262 32.8142C40.1494 32.8142 40.9789 33.653 40.9789 34.6877Z" fill="white"/>
<path d="M41.9659 30.0587C41.9659 29.5679 41.5725 29.17 41.0871 29.17C40.6018 29.17 40.2083 29.5679 40.2083 30.0587C40.2083 30.5495 40.6018 30.9474 41.0871 30.9474C41.5725 30.9474 41.9659 30.5495 41.9659 30.0587ZM42.9399 30.0587C42.9399 31.0934 42.1103 31.9322 41.0871 31.9322C40.0639 31.9322 39.2344 31.0934 39.2344 30.0587C39.2344 29.024 40.0639 28.1852 41.0871 28.1852C42.1104 28.1852 42.9399 29.024 42.9399 30.0587Z" fill="white"/>
<path d="M30.895 22.5219C30.895 21.9715 30.4537 21.5252 29.9094 21.5252C29.365 21.5252 28.9237 21.9714 28.9237 22.5219C28.9237 23.0723 29.365 23.5186 29.9094 23.5186C30.4537 23.5186 30.895 23.0723 30.895 22.5219ZM31.5443 22.5219C31.5443 23.4349 30.8123 24.1751 29.9094 24.1752C29.0064 24.1752 28.2744 23.4349 28.2744 22.5219C28.2744 21.6088 29.0064 20.8686 29.9094 20.8686C30.8123 20.8686 31.5443 21.6089 31.5443 22.5219Z" fill="white"/>
<path d="M31.6112 50.117C31.6112 49.5668 31.17 49.1207 30.6258 49.1206C30.0817 49.1206 29.6405 49.5668 29.6405 50.117C29.6405 50.6673 30.0817 51.1134 30.6258 51.1134C31.17 51.1134 31.6112 50.6672 31.6112 50.117ZM32.2605 50.117C32.2604 51.0298 31.5285 51.7699 30.6258 51.77C29.7231 51.77 28.9912 51.0299 28.9912 50.117C28.9912 49.2041 29.7231 48.4641 30.6258 48.4641C31.5286 48.4641 32.2605 49.2042 32.2605 50.117Z" fill="white"/>
<path d="M27.9051 56.0685C27.9051 55.5182 27.4639 55.0721 26.9198 55.0721C26.3756 55.0721 25.9344 55.5182 25.9344 56.0685C25.9345 56.6187 26.3756 57.0649 26.9198 57.0649C27.4639 57.0648 27.9051 56.6187 27.9051 56.0685ZM28.5544 56.0685C28.5544 56.9813 27.8225 57.7214 26.9198 57.7214C26.017 57.7214 25.2852 56.9813 25.2852 56.0685C25.2852 55.1556 26.017 54.4155 26.9198 54.4155C27.8225 54.4155 28.5544 55.1556 28.5544 56.0685Z" fill="white"/>
<path d="M27.2638 47.8956L27.4065 48.0399V54.4154H26.4326V48.4473C25.4758 47.4795 24.2867 46.2773 23.3545 45.3347L24.0431 44.6384C25.0222 45.6285 26.2847 46.9051 27.2638 47.8956Z" fill="white"/>
<path d="M42.7225 36.62V37.6048H29.0412V38.6894L30.5278 39.4854H34.9843V40.4702H30.2859L30.1791 40.4132L29.0412 39.8037V41.875L31.1121 44.0791V48.5741H30.1382V44.4721L28.2011 42.4111L28.0673 42.2684V37.6048H24.1855V36.62H42.7225Z" fill="white"/>
<path d="M26.5665 38.824L27.0794 39.8621V43.7486L29.1249 45.9203L28.4198 46.5996L26.1055 44.1426V40.0942L25.9644 39.8089H24.1855V38.824H26.5665Z" fill="white"/>
<path d="M37.2732 34.1952V35.1801H24.0234V34.1952H37.2732Z" fill="white"/>
<path d="M30.3493 23.7769V31.6601H35.9817L37.9435 29.6767H39.3442V30.6615H38.3471L36.5277 32.501L36.385 32.645H24.1855V31.6601H29.3754V23.7769H30.3493Z" fill="white"/>
<path d="M27.2975 24.1078V29.4661L26.6397 30.2644L26.4936 30.4413H24.1855V29.4565H26.0373L26.3236 29.1093V24.1078H27.2975Z" fill="white"/>
<path d="M27.688 22.5649C27.688 22.0145 27.2466 21.5682 26.7023 21.5682C26.158 21.5682 25.7167 22.0144 25.7167 22.5649C25.7167 23.1153 26.158 23.5616 26.7023 23.5616C27.2466 23.5616 27.688 23.1153 27.688 22.5649ZM28.3373 22.5649C28.3372 23.4779 27.6052 24.2181 26.7023 24.2182C25.7994 24.2182 25.0674 23.4779 25.0674 22.5649C25.0674 21.6518 25.7994 20.9116 26.7023 20.9116C27.6052 20.9116 28.3373 21.6518 28.3373 22.5649Z" fill="white"/>
<path d="M14.1593 29.5665L16.1211 31.6602H21.4701V32.6451H15.7023L13.7408 30.5513H12.5332V29.5665H14.1593Z" fill="white"/>
<path d="M21.4707 34.3056V35.2904H17.743L15.0511 37.9083L14.9097 38.0455H12.3319L12.1892 37.9016L9.93417 35.6209H6.64844V34.6361H10.3374L12.7352 37.0607H14.5175L17.3509 34.3056H21.4707Z" fill="white"/>
<path d="M21.4701 36.7303V37.7151H18.729L15.7869 40.6908H12.6426V39.706H15.383L18.3257 36.7303H21.4701Z" fill="white"/>
<path d="M59.2738 8.45459L55.666 2.08492L63.1789 2.12202L59.2738 8.45459Z" fill="#60C6B1"/>
<path d="M56.8195 15.8518L52.4375 10.4351L58.9336 9.84718L56.8195 15.8518Z" fill="#90C7E5"/>
</svg>
