<svg width="49" height="51" viewBox="0 0 49 51" fill="none" xmlns="http://www.w3.org/2000/svg">
<path d="M22.9461 6.36248C22.9419 2.85347 20.086 0 16.576 0C13.9773 0 11.7384 1.56502 10.7487 3.80131C14.7272 4.31119 17.8128 7.71669 17.8128 11.8315H14.8241C14.8241 9.01392 12.5318 6.72163 9.71419 6.72163C6.89668 6.72163 4.60439 9.01392 4.60439 11.8315V13.0272H7.0758V16.016H3.99269C1.79107 16.016 0 17.8072 0 20.0087C0 22.2061 1.78439 23.9943 3.98024 24.0011C3.98442 24.0011 3.98851 24.0008 3.99269 24.0008V26.9896C3.98851 26.9896 3.98442 26.9899 3.98024 26.9899C1.78439 26.9966 0 28.7848 0 30.9822C0 33.1839 1.79117 34.9749 3.99269 34.9749H7.0758V37.9637H4.60439V39.1589C4.60439 41.9765 6.89668 44.2688 9.71419 44.2688C12.5318 44.2688 14.8241 41.9765 14.8241 39.1589H17.8128C17.8128 43.2752 14.7252 46.6816 10.7447 47.1897C11.7324 49.4308 13.9738 50.9999 16.576 50.9999C20.086 50.9999 22.9418 48.1464 22.946 44.6374C22.946 44.6348 22.9459 44.6323 22.9459 44.6297L22.9461 24.2746C22.345 24.1251 21.7781 23.8881 21.2603 23.5772L16.9928 27.8682C17.3368 28.5341 17.5324 29.2887 17.5324 30.0885C17.5324 32.7657 15.3544 34.9438 12.6771 34.9438C9.99991 34.9438 7.8219 32.7657 7.8219 30.0885C7.8219 27.4113 10 25.2333 12.6771 25.2333C13.4675 25.2333 14.2136 25.4242 14.8737 25.7607L19.1407 21.4702C18.5712 20.5334 18.243 19.4347 18.243 18.2606C18.243 15.3585 20.2486 12.917 22.9461 12.2466V6.37016C22.9463 6.36757 22.9461 6.36507 22.9461 6.36248Z" fill="#60C6B1"/>
<path d="M10.8108 30.0885C10.8108 31.1177 11.6481 31.955 12.6772 31.955C13.7064 31.955 14.5437 31.1177 14.5437 30.0885C14.5437 29.0593 13.7065 28.222 12.6772 28.222C11.648 28.222 10.8108 29.0594 10.8108 30.0885Z" fill="#60C6B1"/>
<path d="M44.9004 26.99C44.8962 26.99 44.8921 26.9902 44.8879 26.9902V24.0015C44.8921 24.0015 44.8962 24.0012 44.9004 24.0012C47.0962 23.9944 48.8806 22.2062 48.8806 20.0088C48.8806 17.8072 47.0894 16.0161 44.8879 16.0161H41.8048V13.0273H44.2762V11.8316C44.2762 9.01402 41.9839 6.72173 39.1663 6.72173C36.3488 6.72173 34.0565 9.01402 34.0565 11.8316H31.0678C31.0678 7.71669 34.1534 4.3112 38.1318 3.80141C37.142 1.56502 34.9033 0 32.3045 0C28.7945 0 25.9388 2.85347 25.9346 6.36248C25.9346 6.36507 25.9347 6.36757 25.9347 6.37016V12.2468C28.6319 12.9174 30.6372 15.3588 30.6372 18.2606C30.6372 19.4347 30.309 20.5334 29.7396 21.4702L34.0065 25.7607C34.6666 25.4242 35.4127 25.2333 36.2031 25.2333C38.8803 25.2333 41.0583 27.4114 41.0583 30.0885C41.0583 32.7656 38.8803 34.9438 36.2031 34.9438C33.5259 34.9438 31.3479 32.7657 31.3479 30.0885C31.3479 29.2887 31.5435 28.5342 31.8875 27.8682L27.62 23.5772C27.1024 23.888 26.5357 24.1249 25.9348 24.2744V44.6297C25.9348 44.6323 25.9347 44.6348 25.9347 44.6374C25.9389 48.1464 28.7947 50.9999 32.3046 50.9999C34.9067 50.9999 37.1481 49.4308 38.1358 47.1897C34.1554 46.6816 31.0677 43.2752 31.0677 39.1589H34.0564C34.0564 41.9765 36.3487 44.2688 39.1662 44.2688C41.9838 44.2688 44.2761 41.9765 44.2761 39.1589V37.9637H41.8047V34.9749H44.8878C47.0894 34.9749 48.8805 33.1838 48.8805 30.9822C48.8806 28.785 47.0962 26.9967 44.9004 26.99Z" fill="#60C6B1"/>
<path d="M38.0698 30.0885C38.0698 29.0593 37.2326 28.222 36.2033 28.222C35.1742 28.222 34.3369 29.0594 34.3369 30.0885C34.3369 31.1176 35.1742 31.955 36.2033 31.955C37.2326 31.955 38.0698 31.1177 38.0698 30.0885Z" fill="#60C6B1"/>
<path d="M27.6483 18.2608C27.6483 16.4916 26.209 15.0522 24.4398 15.0522C22.6707 15.0522 21.2314 16.4916 21.2314 18.2608C21.2314 20.0299 22.6707 21.4692 24.4398 21.4692C26.209 21.4692 27.6483 20.0299 27.6483 18.2608Z" fill="#60C6B1"/>
</svg>
