<svg width="53" height="50" viewBox="0 0 53 50" fill="none" xmlns="http://www.w3.org/2000/svg">
<path d="M38.0025 32.4928C37.9097 32.2397 37.8338 32.0034 37.7747 31.7756C37.7663 31.7334 37.7494 31.6912 37.7409 31.6491C37.6819 31.4212 37.6313 31.2019 37.5975 31.0078C37.5975 31.0078 37.5975 30.9909 37.5975 30.9825C37.5469 30.6703 37.5131 30.3666 37.4794 30.0712C37.4625 29.9616 37.4456 29.835 37.4372 29.7253C37.4119 29.4891 37.4119 29.2697 37.395 29.0419C37.3866 28.8731 37.3697 28.7044 37.3697 28.5441C37.3697 28.3247 37.3697 28.1222 37.3866 27.9112C37.3866 27.7594 37.3866 27.5906 37.395 27.4387C37.4119 27.2278 37.4372 27.0337 37.4625 26.8397C37.4794 26.7047 37.4878 26.5528 37.5131 26.4178C37.5469 26.2153 37.5975 26.0297 37.6481 25.8441C37.6734 25.7259 37.6987 25.5994 37.7325 25.4812C37.7916 25.2956 37.8591 25.1184 37.9266 24.9497C37.9688 24.84 38.0025 24.7303 38.0447 24.6291C38.1206 24.4603 38.2134 24.3 38.2978 24.1397C38.3484 24.0469 38.3906 23.9456 38.4497 23.8612C38.5425 23.7094 38.6606 23.5659 38.7703 23.4225C38.8294 23.3466 38.88 23.2622 38.9391 23.1947C38.9391 23.1947 38.9475 23.1863 38.9559 23.1778C38.9644 23.1694 38.9728 23.1525 38.9813 23.1441C39.1669 22.9247 39.3694 22.7391 39.5634 22.5703C39.5634 22.5703 39.5803 22.5534 39.5887 22.5534C39.8081 22.3678 40.0275 22.2159 40.2469 22.0809C41.3775 21.3891 42.4997 21.2541 42.9637 21.2288H43.1409C43.2928 21.2119 44.0859 21.1444 45.0816 21.4059C44.4909 9.53438 34.5516 0 22.5703 0C10.5891 0 0 10.0913 0 22.5281C0 34.965 10.1081 45.0647 22.5366 45.0647C29.3794 45.0647 35.7412 42.0356 40.0275 36.7369C39.1247 35.1591 38.4328 33.7078 38.0025 32.5097C38.0025 32.5097 38.0025 32.4928 37.9941 32.4844L38.0025 32.4928ZM36.3909 13.8459L32.2397 15.2634L31.1175 17.2631C32.0372 17.4488 32.8725 17.955 33.4209 18.6891C34.2984 19.8703 34.3659 21.3806 34.4334 22.7138C34.4588 23.3297 34.4841 23.9625 34.3406 24.6038C34.02 26.0466 32.7713 27.2362 31.3116 27.5062C30.9825 27.5653 30.6619 27.5822 30.3497 27.5991C29.9616 27.6159 29.5903 27.6497 29.2612 27.7509L30.1219 29.1937L32.6194 28.9997C33.1172 28.9659 33.5981 29.1178 33.9778 29.4384C34.3575 29.7591 34.5853 30.2147 34.6275 30.7041C34.7034 31.7334 33.9272 32.6362 32.9062 32.7122L30.6788 32.8894L29.9784 36.5006C29.8097 37.395 29.025 38.0194 28.1391 38.0194C28.0209 38.0194 27.9028 38.0109 27.7931 37.9856C26.7806 37.7916 26.1141 36.8128 26.3081 35.8003L27.1434 31.4888L25.8441 29.295C25.4053 29.6409 24.8569 29.835 24.3084 29.835C23.8106 31.2441 22.3931 32.2734 20.8828 32.2734C20.8491 32.2734 20.8237 32.2734 20.79 32.2734C20.0306 32.2481 19.2966 31.9528 18.6806 31.455L18.1069 32.7206L19.6931 34.6528C20.0053 35.0325 20.1572 35.5219 20.1066 36.0197C20.0559 36.5175 19.8197 36.9647 19.44 37.2853C19.0941 37.5637 18.6806 37.6987 18.2587 37.6987C17.7188 37.6987 17.1788 37.4625 16.8075 37.0153L15.39 35.2856L12.0319 36.7875C11.0869 37.2009 9.98156 36.7706 9.56812 35.8341C9.36563 35.3869 9.34875 34.8722 9.52594 34.4081C9.70312 33.9356 10.0575 33.5728 10.5131 33.3703L14.5378 31.59L15.0356 30.4847C14.6053 30.4509 14.1834 30.3666 13.7953 30.2062C12.3694 29.6156 11.3653 28.1728 11.2894 26.6203C11.2809 26.3503 11.2894 26.0719 11.3062 25.8019C11.3316 25.3463 11.3569 24.9159 11.2387 24.5447C11.1291 24.2072 10.9012 23.9119 10.665 23.5913C10.5216 23.3972 10.3697 23.2031 10.2516 23.0006C9.3825 21.5831 9.54281 19.6425 10.6144 18.3938C11.1628 17.7441 11.9559 17.3053 12.8419 17.1281L12.0656 15.9722L9.585 16.3097C9.08719 16.3856 8.59781 16.2506 8.20125 15.9469C7.80469 15.6431 7.55156 15.2044 7.48406 14.7066C7.41656 14.2088 7.54313 13.7194 7.84688 13.3228C8.15063 12.9263 8.58938 12.6731 9.08719 12.6056L11.3147 12.3103L11.8125 8.65688C11.9475 7.63594 12.9009 6.92719 13.9134 7.06219C14.9344 7.19719 15.6431 8.14219 15.5081 9.16313L14.9175 13.5084L16.2169 15.4406C16.875 14.8163 17.6681 14.3859 18.5034 14.2172C20.0475 13.905 21.7687 14.4788 22.8487 15.6347C23.8022 14.6897 25.2619 14.2762 26.5697 14.6222C27.0675 14.7572 27.54 14.9934 27.945 15.3225L28.7887 13.8206L27.3797 11.7534C26.8059 10.9012 27.0253 9.73688 27.8691 9.16313C28.2825 8.87625 28.7803 8.775 29.2697 8.86781C29.7591 8.96063 30.1894 9.23906 30.4678 9.6525L31.725 11.5003L35.2013 10.3022C35.6738 10.1419 36.18 10.1756 36.6272 10.395C37.0744 10.6144 37.4119 10.9941 37.5722 11.4666C37.9012 12.4453 37.3781 13.5084 36.4078 13.8459H36.3909Z" fill="#60C6B1"/>
<path d="M43.462 35.1505C41.0235 31.5984 39.5892 28.8562 39.0745 26.7637C39.0576 26.6962 39.0492 26.6455 39.0407 26.6034V26.5865C39.0407 26.5865 39.0407 26.5865 39.0407 26.578C39.0323 26.5274 39.0239 26.4684 39.0154 26.4093C38.9226 25.9199 38.8889 25.4559 38.931 25.0087C38.931 25.0002 38.931 24.9918 38.931 24.9834C38.931 24.899 38.9479 24.8146 38.9564 24.7387C38.2054 26.2237 38.0367 28.2655 38.467 30.8474C38.7286 32.4421 40.146 35.3952 42.0782 38.3821C42.846 39.5802 43.6898 40.8205 44.5842 42.0693C46.5839 44.879 48.6089 47.4946 49.807 49.0134C49.5201 47.638 49.1826 46.5327 49.1742 46.5159C49.1235 46.3471 49.1742 46.1615 49.3092 46.0434C49.4442 45.9252 49.6298 45.8999 49.7901 45.9759C50.2204 46.1784 51.3511 46.4399 52.3045 46.634C50.3639 44.2715 48.0351 41.3943 45.9679 38.6521C45.0482 37.4287 44.196 36.2474 43.4535 35.159L43.462 35.1505Z" fill="#60C6B1"/>
<path d="M36.6272 47.4441C37.5553 47.1488 38.6522 46.7691 39.0572 46.5244C39.1247 46.4822 39.2091 46.4653 39.285 46.4653C39.3778 46.4653 39.4706 46.4906 39.5466 46.5497C39.69 46.6509 39.7659 46.8281 39.7322 47.0053C39.7322 47.0222 39.5128 48.1528 39.3609 49.5534C40.365 47.9588 42.0441 45.2587 43.6978 42.3478C43.0059 41.3691 42.3478 40.4072 41.7234 39.4622C40.0444 42.2297 38.1966 45.0731 36.6272 47.4441Z" fill="#60C6B1"/>
<path d="M47.7389 26.1562C47.7389 26.1562 47.7389 26.2322 47.722 26.2912C47.4267 28.409 46.3298 31.2103 44.3555 34.8806C44.9377 35.7159 45.5705 36.6103 46.2539 37.53C47.6883 34.5937 48.6502 31.8094 48.743 30.3075C48.8948 27.7003 48.5152 25.6837 47.6208 24.2831C47.6377 24.359 47.663 24.4434 47.6798 24.5278C47.6798 24.5362 47.6798 24.5447 47.6883 24.5615C47.7895 25.0509 47.8064 25.5909 47.7473 26.1562H47.7389Z" fill="#60C6B1"/>
<path d="M43.1667 22.1063C41.2008 22.2076 39.9858 23.296 39.8255 25.0932C39.8086 25.2451 39.8086 25.397 39.8086 25.5488C40.7114 24.8148 41.918 24.3507 43.2089 24.2748C44.5505 24.1904 45.8414 24.5195 46.8708 25.1945C46.8623 25.0342 46.837 24.8823 46.8117 24.7388C46.4742 23.0345 45.293 22.1063 43.4705 22.1063C43.3692 22.1063 43.2764 22.1063 43.1752 22.1063H43.1667Z" fill="#60C6B1"/>
<path d="M30.3584 18.073C29.9281 18.073 29.4978 18.1574 29.1265 18.3514C29.0675 18.3852 28.9915 18.4021 28.924 18.4021C28.8481 18.4021 28.7806 18.3852 28.7131 18.3514C28.5865 18.2839 28.4937 18.1489 28.4853 18.0055C28.4178 17.4064 28.1393 16.8158 27.7006 16.3433C27.3209 15.9299 26.8315 15.6261 26.3084 15.4911C25.1778 15.1874 23.8615 15.6514 23.1781 16.5964C23.0937 16.7146 22.9587 16.7821 22.8153 16.7821C22.6718 16.7821 22.5368 16.7146 22.4525 16.5964C21.6171 15.4321 20.0562 14.8246 18.6556 15.103C17.9384 15.2464 17.2381 15.643 16.6896 16.1999C16.639 16.2589 16.5715 16.3349 16.5209 16.4108C16.4365 16.5289 16.369 16.6386 16.31 16.7399C16.04 17.1618 15.7362 17.6427 15.2131 17.8536C15.0865 17.9043 14.96 17.938 14.825 17.9549C14.7828 17.9549 14.749 17.9633 14.7068 17.9718C14.614 17.9802 14.5128 17.9886 14.42 17.9886C14.4031 17.9886 14.3862 17.9886 14.3693 17.9886C14.344 17.9886 14.3272 17.9886 14.3018 17.9886C14.1584 17.9886 14.0234 17.9886 13.8884 17.9718L13.61 17.9549C13.399 17.938 13.2387 17.9464 13.1122 17.9633C12.3781 18.0814 11.7115 18.4443 11.2812 18.9589C10.4628 19.9124 10.3362 21.4396 10.9943 22.5111C11.104 22.6883 11.2306 22.8571 11.3656 23.0343C11.6356 23.3971 11.9225 23.7768 12.0743 24.2493C12.2515 24.7893 12.2178 25.3293 12.1925 25.8524C12.1756 26.0971 12.1587 26.3418 12.1756 26.578C12.2346 27.7677 13.0362 28.9236 14.1331 29.3793C14.6056 29.5818 15.1371 29.6493 15.6771 29.5902C15.7615 29.5818 15.8543 29.5564 15.9387 29.548C16.5293 29.4468 17.0693 29.1936 17.4828 28.8055C17.5334 28.7549 17.6009 28.7296 17.6768 28.7127C17.6937 28.7127 17.7106 28.7127 17.7275 28.7043C17.7443 28.7043 17.7696 28.6958 17.7865 28.6958C17.8371 28.6958 17.8878 28.7043 17.9384 28.7211C18.0987 28.7802 18.2084 28.9152 18.2337 29.0755C18.3096 29.5649 18.529 30.0289 18.875 30.4086C19.3896 30.9993 20.1068 31.3536 20.824 31.3789C22.0559 31.4296 23.2878 30.4593 23.5493 29.2527C23.5746 29.1346 23.6506 29.0333 23.7518 28.9658C23.8531 28.8983 23.9796 28.8814 24.0978 28.9068C24.6209 29.0333 25.2368 28.7802 25.5743 28.3077C25.6925 28.1558 25.7684 27.9786 25.8022 27.8014C25.8359 27.6327 25.9709 27.4977 26.1396 27.4555C26.3084 27.4218 26.4856 27.4724 26.5953 27.6158C26.7556 27.8183 27.1606 27.793 27.4643 27.6664C27.6753 27.5821 27.8525 27.4639 28.0381 27.3543C28.1562 27.2783 28.2828 27.2024 28.4009 27.1349C28.5443 27.0589 28.6793 26.9999 28.8143 26.9408C29.3206 26.7468 29.8268 26.7214 30.3246 26.6961C30.62 26.6793 30.8984 26.6708 31.1684 26.6202C32.2821 26.4177 33.2356 25.5064 33.4803 24.4096C33.5984 23.878 33.5731 23.3127 33.5478 22.7558C33.4887 21.5577 33.4212 20.1908 32.7125 19.2205C32.1978 18.5286 31.3118 18.0899 30.4006 18.073H30.3584ZM15.9303 23.9539C14.6562 23.9539 13.61 22.9161 13.61 21.6336C13.61 20.3511 14.6478 19.3133 15.9303 19.3133C17.2128 19.3133 18.2506 20.3511 18.2506 21.6336C18.2506 22.9161 17.2128 23.9539 15.9303 23.9539ZM21.1193 28.2233C19.7693 28.2233 18.6809 27.1264 18.6809 25.7849C18.6809 24.4433 19.7778 23.3464 21.1193 23.3464C22.4609 23.3464 23.5578 24.4433 23.5578 25.7849C23.5578 27.1264 22.4609 28.2233 21.1193 28.2233ZM24.9753 22.8739C23.6253 22.8739 22.5284 21.7771 22.5284 20.4271C22.5284 19.0771 23.6253 17.9886 24.9753 17.9886C26.3253 17.9886 27.4137 19.0855 27.4137 20.4271C27.4137 21.7686 26.3168 22.8739 24.9753 22.8739Z" fill="#60C6B1"/>
<path d="M36.2049 11.1967C35.9687 11.0786 35.7071 11.0617 35.4624 11.1461L31.6571 12.4539C31.463 12.5214 31.2521 12.4539 31.1424 12.2851L29.6912 10.1504C29.5393 9.93951 29.3199 9.78764 29.0668 9.74545C28.8052 9.69482 28.5521 9.74545 28.3412 9.89732C27.9024 10.2011 27.7843 10.8001 28.088 11.2473L29.649 13.5423C29.7418 13.6858 29.7502 13.8629 29.6658 14.0148L28.5605 15.9808C28.8812 16.3858 29.1174 16.8498 29.2524 17.3308C29.5308 17.2464 29.8177 17.1958 30.113 17.1789L31.5305 14.6645C31.5812 14.5717 31.674 14.4958 31.7752 14.462L36.0868 12.9939C36.6015 12.8167 36.863 12.2683 36.6943 11.7536C36.6099 11.5089 36.4412 11.3148 36.2049 11.1967Z" fill="#60C6B1"/>
<path d="M13.9384 17.0692C14.2928 17.0945 14.6218 17.1114 14.8581 17.0185C15.1281 16.9089 15.3306 16.5882 15.5415 16.2507C15.5584 16.2254 15.5753 16.2001 15.5921 16.1748L14.0396 13.8714C13.9806 13.7785 13.9553 13.6689 13.9637 13.5592L14.5796 9.03667C14.6556 8.50511 14.2843 8.01573 13.7528 7.94823C13.2296 7.8723 12.7318 8.24355 12.6643 8.77511L12.1243 12.766C12.099 12.9685 11.9387 13.1204 11.7362 13.1542L9.1712 13.4917C8.91807 13.5254 8.69026 13.6604 8.52995 13.8629C8.36964 14.0654 8.30214 14.327 8.34432 14.5801C8.37807 14.8417 8.51307 15.0695 8.71557 15.2214C8.91807 15.3817 9.17964 15.4407 9.43276 15.407L12.1918 15.0357C12.3606 15.0104 12.5293 15.0864 12.6221 15.2298L13.8624 17.0692H13.9384Z" fill="#60C6B1"/>
<path d="M17.1616 32.6108L17.9969 30.7714C17.7944 30.5014 17.6256 30.2061 17.516 29.8939C17.0688 30.1724 16.5541 30.3664 16.0141 30.4508L15.2547 32.1214C15.2125 32.2227 15.1281 32.2986 15.0269 32.3493L10.8503 34.1971C10.6141 34.2983 10.4369 34.4924 10.3441 34.7371C10.2513 34.9818 10.2597 35.2433 10.3694 35.4796C10.5888 35.9689 11.1625 36.1883 11.6519 35.9774L15.3222 34.3405C15.3813 34.3152 15.4403 34.2983 15.5078 34.2983C15.6428 34.2983 15.7694 34.3574 15.8538 34.4671L17.4822 36.4583C17.8197 36.8718 18.4356 36.9393 18.8575 36.6018C19.0516 36.4414 19.1781 36.2052 19.2035 35.9436C19.2288 35.6821 19.1528 35.4289 18.9925 35.2349L17.2291 33.0833C17.1194 32.9483 17.0941 32.7711 17.17 32.6108H17.1616Z" fill="#60C6B1"/>
<path d="M27.8012 28.4767C27.4046 28.6539 26.8899 28.7129 26.4512 28.5695L27.9952 31.1683C28.0543 31.2611 28.0712 31.3792 28.0459 31.4804L27.1768 35.9608C27.0755 36.4839 27.4215 36.9986 27.9446 37.0998C28.4677 37.1926 28.9824 36.8551 29.0837 36.332L29.843 32.3833C29.8852 32.1808 30.0455 32.0373 30.248 32.0204L32.8215 31.8179C33.353 31.7758 33.7496 31.3117 33.7159 30.7717C33.6905 30.5101 33.5724 30.2823 33.3784 30.1136C33.1843 29.9448 32.9396 29.8689 32.678 29.8858L29.9021 30.0967C29.7334 30.1136 29.573 30.0208 29.4802 29.8773L28.434 28.1308C28.2315 28.2573 28.029 28.3839 27.7927 28.4767H27.8012Z" fill="#60C6B1"/>
<path d="M15.93 23.0597C16.7129 23.0597 17.3475 22.4251 17.3475 21.6422C17.3475 20.8593 16.7129 20.2247 15.93 20.2247C15.1471 20.2247 14.5125 20.8593 14.5125 21.6422C14.5125 22.4251 15.1471 23.0597 15.93 23.0597Z" fill="#60C6B1"/>
<path d="M24.9747 18.8832C24.1225 18.8832 23.4307 19.5751 23.4307 20.4273C23.4307 21.2795 24.1225 21.9713 24.9747 21.9713C25.8269 21.9713 26.5188 21.2795 26.5188 20.4273C26.5188 19.5751 25.8269 18.8832 24.9747 18.8832Z" fill="#60C6B1"/>
<path d="M21.1191 27.3206C21.9718 27.3206 22.6631 26.6293 22.6631 25.7766C22.6631 24.9238 21.9718 24.2325 21.1191 24.2325C20.2663 24.2325 19.575 24.9238 19.575 25.7766C19.575 26.6293 20.2663 27.3206 21.1191 27.3206Z" fill="#60C6B1"/>
</svg>
