<svg width="40" height="49" viewBox="0 0 40 49" fill="none" xmlns="http://www.w3.org/2000/svg">
<path fill-rule="evenodd" clip-rule="evenodd" d="M38.0633 49.0012H33.0398L29.7387 27.7879L30.198 27.6157C31.0592 27.3573 31.7768 26.7832 32.2361 26.0082C32.6954 25.1757 32.8389 24.1998 32.5806 23.2812C32.0926 21.3866 30.1119 20.2384 28.2173 20.7551C27.471 20.9561 26.7821 21.3866 26.3228 21.9894L26.0644 22.3339L25.6626 22.1904C24.9449 21.9033 24.1412 21.8459 23.3948 22.0469C22.4763 22.2765 21.7012 22.8793 21.2132 23.7118C20.754 24.5442 20.6104 25.4915 20.8688 26.4388C21.1271 27.3573 21.7012 28.1324 22.5337 28.5917C23.2513 29.0223 24.0838 29.1658 24.8875 29.0223L25.4616 28.9361L28.5905 49.0012H20.6391C20.0363 49.0012 19.577 48.5132 19.5483 47.9391C18.7733 30.6298 12.6016 25.9221 11.8266 25.4054C-0.832456 21.5302 1.00469 5.74223 1.03339 5.57C1.0908 5.13942 1.40656 4.76625 1.83714 4.65143L9.04218 2.72817L16.7639 14.2677L16.4195 14.5835C14.9842 15.8752 14.8407 18.0855 16.075 19.5495C16.6778 20.2671 17.539 20.7264 18.4862 20.8125H18.8307C19.6632 20.8125 20.4669 20.5255 21.0984 19.9801C21.7012 19.4921 22.1318 18.8319 22.304 18.0568L22.3902 17.6549L22.8207 17.6262C23.5958 17.5975 24.3421 17.2818 24.9162 16.7938C25.6626 16.191 26.1219 15.3298 26.208 14.3825C26.2941 13.4066 25.9783 12.488 25.3755 11.7703C24.7727 11.024 23.9115 10.5647 22.9356 10.4786C22.1318 10.4212 21.3281 10.6221 20.6391 11.0814L20.1511 11.3972L13.5202 1.52255L19.0603 0.0298684C19.29 -0.0275422 19.5483 0.00116309 19.778 0.0872791C38.6948 8.69888 39.1541 22.133 39.1541 22.7071V47.8817C39.1541 48.4845 38.6661 49.0012 38.0633 49.0012ZM10.1043 2.44112L12.4581 1.8096L19.6919 12.6028C19.778 12.7463 19.9502 12.8324 20.1224 12.8324C20.2947 12.8324 20.4669 12.7463 20.553 12.6028C20.6678 12.4306 20.8401 12.2583 21.0123 12.1148C21.529 11.6842 22.1892 11.4833 22.8494 11.5407C23.5384 11.5981 24.1412 11.9139 24.5718 12.4306C25.0023 12.9473 25.2033 13.6075 25.1459 14.2677C25.0885 14.9566 24.7727 15.5595 24.256 15.99C23.6245 16.5067 22.792 16.7077 21.9883 16.5067C21.8448 16.478 21.6438 16.5067 21.529 16.6215C21.4142 16.7077 21.3281 16.8799 21.3568 17.0521C21.4142 17.8559 21.0697 18.6596 20.4382 19.1763C19.9215 19.6356 19.2613 19.8365 18.6011 19.7791C17.9121 19.7217 17.3093 19.3773 16.8787 18.8606C15.9889 17.7985 16.1324 16.191 17.1945 15.3011C17.3667 15.1576 17.5677 15.0428 17.7686 14.9566C17.8834 14.8705 17.9982 14.7557 18.0557 14.6122C18.0844 14.4686 18.0557 14.2964 17.9695 14.1816L10.1043 2.44112ZM31.9777 49.0012H29.6526L26.3802 28.075C26.3515 27.9027 26.2367 27.7305 26.0931 27.6731C25.9209 27.587 25.7487 27.6157 25.6052 27.7018C25.4042 27.7879 25.2033 27.874 24.9736 27.9602C24.3421 28.1324 23.6532 28.0176 23.0504 27.7018C22.4763 27.3573 22.0457 26.8119 21.8735 26.1517C21.7012 25.4915 21.7873 24.8026 22.1318 24.2285C22.4763 23.6544 23.0217 23.2238 23.6819 23.0515C24.4569 22.8506 25.3181 23.0228 25.9496 23.5395C26.0644 23.6544 26.2367 23.6831 26.4089 23.6544C26.5811 23.5969 26.696 23.4821 26.7534 23.3099C27.0404 22.5636 27.6719 21.9894 28.4757 21.7598C29.8248 21.4153 31.2314 22.2191 31.5759 23.5682C31.7481 24.1998 31.662 24.8887 31.3175 25.4915C30.9731 26.0656 30.4277 26.4962 29.7961 26.6684C29.5665 26.7258 29.3368 26.7545 29.1072 26.7545C28.9637 26.7545 28.8202 26.8119 28.734 26.9268C28.6192 27.0416 28.5905 27.1851 28.5905 27.3573L31.9777 49.0012Z" fill="#60C6B1"/>
<path fill-rule="evenodd" clip-rule="evenodd" d="M7.11892 43.949C3.18629 43.949 0 40.7627 0 36.8588C0 32.9262 3.18629 29.7399 7.11892 29.7399C11.0228 29.7399 14.2091 32.9262 14.2091 36.8588C14.2091 40.7627 11.0228 43.949 7.11892 43.949ZM7.11892 40.447C7.46339 40.447 7.72173 40.1886 7.72173 39.8442V37.4616H10.1043C10.4487 37.4616 10.7071 37.2033 10.7071 36.8588C10.7071 36.5143 10.4487 36.2273 10.1043 36.2273H7.72173V33.8735C7.72173 33.529 7.46339 33.2419 7.11892 33.2419C6.77446 33.2419 6.48741 33.529 6.48741 33.8735V36.2273H4.13357C3.7891 36.2273 3.50205 36.5143 3.50205 36.8588C3.50205 37.2033 3.7891 37.4616 4.13357 37.4616H6.48741V39.8442C6.48741 40.1886 6.77446 40.447 7.11892 40.447Z" fill="#60C6B1"/>
</svg>
