<svg width="43" height="51" viewBox="0 0 43 51" fill="none" xmlns="http://www.w3.org/2000/svg">
<path d="M6.60034 18.9749C6.69037 18.9749 11.6104 20.9449 13.1003 21.6149L14.2104 20.9349C16.7903 19.3449 18.3904 18.5349 21.9103 18.0649C22.4404 18.0049 22.7203 18.0049 22.7704 18.0049H22.7804C23.0403 18.0049 23.3004 18.0249 23.5504 18.075C23.8904 17.4349 24.1703 16.7549 24.3604 16.0349C24.5904 15.205 24.7104 14.3349 24.7104 13.4349C24.7104 12.1949 24.4803 10.9949 24.0604 9.90491C23.7248 9.01355 23.2567 8.19061 22.6913 7.44586C23.7376 6.71838 24.431 5.47412 24.431 4.06055C24.431 1.82178 22.6967 0 20.5648 0C20.2562 0 19.9486 0.0385742 19.6508 0.114746C19.1156 0.250977 18.7924 0.79541 18.9291 1.33057C19.0658 1.86523 19.6078 2.19141 20.1449 2.05225C20.2816 2.01758 20.4227 2 20.5648 2C21.5941 2 22.431 2.92432 22.431 4.06055C22.431 4.91577 21.9565 5.65009 21.2831 5.96149C21.1602 5.85474 21.0485 5.7356 20.9203 5.63495C19.2404 4.31494 17.1204 3.5249 14.8104 3.5249C10.5904 3.5249 6.98035 6.17493 5.55035 9.90491C5.13037 10.9949 4.90039 12.1949 4.90039 13.4349C4.90039 14.3349 5.02039 15.205 5.25037 16.0349C5.54034 17.1049 6.00037 18.0949 6.60034 18.9749ZM18.9203 8.98492C20.7303 8.98492 22.2004 10.455 22.2004 12.265C22.2004 12.8149 21.7604 13.265 21.2004 13.265C20.6504 13.265 20.2004 12.8149 20.2004 12.265C20.2004 11.5549 19.6304 10.9849 18.9203 10.9849C18.2203 10.9849 17.6404 11.5549 17.6404 12.265C17.6404 12.8149 17.2004 13.265 16.6404 13.265C16.0904 13.265 15.6404 12.8149 15.6404 12.265C15.6404 10.455 17.1204 8.98492 18.9203 8.98492ZM10.6904 8.98492C12.5004 8.98492 13.9703 10.455 13.9703 12.265C13.9703 12.8149 13.5204 13.265 12.9703 13.265C12.4203 13.265 11.9703 12.8149 11.9703 12.265C11.9703 11.5549 11.4004 10.9849 10.6904 10.9849C9.98035 10.9849 9.41034 11.5549 9.41034 12.265C9.41034 12.8149 8.96039 13.265 8.41034 13.265C7.86035 13.265 7.41034 12.8149 7.41034 12.265C7.41034 10.455 8.88037 8.98492 10.6904 8.98492Z" fill="#60C6B1"/>
<path d="M3.58002 9.30469C1.60999 9.30469 0 10.8947 0 12.8747C0 14.7447 1.46002 16.2947 3.28998 16.4347C3.03003 15.4747 2.90002 14.4647 2.90002 13.4347C2.90002 12.0047 3.14001 10.6147 3.64001 9.30469H3.58002Z" fill="#60C6B1"/>
<path d="M26.3198 16.4347C28.1498 16.2947 29.6097 14.7447 29.6097 12.8747C29.6097 10.8947 27.9998 9.30469 26.0397 9.30469C26.0198 9.30469 25.9897 9.30469 25.9697 9.3147C26.4598 10.6147 26.7098 12.0047 26.7098 13.4347C26.7098 14.4547 26.5798 15.4647 26.3198 16.4347Z" fill="#60C6B1"/>
<path d="M15.6403 41.7549C15.6403 41.7049 15.6403 41.6548 15.6503 41.6049C14.2902 41.1849 13.3102 39.9249 13.3102 38.4249C13.3102 36.5848 14.8002 35.0848 16.6403 35.0848C18.4902 35.0848 19.9802 36.5848 19.9802 38.4249C19.9802 39.9249 18.9902 41.1949 17.6302 41.6049C17.6403 41.6548 17.6403 41.7049 17.6403 41.7549C17.6403 43.0449 18.6902 44.0848 19.9802 44.0848H24.9702C25.0703 43.6049 25.1202 43.1149 25.1202 42.6149V34.6249C23.1902 30.3348 18.8102 26.9849 14.8102 24.6749C14.7003 24.6149 14.6002 24.5549 14.4902 24.4949C14.2603 24.3649 14.0203 24.2349 13.7902 24.1049C13.2502 23.8948 6.83026 20.9648 6.83026 20.9648C5.54022 20.9648 4.49023 22.0149 4.49023 23.3049V42.6149C4.49023 46.8549 7.93024 50.2949 12.1702 50.2949H17.4503C20.4402 50.2949 23.0303 48.5848 24.2902 46.0848H19.9802C17.5903 46.0848 15.6403 44.1448 15.6403 41.7549Z" fill="#60C6B1"/>
<path d="M22.7798 20.0049C22.7798 20.0049 22.5698 20.0049 22.1797 20.0449C19.0698 20.4648 17.7698 21.0848 15.2598 22.6349L15.7698 22.9149C19.9197 25.3149 23.0497 27.9249 25.1198 30.7249V22.3448C25.1198 21.7049 24.8597 21.1149 24.4297 20.6949C24.0098 20.2649 23.4297 20.0049 22.7798 20.0049Z" fill="#60C6B1"/>
<path d="M41.7578 19.1182H38.4365C37.8838 19.1182 37.4365 19.5659 37.4365 20.1182C37.4365 20.6704 37.8838 21.1182 38.4365 21.1182H40.7578V25.4424C40.7578 27.9619 38.708 30.0117 36.1758 30.0117C33.6553 30.0117 31.6055 27.9619 31.6055 25.4424V21.1182H33.9141C34.4668 21.1182 34.9141 20.6704 34.9141 20.1182C34.9141 19.5659 34.4668 19.1182 33.9141 19.1182H30.6055C30.0527 19.1182 29.6055 19.5659 29.6055 20.1182V25.4424C29.6055 28.7224 32.0242 31.4403 35.18 31.9266V40.9249C35.18 41.3349 34.84 41.6749 34.43 41.6749C34.02 41.6749 33.68 41.3349 33.68 40.9249V37.0849C33.68 35.4349 32.34 34.0849 30.68 34.0849C29.03 34.0849 27.68 35.4349 27.68 37.0849V41.7549C27.68 43.0449 26.63 44.0849 25.35 44.0849L24.9702 44.0848C24.8403 44.7849 24.6102 45.4648 24.2902 46.0848L25.35 46.0849C27.74 46.0849 29.68 44.1449 29.68 41.7549V37.0849C29.68 36.5349 30.13 36.0849 30.68 36.0849C31.23 36.0849 31.68 36.5349 31.68 37.0849V40.9249C31.68 42.4349 32.92 43.6749 34.43 43.6749C35.95 43.6749 37.18 42.4349 37.18 40.9249V31.9286C40.3321 31.4481 42.7578 28.7271 42.7578 25.4424V20.1182C42.7578 19.5659 42.3105 19.1182 41.7578 19.1182Z" fill="#60C6B1"/>
</svg>
