<svg width="47" height="47" viewBox="0 0 47 47" fill="none" xmlns="http://www.w3.org/2000/svg">
<path d="M35.3213 11.0637C37.4144 11.0637 39.1112 9.3669 39.1112 7.2738C39.1112 5.18069 37.4144 3.48389 35.3213 3.48389C33.2282 3.48389 31.5314 5.18069 31.5314 7.2738C31.5314 9.3669 33.2282 11.0637 35.3213 11.0637Z" fill="#60C6B1"/>
<path d="M46.0128 19.2297L41.4828 14.58L41.448 14.3626C41.2643 13.0202 40.0576 12.0436 38.6924 12.1609C37.0418 12.3029 35.3606 12.4556 33.8366 12.6004C32.8928 12.6901 32.0396 13.1987 31.5112 13.986L27.8896 19.3818H24.4659C24.7485 19.0055 24.8943 18.5206 24.8213 17.9989C24.6917 17.0723 23.8678 16.4001 22.932 16.4001H17.7142L14.8969 12.2288L14.9447 11.9141C15.1561 10.5245 14.2009 9.22678 12.8113 9.01537L9.35467 8.48973C7.96511 8.27841 6.66735 9.23357 6.45603 10.6231L4.63098 22.6261H9.49099L8.42429 22.1091C7.0049 21.4211 6.50019 19.9556 6.57188 19.2064L7.20254 12.6179L8.11887 19.3545C8.19929 19.9451 8.57016 20.4527 9.10213 20.7105L15.4744 23.799C16.3082 24.2033 17.3129 23.8954 17.7774 23.0986C18.3022 22.1985 17.9434 21.0566 17.0205 20.6092L11.5034 17.9351L10.6735 11.8347L12.7148 16.7954C14.7958 17.8041 14.3979 17.6111 17.6982 19.2108C18.1533 19.4314 18.5436 19.7455 18.8495 20.1298H21.138C20.8555 20.5063 20.7096 20.9912 20.7827 21.5131C20.9125 22.4396 21.7364 23.1116 22.672 23.1116H28.8804C29.5 23.1116 30.079 22.8039 30.4259 22.2905L32.1868 19.6831C32.2634 20.5732 32.7967 26.7766 32.8628 27.5465L30.0307 33.8136C29.9738 33.9394 29.9297 34.0707 29.899 34.2053L27.5626 44.482C27.3103 45.5916 28.0054 46.6958 29.115 46.948C30.2252 47.2003 31.3289 46.5048 31.5811 45.3956L33.8714 35.3216L37.1591 28.0466L38.2459 27.9532C38.2332 28.0336 37.0665 35.4655 37.0761 35.4038C37.0208 35.7562 37.0579 36.1171 37.1838 36.451L40.6596 45.666C41.0617 46.7325 42.2517 47.2679 43.3146 46.8667C44.3793 46.4652 44.917 45.2764 44.5153 44.2117L41.2318 35.5052L42.0576 30.2455C40.5818 29.6378 39.7026 28.0409 40.0499 26.4268C40.276 25.3761 40.9384 22.2973 41.1669 21.2351L38.3535 16.2892L42.9107 20.9667L41.6613 26.7735C41.4619 27.7012 42.0521 28.6138 42.9788 28.8133C43.9088 29.0136 44.8204 28.4171 45.0186 27.4958L46.4616 20.7891C46.5853 20.2144 46.4027 19.6299 46.0128 19.2297Z" fill="#60C6B1"/>
<path d="M13.8869 7.72871C16.0212 7.72871 17.7513 5.99858 17.7513 3.86436C17.7513 1.73013 16.0212 0 13.8869 0C11.7527 0 10.0226 1.73013 10.0226 3.86436C10.0226 5.99858 11.7527 7.72871 13.8869 7.72871Z" fill="#60C6B1"/>
<path d="M23.6525 42.6129H22.1603V29.6165C22.1603 27.2878 20.688 25.2971 18.6258 24.5244C17.6285 25.541 16.0968 25.8279 14.7968 25.1977L12.6977 24.1802H0.472947C0.21178 24.1802 0 24.392 0 24.6532V26.8152C0 27.0764 0.21178 27.2882 0.472947 27.2882H16.724C18.0078 27.2882 19.0523 28.3326 19.0523 29.6165V42.6128H16.9704C17.0649 42.3759 17.1231 42.12 17.1321 41.8505L17.4914 31.0402C17.5042 30.6579 17.4196 30.2785 17.2458 29.9377L16.6872 28.8425H11.6105L12.9522 31.473L12.6122 41.7005C12.6016 42.0229 12.6592 42.3314 12.7717 42.613H7.83034C7.88092 42.486 7.56843 43.3734 11.2887 32.7414C11.4432 32.2999 11.4569 31.8215 11.3281 31.3718L10.6037 28.8427H5.89944L6.78273 31.9263L3.59768 41.0288C3.41005 41.5649 3.43685 42.1238 3.6322 42.6129H0.814071C0.364441 42.6129 0 42.9774 0 43.427V46.1738C0 46.6234 0.364441 46.9879 0.814071 46.9879H23.6524C24.102 46.9879 24.4665 46.6234 24.4665 46.1738V43.427C24.4665 42.9773 24.1021 42.6129 23.6525 42.6129Z" fill="#60C6B1"/>
</svg>
