<svg width="46" height="46" viewBox="0 0 46 46" fill="none" xmlns="http://www.w3.org/2000/svg">
<path fill-rule="evenodd" clip-rule="evenodd" d="M15.3727 11.9802C15.9236 10.8635 16.2045 9.66025 16.2045 8.40219C16.2045 3.93471 12.5697 0.299961 8.10223 0.299961C3.63475 0.299961 0 3.93471 0 8.40219C0 12.8697 3.63475 16.5044 8.10223 16.5044C9.42803 16.5044 10.7379 16.1777 11.9003 15.5601C12.8247 14.1606 14.0031 12.9444 15.3727 11.9802ZM1.29393 19.4937C1.23814 19.8184 1.4543 20.1292 1.78002 20.186C1.80293 20.19 1.82484 20.1929 1.84676 20.1939C2.14658 20.2129 2.41951 20.0037 2.4723 19.7009C2.53904 19.3204 2.61873 18.9379 2.70539 18.5623C2.78109 18.2406 2.58088 17.9199 2.26014 17.8442C1.93939 17.7695 1.61666 17.9687 1.54096 18.2894C1.44932 18.6869 1.36564 19.0923 1.29393 19.4937ZM1.59674 24.9553C1.92545 24.9413 2.18244 24.6624 2.1675 24.3327C2.15057 23.9482 2.14459 23.5568 2.14857 23.1703C2.15256 22.8406 1.88959 22.5676 1.55789 22.5656C1.22719 22.5617 0.957246 22.8266 0.953262 23.1563C0.948281 23.5647 0.955254 23.9771 0.972188 24.3835C0.986133 24.6913 1.23018 24.9354 1.531 24.9543C1.55291 24.9563 1.57482 24.9563 1.59674 24.9553ZM2.45836 29.6499C2.77611 29.5632 2.96438 29.2345 2.87771 28.9167C2.77711 28.5452 2.68547 28.1657 2.60578 27.7882C2.53605 27.4654 2.2193 27.2592 1.89656 27.328C1.57383 27.3967 1.36863 27.7135 1.43637 28.0362C1.52104 28.4346 1.61865 28.8361 1.72424 29.2295C1.79297 29.4825 2.0141 29.6538 2.26313 29.6698C2.32787 29.6728 2.39361 29.6668 2.45836 29.6499ZM4.33102 34.0377C4.62287 33.8833 4.73543 33.5217 4.58104 33.2298C4.40174 32.8892 4.22742 32.5385 4.06605 32.1879C3.92859 31.8881 3.57299 31.7566 3.27316 31.8941C2.97334 32.0325 2.84285 32.3871 2.98031 32.687C3.15064 33.0575 3.33293 33.427 3.52318 33.7876C3.62478 33.9789 3.81404 34.0924 4.01525 34.1054C4.12084 34.1134 4.23141 34.0914 4.33102 34.0377ZM6.69275 38.0529C6.84217 38.0619 6.99557 38.0161 7.11809 37.9125C7.3701 37.6983 7.39998 37.3208 7.18582 37.0698C6.9358 36.7759 6.69076 36.4721 6.45668 36.1643C6.25646 35.9023 5.88193 35.8515 5.61897 36.0518C5.356 36.252 5.30519 36.6265 5.50541 36.8895C5.75344 37.2142 6.01242 37.5349 6.27639 37.8457C6.38596 37.9732 6.53736 38.0439 6.69275 38.0529ZM10.6821 41.088C10.8803 40.825 10.8275 40.4505 10.5646 40.2513C10.2568 40.0192 9.95098 39.7761 9.65613 39.5271C9.40312 39.315 9.02561 39.3468 8.81344 39.5988C8.60127 39.8519 8.63314 40.2284 8.88516 40.4405C9.19793 40.7035 9.52066 40.9615 9.84539 41.2065C9.94201 41.2783 10.0536 41.3171 10.1671 41.3251C10.3604 41.337 10.5566 41.2544 10.6821 41.088ZM28.8529 41.5064H13.6455C13.3636 41.5064 13.1345 41.7365 13.1345 42.0184V45.4091C13.1345 45.692 13.3636 45.9211 13.6455 45.9211H31.3182C31.4646 45.9211 31.5831 45.8025 31.5831 45.6561V44.2367C31.5831 42.7316 30.3589 41.5064 28.8529 41.5064ZM36.7529 39.1914C36.5517 38.9305 36.1761 38.8807 35.9152 39.0829C35.6084 39.3179 35.2926 39.548 34.9748 39.7662C34.7039 39.9544 34.6342 40.325 34.8214 40.5969C34.93 40.7553 35.1013 40.845 35.2796 40.8549C35.4071 40.8619 35.5386 40.829 35.6522 40.7513C35.9879 40.5212 36.3226 40.2782 36.6453 40.0292C36.9063 39.8279 36.9551 39.4524 36.7529 39.1914ZM40.1774 36.6305C40.3886 36.3775 40.3547 36 40.1007 35.7888C39.8477 35.5776 39.4702 35.6115 39.259 35.8645C39.012 36.1613 38.753 36.4542 38.4901 36.7371C38.2649 36.9781 38.2779 37.3566 38.5199 37.5818C38.6255 37.6804 38.758 37.7332 38.8925 37.7411C39.0638 37.7511 39.2391 37.6873 39.3646 37.5519C39.6435 37.254 39.9165 36.9443 40.1774 36.6305ZM42.8848 32.5425C43.0352 32.2487 42.9187 31.8881 42.6258 31.7377C42.332 31.5873 41.9724 31.7028 41.821 31.9957C41.6437 32.3383 41.4564 32.682 41.2612 33.0147C41.0948 33.2995 41.1895 33.6661 41.4754 33.8325C41.559 33.8813 41.6507 33.9082 41.7403 33.9131C41.9585 33.9261 42.1746 33.8185 42.2921 33.6183C42.4993 33.2667 42.6986 32.9051 42.8848 32.5425ZM44.1977 27.2294C43.8779 27.1477 43.5522 27.3389 43.4695 27.6597C43.3729 28.0332 43.2653 28.4097 43.1488 28.7773C43.0482 29.0921 43.2225 29.4277 43.5363 29.5273C43.5851 29.5433 43.6349 29.5522 43.6837 29.5542C43.9496 29.5702 44.2027 29.4048 44.2873 29.1389C44.4098 28.7504 44.5254 28.3529 44.626 27.9575C44.7097 27.6378 44.5174 27.312 44.1977 27.2294ZM44.7445 22.4879C44.4148 22.477 44.1379 22.736 44.1279 23.0657C44.121 23.246 44.114 23.4293 44.103 23.6096C44.0911 23.8147 44.0762 24.0219 44.0582 24.2261C44.0293 24.5548 44.2724 24.8447 44.6011 24.8736C44.6071 24.8736 44.613 24.8746 44.619 24.8746C44.9398 24.8935 45.2207 24.6525 45.2486 24.3297C45.2675 24.1136 45.2834 23.8954 45.2964 23.6783C45.3073 23.488 45.3163 23.2948 45.3223 23.1045C45.3332 22.7758 45.0752 22.4989 44.7445 22.4879ZM44.2495 17.7406C43.9257 17.8013 43.7116 18.1141 43.7733 18.4388C43.8451 18.8163 43.9078 19.2028 43.9576 19.5863C43.9955 19.8752 44.2345 20.0884 44.5134 20.1043C44.5513 20.1063 44.5891 20.1053 44.629 20.1003C44.9557 20.0575 45.1858 19.7567 45.142 19.4299C45.0892 19.0245 45.0234 18.6171 44.9477 18.2177C44.886 17.892 44.5732 17.6788 44.2495 17.7406ZM25.9502 0.726289C25.9044 1.05301 26.1305 1.35582 26.4572 1.40264C26.8397 1.45742 27.2252 1.52316 27.6028 1.59887C27.6426 1.60684 27.6824 1.60982 27.7213 1.60982C28.0002 1.60982 28.2492 1.41359 28.306 1.12971C28.3707 0.805976 28.1606 0.491211 27.8378 0.426464C27.4384 0.346777 27.031 0.27705 26.6266 0.219277C26.2989 0.172461 25.997 0.39957 25.9502 0.726289ZM21.177 0.701386C21.2009 1.01416 21.4628 1.25322 21.7726 1.25322C21.7876 1.25322 21.8035 1.25223 21.8184 1.25123C22.2029 1.22234 22.5934 1.20242 22.9799 1.19445C23.3096 1.18748 23.5716 0.91455 23.5646 0.583847C23.5566 0.25414 23.2857 -0.00683613 22.954 0.000136526C22.5456 0.00910137 22.1332 0.0290231 21.7278 0.059902C21.3981 0.0848043 21.1521 0.372675 21.177 0.701386ZM17.2593 2.11285C17.6279 2.00029 18.0044 1.8957 18.3799 1.80307C18.6997 1.72437 18.8959 1.39965 18.8172 1.0799C18.7375 0.75916 18.4138 0.563925 18.093 0.642617C17.6966 0.740234 17.2982 0.850801 16.9097 0.970332C16.5939 1.06695 16.4166 1.40064 16.5132 1.71641C16.5919 1.97439 16.829 2.13875 17.084 2.13875C17.1428 2.13875 17.2015 2.13078 17.2593 2.11285ZM24.1981 21.8046C23.8684 21.8046 23.6004 21.5377 23.6004 21.207V18.4568H22.0216V21.207C22.0216 21.5377 21.7547 21.8046 21.424 21.8046H18.6738V23.3834H21.424C21.7547 23.3834 22.0216 23.6504 22.0216 23.9811V26.7313H23.6004V23.9811C23.6004 23.6504 23.8684 23.3834 24.1981 23.3834H26.9493V21.8046H24.1981ZM31.2624 22.5945C31.2624 27.2543 27.4713 31.0454 22.8115 31.0454C18.1518 31.0454 14.3607 27.2543 14.3607 22.5945C14.3607 17.9348 18.1518 14.1437 22.8115 14.1437C27.4713 14.1437 31.2624 17.9348 31.2624 22.5945ZM24.7948 20.6103H27.546C27.8757 20.6103 28.1436 20.8783 28.1436 21.208V23.9821C28.1436 24.3118 27.8757 24.5797 27.546 24.5797H24.7948V27.331C24.7948 27.6607 24.5278 27.9286 24.1971 27.9286H21.424C21.0943 27.9286 20.8263 27.6607 20.8263 27.331V24.5797H18.0761C17.7464 24.5797 17.4785 24.3118 17.4785 23.9821V21.208C17.4785 20.8783 17.7464 20.6103 18.0761 20.6103H20.8263V17.8601C20.8263 17.5294 21.0943 17.2624 21.424 17.2624H24.1981C24.5288 17.2624 24.7958 17.5294 24.7958 17.8601L24.7948 20.6103ZM35.1511 22.8774V24.4004C35.1511 24.505 35.179 24.6076 35.2308 24.6983L36.8485 27.5083C36.9909 27.7563 36.9909 28.0183 36.8475 28.2653C36.7041 28.5133 36.4779 28.6438 36.1911 28.6438H35.2946C34.6262 28.6438 34.0813 29.1877 34.0813 29.858V33.8076C34.0813 35.5408 32.6719 36.9502 30.9387 36.9502H27.6018C26.5927 36.9502 25.7719 37.771 25.7719 38.7801V40.312H16.2752V33.2109C16.2752 33.0097 16.1736 32.8214 16.0042 32.7109C12.8088 30.6191 10.9012 27.1029 10.9012 23.3047V22.8764C10.9012 16.1906 16.3399 10.751 23.0267 10.751C29.7125 10.752 35.1511 16.1916 35.1511 22.8774ZM22.8105 12.9494C28.1297 12.9494 32.4567 17.2764 32.4567 22.5955C32.4567 27.9147 28.1297 32.2417 22.8105 32.2417C17.4914 32.2417 13.1644 27.9147 13.1644 22.5955C13.1644 17.2764 17.4924 12.9494 22.8105 12.9494ZM29.4166 8.40219C29.4166 9.50287 29.6338 10.5687 30.0601 11.5708C31.7933 12.6535 33.2606 14.1228 34.3413 15.8579C35.3454 16.2873 36.4142 16.5054 37.5189 16.5054C41.9863 16.5054 45.6211 12.8707 45.6211 8.40318C45.6211 3.9357 41.9863 0.300957 37.5189 0.300957C33.0514 0.300957 29.4166 3.93471 29.4166 8.40219ZM34.175 12.6804C34.175 13.0101 34.4419 13.2781 34.7726 13.2781C35.1023 13.2781 35.3703 13.0101 35.3703 12.6804C35.3703 11.4951 36.3345 10.5298 37.5199 10.5298C38.7052 10.5298 39.6704 11.4941 39.6704 12.6804C39.6704 13.0101 39.9384 13.2781 40.2681 13.2781C40.5978 13.2781 40.8657 13.0101 40.8657 12.6804C40.8657 10.8356 39.3646 9.33453 37.5199 9.33453C35.6751 9.33553 34.175 10.8356 34.175 12.6804ZM35.3703 6.16695C35.3703 6.49666 35.1023 6.76461 34.7726 6.76461C34.4419 6.76461 34.175 6.49666 34.175 6.16695V4.12396C34.175 3.79426 34.4419 3.52631 34.7726 3.52631C35.1023 3.52631 35.3703 3.79426 35.3703 4.12396V6.16695ZM40.2681 6.76361C39.9374 6.76361 39.6704 6.49566 39.6704 6.16596V4.12396C39.6704 3.79426 39.9374 3.52631 40.2681 3.52631C40.5978 3.52631 40.8657 3.79426 40.8657 4.12396V6.16695C40.8657 6.49666 40.5978 6.76361 40.2681 6.76361ZM10.2528 9.93318C10.2528 9.60348 10.5207 9.33553 10.8504 9.33553C11.1812 9.33553 11.4481 9.60348 11.4481 9.93318C11.4481 11.7779 9.94799 13.2791 8.10322 13.2791C6.25846 13.2791 4.75734 11.7779 4.75734 9.93318C4.75734 9.60348 5.02529 9.33553 5.355 9.33553C5.6857 9.33553 5.95266 9.60348 5.95266 9.93318C5.95266 11.1185 6.91787 12.0837 8.10322 12.0837C9.28857 12.0828 10.2528 11.1185 10.2528 9.93318ZM11.4481 6.16695C11.4481 6.49666 11.1812 6.76461 10.8504 6.76461C10.5207 6.76461 10.2528 6.49666 10.2528 6.16695V4.12396C10.2528 3.79426 10.5207 3.52631 10.8504 3.52631C11.1812 3.52631 11.4481 3.79426 11.4481 4.12396V6.16695ZM5.95266 4.12396V6.16695C5.95266 6.49666 5.6857 6.76461 5.355 6.76461C5.02529 6.76461 4.75734 6.49666 4.75734 6.16695V4.12396C4.75734 3.79426 5.02529 3.52631 5.355 3.52631C5.68471 3.52631 5.95266 3.79426 5.95266 4.12396Z" fill="#60C6B1"/>
</svg>
