<svg width="40" height="46" viewBox="0 0 40 46" fill="none" xmlns="http://www.w3.org/2000/svg">
<path d="M13.8057 12.0982C14.8429 12.4665 15.809 12.6511 17.1492 12.7287V11.4498C17.1492 10.09 18.2484 8.98261 19.5992 8.98261C20.9499 8.98261 22.0492 10.0892 22.0492 11.4498V12.7287C23.3893 12.6511 24.3538 12.4673 25.3861 12.1006C27.2154 11.4432 27.9365 10.6519 27.7307 9.53141C27.4759 8.15043 26.0639 7.3501 19.5992 7.3501C13.1344 7.3501 11.7216 8.14961 11.4676 9.53141C11.2618 10.6519 11.9829 11.4432 13.8057 12.0982Z" fill="#60C6B1"/>
<path d="M25.3489 18.9222C24.2571 18.9222 23.1513 18.794 22.0496 18.5465V20.8961C23.4551 21.6033 25.5008 22.3595 27.8561 22.3595C28.2195 22.3595 28.5756 22.3424 28.9112 22.3081C30.436 22.1603 31.5858 21.6474 32.2408 20.8267C32.7128 20.2607 32.9194 19.5616 32.8492 18.7907C32.7545 17.8507 32.3535 17.0553 31.6593 16.4175C31.4658 16.7196 31.2306 17.0022 30.9472 17.2554C30.0954 18.0426 28.8018 18.5808 27.2183 18.8021C26.6238 18.8838 25.9957 18.9238 25.3489 18.9238V18.9222Z" fill="#60C6B1"/>
<path d="M27.8561 23.9929C25.941 23.9929 23.9565 23.5445 22.0496 22.6993V24.8986C24.3787 26.7548 26.9619 27.6132 29.5066 27.3869C30.6932 27.2636 31.6471 26.9165 32.329 26.3571C33.1375 25.6964 33.5123 24.7989 33.4135 23.7601C33.3686 23.2709 33.2412 22.7981 33.0509 22.3416C32.1118 23.2179 30.752 23.7691 29.0738 23.9324C28.6858 23.9725 28.2751 23.9921 27.8569 23.9921L27.8561 23.9929Z" fill="#60C6B1"/>
<path d="M22.0496 14.366V16.8519C23.7491 17.2774 25.4821 17.3893 26.9953 17.1827C28.2448 17.0079 29.233 16.6151 29.8504 16.0443C30.4784 15.4848 30.7242 14.7776 30.574 13.9879C30.485 13.5208 29.9819 12.6208 28.6834 11.9062C28.1109 12.6036 27.2036 13.1835 25.9459 13.6351C24.7356 14.0647 23.5947 14.2819 22.0496 14.366Z" fill="#60C6B1"/>
<path d="M19.5999 10.6167C19.1491 10.6167 18.7832 10.9907 18.7832 11.4505V30.3768C18.7832 31.5944 19.2446 32.3016 19.6325 32.6806C19.9551 32.3016 20.4165 31.5944 20.4165 30.3768V11.4505C20.4165 10.9915 20.0507 10.6167 19.5999 10.6167Z" fill="#60C6B1"/>
<path d="M30.603 34.1059C30.3139 34.1239 30.0199 34.1312 29.7325 34.1312C27.0023 34.1312 24.2567 33.3088 21.868 31.8037C21.7438 32.2757 21.5691 32.6775 21.3682 33.0099C23.881 35.8258 27.4572 37.5669 30.8619 37.5669C34.5639 37.5669 35.1167 35.7605 35.1167 34.6841C35.1167 34.0046 34.9501 33.3717 34.6431 32.787C34.3017 33.0606 33.9097 33.2949 33.4703 33.482C32.6855 33.8217 31.7194 34.0324 30.6038 34.1067L30.603 34.1059Z" fill="#60C6B1"/>
<path d="M8.33778 37.5667C11.7425 37.5667 15.3186 35.8256 17.8315 33.0097C17.6306 32.6773 17.4559 32.2755 17.3317 31.8035C14.943 33.3086 12.1973 34.131 9.46723 34.131C9.17894 34.131 8.88576 34.1236 8.59829 34.1057C7.48109 34.0314 6.51498 33.8206 5.72444 33.4785C5.28671 33.2931 4.89716 33.0587 4.55661 32.7867C4.24954 33.3715 4.08294 34.0044 4.08294 34.6839C4.08294 35.7602 4.63583 37.5667 8.33778 37.5667Z" fill="#60C6B1"/>
<path d="M0.816667 45.7333H38.3833C38.8341 45.7333 39.2 45.3675 39.2 44.9167V0.816667C39.2 0.365867 38.8341 0 38.3833 0H0.816667C0.365867 0 0 0.365867 0 0.816667V44.9167C0 45.3675 0.365867 45.7333 0.816667 45.7333ZM10.6167 43.2833H5.71667C5.26505 43.2833 4.9 42.9183 4.9 42.4667C4.9 42.0151 5.26505 41.65 5.71667 41.65H10.6167C11.0683 41.65 11.4333 42.0151 11.4333 42.4667C11.4333 42.9183 11.0683 43.2833 10.6167 43.2833ZM22.05 43.2833H17.15C16.6984 43.2833 16.3333 42.9183 16.3333 42.4667C16.3333 42.0151 16.6984 41.65 17.15 41.65H22.05C22.5016 41.65 22.8667 42.0151 22.8667 42.4667C22.8667 42.9183 22.5016 43.2833 22.05 43.2833ZM33.4833 43.2833H28.5833C28.1317 43.2833 27.7667 42.9183 27.7667 42.4667C27.7667 42.0151 28.1317 41.65 28.5833 41.65H33.4833C33.935 41.65 34.3 42.0151 34.3 42.4667C34.3 42.9183 33.935 43.2833 33.4833 43.2833ZM3.26667 2.45H9.8C10.2516 2.45 10.6167 2.81505 10.6167 3.26667C10.6167 3.71828 10.2516 4.08333 9.8 4.08333H3.26667C2.81505 4.08333 2.45 3.71828 2.45 3.26667C2.45 2.81505 2.81505 2.45 3.26667 2.45ZM3.26667 5.71667H6.53333C6.98495 5.71667 7.35 6.08172 7.35 6.53333C7.35 6.98495 6.98495 7.35 6.53333 7.35H3.26667C2.81505 7.35 2.45 6.98495 2.45 6.53333C2.45 6.08172 2.81505 5.71667 3.26667 5.71667ZM3.46675 31.4547C3.14335 30.8283 2.9792 30.1211 3.01922 29.36C3.08945 28.1407 3.58762 26.9704 4.50065 25.8728C4.20338 25.1811 4.08333 24.4151 4.16092 23.6058C4.24993 22.6323 4.56925 21.7078 5.08702 20.8438C4.79302 20.1709 4.65255 19.422 4.72278 18.6412C4.83712 17.5118 5.341 15.9797 6.97352 14.7857C6.9384 14.4256 6.94983 14.0557 7.02088 13.6816C7.21198 12.6853 8.06213 11.3615 9.84737 10.4174C9.7902 10.0442 9.78448 9.65382 9.86125 9.23568C10.406 6.2769 13.7037 5.71585 19.5992 5.71585C25.4947 5.71585 28.7924 6.2769 29.3371 9.23568C29.4139 9.65382 29.4082 10.0442 29.3518 10.4174C31.1371 11.3615 31.9872 12.6853 32.1783 13.6816C32.2502 14.0557 32.2608 14.4256 32.2257 14.7857C33.8582 15.9797 34.3621 17.511 34.4756 18.6331C34.5466 19.4162 34.407 20.166 34.1114 20.8413C34.6299 21.7062 34.9501 22.6323 35.0399 23.609C35.1167 24.4159 34.9966 25.1819 34.6993 25.8728C35.6116 26.9712 36.1097 28.1407 36.18 29.3559C36.2208 30.1187 36.0566 30.8259 35.7332 31.4531C36.3882 32.4176 36.75 33.5168 36.75 34.683C36.75 35.7422 36.3253 39.1992 30.8618 39.1992C27.0325 39.1992 23.0153 37.2923 20.2019 34.1816C20.0091 34.2616 19.805 34.3024 19.6 34.3024C19.395 34.3024 19.1909 34.2608 18.9981 34.1816C16.1847 37.2931 12.1675 39.1992 8.33817 39.1992C2.87467 39.1992 2.45 35.7422 2.45 34.683C2.45 33.5176 2.8126 32.4192 3.46675 31.4547Z" fill="#60C6B1"/>
<path d="M12.2071 17.1827C13.7123 17.3869 15.4493 17.2774 17.1496 16.8511V14.3652C15.6053 14.2811 14.466 14.0647 13.2672 13.64C12.003 13.1859 11.0916 12.6036 10.5175 11.9054C9.21814 12.62 8.71508 13.5208 8.62606 13.9879C8.47498 14.7776 8.72161 15.4848 9.33819 16.0336C9.96703 16.6143 10.9536 17.0071 12.2071 17.1827Z" fill="#60C6B1"/>
<path d="M10.2836 22.3073C10.6233 22.3416 10.9794 22.3587 11.3428 22.3587C13.6989 22.3587 15.7438 21.6025 17.1493 20.8953V18.5457C16.0476 18.7932 14.9419 18.9214 13.85 18.9214C13.2032 18.9214 12.5744 18.8805 11.9839 18.8005C10.3971 18.5792 9.10353 18.0402 8.24032 17.2431C7.96102 16.9949 7.72908 16.7156 7.53798 16.4175C6.84463 17.0561 6.44365 17.8524 6.3481 18.7981C6.27868 19.5616 6.4853 20.2599 6.94508 20.812C7.61148 21.6474 8.76217 22.1603 10.2828 22.3081L10.2836 22.3073Z" fill="#60C6B1"/>
<path d="M9.70406 27.3878C9.97764 27.4123 10.2643 27.4286 10.5485 27.4286C12.8066 27.4286 15.081 26.5499 17.1496 24.901V22.6993C15.2427 23.5437 13.2582 23.9929 11.3431 23.9929C10.9242 23.9929 10.5134 23.9733 10.1222 23.9333C8.45129 23.7707 7.09563 23.222 6.14993 22.3408C5.95883 22.7973 5.83143 23.2693 5.78733 23.7577C5.68769 24.7989 6.06254 25.6973 6.87023 26.3571C7.55296 26.9174 8.50683 27.2636 9.70488 27.3886L9.70406 27.3878Z" fill="#60C6B1"/>
<path d="M6.36761 31.9767C6.99154 32.247 7.77554 32.4136 8.70409 32.4749C11.631 32.6693 14.6502 31.7432 17.1492 29.9498V26.9199C15.0627 28.3181 12.8087 29.0612 10.5481 29.0612C10.2141 29.0612 9.88009 29.0441 9.54526 29.013C8.01238 28.8538 6.76778 28.385 5.83433 27.6198C5.70529 27.5145 5.58688 27.4009 5.47091 27.2866C4.96784 27.9947 4.69099 28.719 4.64853 29.4491C4.58891 30.5819 5.19814 31.4802 6.36679 31.9759L6.36761 31.9767Z" fill="#60C6B1"/>
<path d="M29.6642 29.0129C29.3188 29.044 28.9847 29.0619 28.6507 29.0619C26.3902 29.0619 24.1362 28.3188 22.0496 26.9206V29.9505C24.547 31.7439 27.5556 32.67 30.4964 32.4756C31.4241 32.4143 32.2081 32.2477 32.8263 31.9799C34.0007 31.4825 34.6099 30.5834 34.5487 29.4466C34.507 28.7189 34.2302 27.9954 33.7271 27.2881C33.612 27.4033 33.4927 27.516 33.3629 27.6222C32.4303 28.3874 31.1857 28.8545 29.6642 29.0129Z" fill="#60C6B1"/>
</svg>
