<svg width="49" height="48" viewBox="0 0 49 48" fill="none" xmlns="http://www.w3.org/2000/svg">
<path fill-rule="evenodd" clip-rule="evenodd" d="M45.3421 9.43437C45.3421 7.56943 43.8163 6.04365 41.9514 6.04365H34.6882V4.04639C34.6882 1.8209 32.8673 0 30.6418 0H20.3969C18.1714 0 16.3505 1.8209 16.3505 4.04639V6.04365H9.08721C7.22227 6.04365 5.69648 7.56943 5.69648 9.43437V12.8366H45.3421V9.43437ZM18.9219 4.04629C18.9219 3.24014 19.5906 2.57129 20.3969 2.57129H30.6418C31.448 2.57129 32.1168 3.24014 32.1168 4.04629V6.04355H18.922L18.9219 4.04629ZM35.6695 30.3348C36.3048 29.2345 37.4275 28.5862 38.698 28.5862C39.9686 28.5862 41.0913 29.2345 41.7266 30.3348L44.3814 34.9331V14.2036H6.65713V22.4617H4.19619C3.81865 22.4617 3.5126 22.7678 3.5126 23.1453C3.5126 23.5229 3.81865 23.8289 4.19619 23.8289H13.7441C14.1217 23.8289 14.4277 24.135 14.4277 24.5125C14.4277 24.89 14.1217 25.1961 13.7441 25.1961H6.65713V26.1872H0.683594C0.306055 26.1872 0 26.4933 0 26.8708C0 27.2483 0.306055 27.5544 0.683594 27.5544H10.5973C10.9748 27.5544 11.2809 27.8605 11.2809 28.238C11.2809 28.6155 10.9748 28.9216 10.5973 28.9216H6.65713V29.9127H4.93857C4.56104 29.9127 4.25498 30.2188 4.25498 30.5963C4.25498 30.9738 4.56104 31.2799 4.93857 31.2799H16.892C17.2695 31.2799 17.5756 31.5859 17.5756 31.9635C17.5756 32.341 17.2695 32.6471 16.892 32.6471H6.65713V35.3289C6.65713 37.0988 8.10518 38.5469 9.8751 38.5469H30.9283L35.6695 30.3348ZM10.3397 21.4707C9.96221 21.4707 9.65615 21.1646 9.65615 20.7871C9.65615 20.4096 9.96221 20.1035 10.3397 20.1035H17.727C18.1045 20.1035 18.4105 20.4096 18.4105 20.7871C18.4105 21.1646 18.1045 21.4707 17.727 21.4707H10.3397ZM28.1146 32.9848C28.1146 33.3899 27.7842 33.7203 27.379 33.7203H23.6597C23.2545 33.7203 22.924 33.3899 22.924 32.9848V28.9705H18.9099C18.5048 28.9705 18.1742 28.6401 18.1742 28.235V24.5155C18.1742 24.1104 18.5047 23.78 18.9099 23.78H22.924V19.7657C22.924 19.3606 23.2545 19.0302 23.6597 19.0302H27.379C27.7842 19.0302 28.1146 19.3606 28.1146 19.7657V23.78H32.1288C32.5339 23.78 32.8644 24.1104 32.8644 24.5155V28.235C32.8644 28.64 32.534 28.9705 32.1288 28.9705H28.1146V32.9848ZM48.2418 44.3538L40.5426 31.0184C40.1516 30.3411 39.4801 29.9534 38.698 29.9534C37.916 29.9534 37.2445 30.341 36.8535 31.0184L29.1543 44.3538C28.7633 45.0312 28.7633 45.8064 29.1543 46.4837C29.5453 47.161 30.2167 47.5486 30.9988 47.5486H46.3973C47.1794 47.5486 47.8508 47.161 48.2418 46.4837C48.6328 45.8063 48.6328 45.0312 48.2418 44.3538ZM38.698 45.6177C38.0739 45.6177 37.568 45.1117 37.568 44.4876C37.568 43.8635 38.0739 43.3576 38.698 43.3576C39.3222 43.3576 39.828 43.8636 39.828 44.4876C39.828 45.1116 39.3221 45.6177 38.698 45.6177ZM39.9214 35.2141L39.5266 41.7069C39.5048 42.0654 39.2086 42.3441 38.8494 42.3441H38.5467C38.1874 42.3441 37.8913 42.0654 37.8695 41.7069L37.4746 35.2141C37.4608 34.9881 37.5331 34.7886 37.6883 34.6237C37.8435 34.4589 38.0383 34.3747 38.2646 34.3747H39.1313C39.3577 34.3747 39.5525 34.4589 39.7077 34.6237C39.8628 34.7886 39.9351 34.9882 39.9214 35.2141Z" fill="#60C6B1"/>
</svg>
